%TF.GenerationSoftware,KiCad,Pcbnew,9.0.2*%
%TF.CreationDate,2025-09-24T13:25:18+05:30*%
%TF.ProjectId,UNO STEMc3.1,554e4f20-5354-4454-9d63-332e312e6b69,rev?*%
%TF.SameCoordinates,Original*%
%TF.FileFunction,AssemblyDrawing,Top*%
%FSLAX46Y46*%
G04 Gerber Fmt 4.6, Leading zero omitted, Abs format (unit mm)*
G04 Created by KiCad (PCBNEW 9.0.2) date 2025-09-24 13:25:18*
%MOMM*%
%LPD*%
G01*
G04 APERTURE LIST*
%ADD10C,0.150000*%
%ADD11C,0.040000*%
%ADD12C,0.080000*%
%ADD13C,0.135000*%
%ADD14C,0.100000*%
G04 APERTURE END LIST*
D10*
X128686933Y-126983333D02*
X129401218Y-126983333D01*
X129401218Y-126983333D02*
X129544075Y-127030952D01*
X129544075Y-127030952D02*
X129639314Y-127126190D01*
X129639314Y-127126190D02*
X129686933Y-127269047D01*
X129686933Y-127269047D02*
X129686933Y-127364285D01*
X129020266Y-126078571D02*
X129686933Y-126078571D01*
X128639314Y-126316666D02*
X129353599Y-126554761D01*
X129353599Y-126554761D02*
X129353599Y-125935714D01*
X80861904Y-169539580D02*
X80814285Y-169587200D01*
X80814285Y-169587200D02*
X80671428Y-169634819D01*
X80671428Y-169634819D02*
X80576190Y-169634819D01*
X80576190Y-169634819D02*
X80433333Y-169587200D01*
X80433333Y-169587200D02*
X80338095Y-169491961D01*
X80338095Y-169491961D02*
X80290476Y-169396723D01*
X80290476Y-169396723D02*
X80242857Y-169206247D01*
X80242857Y-169206247D02*
X80242857Y-169063390D01*
X80242857Y-169063390D02*
X80290476Y-168872914D01*
X80290476Y-168872914D02*
X80338095Y-168777676D01*
X80338095Y-168777676D02*
X80433333Y-168682438D01*
X80433333Y-168682438D02*
X80576190Y-168634819D01*
X80576190Y-168634819D02*
X80671428Y-168634819D01*
X80671428Y-168634819D02*
X80814285Y-168682438D01*
X80814285Y-168682438D02*
X80861904Y-168730057D01*
X81433333Y-169634819D02*
X81338095Y-169587200D01*
X81338095Y-169587200D02*
X81290476Y-169539580D01*
X81290476Y-169539580D02*
X81242857Y-169444342D01*
X81242857Y-169444342D02*
X81242857Y-169158628D01*
X81242857Y-169158628D02*
X81290476Y-169063390D01*
X81290476Y-169063390D02*
X81338095Y-169015771D01*
X81338095Y-169015771D02*
X81433333Y-168968152D01*
X81433333Y-168968152D02*
X81576190Y-168968152D01*
X81576190Y-168968152D02*
X81671428Y-169015771D01*
X81671428Y-169015771D02*
X81719047Y-169063390D01*
X81719047Y-169063390D02*
X81766666Y-169158628D01*
X81766666Y-169158628D02*
X81766666Y-169444342D01*
X81766666Y-169444342D02*
X81719047Y-169539580D01*
X81719047Y-169539580D02*
X81671428Y-169587200D01*
X81671428Y-169587200D02*
X81576190Y-169634819D01*
X81576190Y-169634819D02*
X81433333Y-169634819D01*
X82195238Y-168968152D02*
X82195238Y-169634819D01*
X82195238Y-169063390D02*
X82242857Y-169015771D01*
X82242857Y-169015771D02*
X82338095Y-168968152D01*
X82338095Y-168968152D02*
X82480952Y-168968152D01*
X82480952Y-168968152D02*
X82576190Y-169015771D01*
X82576190Y-169015771D02*
X82623809Y-169111009D01*
X82623809Y-169111009D02*
X82623809Y-169634819D01*
X83100000Y-168968152D02*
X83100000Y-169634819D01*
X83100000Y-169063390D02*
X83147619Y-169015771D01*
X83147619Y-169015771D02*
X83242857Y-168968152D01*
X83242857Y-168968152D02*
X83385714Y-168968152D01*
X83385714Y-168968152D02*
X83480952Y-169015771D01*
X83480952Y-169015771D02*
X83528571Y-169111009D01*
X83528571Y-169111009D02*
X83528571Y-169634819D01*
X83766667Y-169730057D02*
X84528571Y-169730057D01*
X84957143Y-168634819D02*
X85052381Y-168634819D01*
X85052381Y-168634819D02*
X85147619Y-168682438D01*
X85147619Y-168682438D02*
X85195238Y-168730057D01*
X85195238Y-168730057D02*
X85242857Y-168825295D01*
X85242857Y-168825295D02*
X85290476Y-169015771D01*
X85290476Y-169015771D02*
X85290476Y-169253866D01*
X85290476Y-169253866D02*
X85242857Y-169444342D01*
X85242857Y-169444342D02*
X85195238Y-169539580D01*
X85195238Y-169539580D02*
X85147619Y-169587200D01*
X85147619Y-169587200D02*
X85052381Y-169634819D01*
X85052381Y-169634819D02*
X84957143Y-169634819D01*
X84957143Y-169634819D02*
X84861905Y-169587200D01*
X84861905Y-169587200D02*
X84814286Y-169539580D01*
X84814286Y-169539580D02*
X84766667Y-169444342D01*
X84766667Y-169444342D02*
X84719048Y-169253866D01*
X84719048Y-169253866D02*
X84719048Y-169015771D01*
X84719048Y-169015771D02*
X84766667Y-168825295D01*
X84766667Y-168825295D02*
X84814286Y-168730057D01*
X84814286Y-168730057D02*
X84861905Y-168682438D01*
X84861905Y-168682438D02*
X84957143Y-168634819D01*
X86242857Y-169634819D02*
X85671429Y-169634819D01*
X85957143Y-169634819D02*
X85957143Y-168634819D01*
X85957143Y-168634819D02*
X85861905Y-168777676D01*
X85861905Y-168777676D02*
X85766667Y-168872914D01*
X85766667Y-168872914D02*
X85671429Y-168920533D01*
X86576191Y-169634819D02*
X87100000Y-168968152D01*
X86576191Y-168968152D02*
X87100000Y-169634819D01*
X87671429Y-168634819D02*
X87766667Y-168634819D01*
X87766667Y-168634819D02*
X87861905Y-168682438D01*
X87861905Y-168682438D02*
X87909524Y-168730057D01*
X87909524Y-168730057D02*
X87957143Y-168825295D01*
X87957143Y-168825295D02*
X88004762Y-169015771D01*
X88004762Y-169015771D02*
X88004762Y-169253866D01*
X88004762Y-169253866D02*
X87957143Y-169444342D01*
X87957143Y-169444342D02*
X87909524Y-169539580D01*
X87909524Y-169539580D02*
X87861905Y-169587200D01*
X87861905Y-169587200D02*
X87766667Y-169634819D01*
X87766667Y-169634819D02*
X87671429Y-169634819D01*
X87671429Y-169634819D02*
X87576191Y-169587200D01*
X87576191Y-169587200D02*
X87528572Y-169539580D01*
X87528572Y-169539580D02*
X87480953Y-169444342D01*
X87480953Y-169444342D02*
X87433334Y-169253866D01*
X87433334Y-169253866D02*
X87433334Y-169015771D01*
X87433334Y-169015771D02*
X87480953Y-168825295D01*
X87480953Y-168825295D02*
X87528572Y-168730057D01*
X87528572Y-168730057D02*
X87576191Y-168682438D01*
X87576191Y-168682438D02*
X87671429Y-168634819D01*
X88861905Y-168968152D02*
X88861905Y-169634819D01*
X88623810Y-168587200D02*
X88385715Y-169301485D01*
X88385715Y-169301485D02*
X89004762Y-169301485D01*
X84054819Y-163323333D02*
X84769104Y-163323333D01*
X84769104Y-163323333D02*
X84911961Y-163370952D01*
X84911961Y-163370952D02*
X85007200Y-163466190D01*
X85007200Y-163466190D02*
X85054819Y-163609047D01*
X85054819Y-163609047D02*
X85054819Y-163704285D01*
X84054819Y-162418571D02*
X84054819Y-162609047D01*
X84054819Y-162609047D02*
X84102438Y-162704285D01*
X84102438Y-162704285D02*
X84150057Y-162751904D01*
X84150057Y-162751904D02*
X84292914Y-162847142D01*
X84292914Y-162847142D02*
X84483390Y-162894761D01*
X84483390Y-162894761D02*
X84864342Y-162894761D01*
X84864342Y-162894761D02*
X84959580Y-162847142D01*
X84959580Y-162847142D02*
X85007200Y-162799523D01*
X85007200Y-162799523D02*
X85054819Y-162704285D01*
X85054819Y-162704285D02*
X85054819Y-162513809D01*
X85054819Y-162513809D02*
X85007200Y-162418571D01*
X85007200Y-162418571D02*
X84959580Y-162370952D01*
X84959580Y-162370952D02*
X84864342Y-162323333D01*
X84864342Y-162323333D02*
X84626247Y-162323333D01*
X84626247Y-162323333D02*
X84531009Y-162370952D01*
X84531009Y-162370952D02*
X84483390Y-162418571D01*
X84483390Y-162418571D02*
X84435771Y-162513809D01*
X84435771Y-162513809D02*
X84435771Y-162704285D01*
X84435771Y-162704285D02*
X84483390Y-162799523D01*
X84483390Y-162799523D02*
X84531009Y-162847142D01*
X84531009Y-162847142D02*
X84626247Y-162894761D01*
X107164761Y-170534819D02*
X106593333Y-170534819D01*
X106879047Y-170534819D02*
X106879047Y-169534819D01*
X106879047Y-169534819D02*
X106783809Y-169677676D01*
X106783809Y-169677676D02*
X106688571Y-169772914D01*
X106688571Y-169772914D02*
X106593333Y-169820533D01*
X107783809Y-169534819D02*
X107879047Y-169534819D01*
X107879047Y-169534819D02*
X107974285Y-169582438D01*
X107974285Y-169582438D02*
X108021904Y-169630057D01*
X108021904Y-169630057D02*
X108069523Y-169725295D01*
X108069523Y-169725295D02*
X108117142Y-169915771D01*
X108117142Y-169915771D02*
X108117142Y-170153866D01*
X108117142Y-170153866D02*
X108069523Y-170344342D01*
X108069523Y-170344342D02*
X108021904Y-170439580D01*
X108021904Y-170439580D02*
X107974285Y-170487200D01*
X107974285Y-170487200D02*
X107879047Y-170534819D01*
X107879047Y-170534819D02*
X107783809Y-170534819D01*
X107783809Y-170534819D02*
X107688571Y-170487200D01*
X107688571Y-170487200D02*
X107640952Y-170439580D01*
X107640952Y-170439580D02*
X107593333Y-170344342D01*
X107593333Y-170344342D02*
X107545714Y-170153866D01*
X107545714Y-170153866D02*
X107545714Y-169915771D01*
X107545714Y-169915771D02*
X107593333Y-169725295D01*
X107593333Y-169725295D02*
X107640952Y-169630057D01*
X107640952Y-169630057D02*
X107688571Y-169582438D01*
X107688571Y-169582438D02*
X107783809Y-169534819D01*
X108545714Y-170534819D02*
X108545714Y-169534819D01*
X108640952Y-170153866D02*
X108926666Y-170534819D01*
X108926666Y-169868152D02*
X108545714Y-170249104D01*
X109926666Y-170534819D02*
X109593333Y-170058628D01*
X109355238Y-170534819D02*
X109355238Y-169534819D01*
X109355238Y-169534819D02*
X109736190Y-169534819D01*
X109736190Y-169534819D02*
X109831428Y-169582438D01*
X109831428Y-169582438D02*
X109879047Y-169630057D01*
X109879047Y-169630057D02*
X109926666Y-169725295D01*
X109926666Y-169725295D02*
X109926666Y-169868152D01*
X109926666Y-169868152D02*
X109879047Y-169963390D01*
X109879047Y-169963390D02*
X109831428Y-170011009D01*
X109831428Y-170011009D02*
X109736190Y-170058628D01*
X109736190Y-170058628D02*
X109355238Y-170058628D01*
D11*
X108092857Y-171368200D02*
X108006190Y-171244391D01*
X107944285Y-171368200D02*
X107944285Y-171108200D01*
X107944285Y-171108200D02*
X108043333Y-171108200D01*
X108043333Y-171108200D02*
X108068095Y-171120581D01*
X108068095Y-171120581D02*
X108080476Y-171132962D01*
X108080476Y-171132962D02*
X108092857Y-171157724D01*
X108092857Y-171157724D02*
X108092857Y-171194867D01*
X108092857Y-171194867D02*
X108080476Y-171219629D01*
X108080476Y-171219629D02*
X108068095Y-171232010D01*
X108068095Y-171232010D02*
X108043333Y-171244391D01*
X108043333Y-171244391D02*
X107944285Y-171244391D01*
X108340476Y-171368200D02*
X108191904Y-171368200D01*
X108266190Y-171368200D02*
X108266190Y-171108200D01*
X108266190Y-171108200D02*
X108241428Y-171145343D01*
X108241428Y-171145343D02*
X108216666Y-171170105D01*
X108216666Y-171170105D02*
X108191904Y-171182486D01*
X108588095Y-171368200D02*
X108439523Y-171368200D01*
X108513809Y-171368200D02*
X108513809Y-171108200D01*
X108513809Y-171108200D02*
X108489047Y-171145343D01*
X108489047Y-171145343D02*
X108464285Y-171170105D01*
X108464285Y-171170105D02*
X108439523Y-171182486D01*
D10*
X68180952Y-115284819D02*
X67609524Y-115284819D01*
X67895238Y-115284819D02*
X67895238Y-114284819D01*
X67895238Y-114284819D02*
X67800000Y-114427676D01*
X67800000Y-114427676D02*
X67704762Y-114522914D01*
X67704762Y-114522914D02*
X67609524Y-114570533D01*
X68609524Y-115284819D02*
X68609524Y-114284819D01*
X68704762Y-114903866D02*
X68990476Y-115284819D01*
X68990476Y-114618152D02*
X68609524Y-114999104D01*
X69990476Y-115284819D02*
X69657143Y-114808628D01*
X69419048Y-115284819D02*
X69419048Y-114284819D01*
X69419048Y-114284819D02*
X69800000Y-114284819D01*
X69800000Y-114284819D02*
X69895238Y-114332438D01*
X69895238Y-114332438D02*
X69942857Y-114380057D01*
X69942857Y-114380057D02*
X69990476Y-114475295D01*
X69990476Y-114475295D02*
X69990476Y-114618152D01*
X69990476Y-114618152D02*
X69942857Y-114713390D01*
X69942857Y-114713390D02*
X69895238Y-114761009D01*
X69895238Y-114761009D02*
X69800000Y-114808628D01*
X69800000Y-114808628D02*
X69419048Y-114808628D01*
D11*
X68632857Y-116118200D02*
X68546190Y-115994391D01*
X68484285Y-116118200D02*
X68484285Y-115858200D01*
X68484285Y-115858200D02*
X68583333Y-115858200D01*
X68583333Y-115858200D02*
X68608095Y-115870581D01*
X68608095Y-115870581D02*
X68620476Y-115882962D01*
X68620476Y-115882962D02*
X68632857Y-115907724D01*
X68632857Y-115907724D02*
X68632857Y-115944867D01*
X68632857Y-115944867D02*
X68620476Y-115969629D01*
X68620476Y-115969629D02*
X68608095Y-115982010D01*
X68608095Y-115982010D02*
X68583333Y-115994391D01*
X68583333Y-115994391D02*
X68484285Y-115994391D01*
X68880476Y-116118200D02*
X68731904Y-116118200D01*
X68806190Y-116118200D02*
X68806190Y-115858200D01*
X68806190Y-115858200D02*
X68781428Y-115895343D01*
X68781428Y-115895343D02*
X68756666Y-115920105D01*
X68756666Y-115920105D02*
X68731904Y-115932486D01*
X68967142Y-115858200D02*
X69140476Y-115858200D01*
X69140476Y-115858200D02*
X69029047Y-116118200D01*
D10*
X79480057Y-146642856D02*
X79432438Y-146595237D01*
X79432438Y-146595237D02*
X79384819Y-146499999D01*
X79384819Y-146499999D02*
X79384819Y-146261904D01*
X79384819Y-146261904D02*
X79432438Y-146166666D01*
X79432438Y-146166666D02*
X79480057Y-146119047D01*
X79480057Y-146119047D02*
X79575295Y-146071428D01*
X79575295Y-146071428D02*
X79670533Y-146071428D01*
X79670533Y-146071428D02*
X79813390Y-146119047D01*
X79813390Y-146119047D02*
X80384819Y-146690475D01*
X80384819Y-146690475D02*
X80384819Y-146071428D01*
X79480057Y-145690475D02*
X79432438Y-145642856D01*
X79432438Y-145642856D02*
X79384819Y-145547618D01*
X79384819Y-145547618D02*
X79384819Y-145309523D01*
X79384819Y-145309523D02*
X79432438Y-145214285D01*
X79432438Y-145214285D02*
X79480057Y-145166666D01*
X79480057Y-145166666D02*
X79575295Y-145119047D01*
X79575295Y-145119047D02*
X79670533Y-145119047D01*
X79670533Y-145119047D02*
X79813390Y-145166666D01*
X79813390Y-145166666D02*
X80384819Y-145738094D01*
X80384819Y-145738094D02*
X80384819Y-145119047D01*
X79718152Y-144690475D02*
X80718152Y-144690475D01*
X79765771Y-144690475D02*
X79718152Y-144595237D01*
X79718152Y-144595237D02*
X79718152Y-144404761D01*
X79718152Y-144404761D02*
X79765771Y-144309523D01*
X79765771Y-144309523D02*
X79813390Y-144261904D01*
X79813390Y-144261904D02*
X79908628Y-144214285D01*
X79908628Y-144214285D02*
X80194342Y-144214285D01*
X80194342Y-144214285D02*
X80289580Y-144261904D01*
X80289580Y-144261904D02*
X80337200Y-144309523D01*
X80337200Y-144309523D02*
X80384819Y-144404761D01*
X80384819Y-144404761D02*
X80384819Y-144595237D01*
X80384819Y-144595237D02*
X80337200Y-144690475D01*
X79861009Y-143452380D02*
X79861009Y-143785713D01*
X80384819Y-143785713D02*
X79384819Y-143785713D01*
X79384819Y-143785713D02*
X79384819Y-143309523D01*
D12*
X78429530Y-145321428D02*
X78453340Y-145345237D01*
X78453340Y-145345237D02*
X78477149Y-145416666D01*
X78477149Y-145416666D02*
X78477149Y-145464285D01*
X78477149Y-145464285D02*
X78453340Y-145535713D01*
X78453340Y-145535713D02*
X78405720Y-145583332D01*
X78405720Y-145583332D02*
X78358101Y-145607142D01*
X78358101Y-145607142D02*
X78262863Y-145630951D01*
X78262863Y-145630951D02*
X78191435Y-145630951D01*
X78191435Y-145630951D02*
X78096197Y-145607142D01*
X78096197Y-145607142D02*
X78048578Y-145583332D01*
X78048578Y-145583332D02*
X78000959Y-145535713D01*
X78000959Y-145535713D02*
X77977149Y-145464285D01*
X77977149Y-145464285D02*
X77977149Y-145416666D01*
X77977149Y-145416666D02*
X78000959Y-145345237D01*
X78000959Y-145345237D02*
X78024768Y-145321428D01*
X78477149Y-144845237D02*
X78477149Y-145130951D01*
X78477149Y-144988094D02*
X77977149Y-144988094D01*
X77977149Y-144988094D02*
X78048578Y-145035713D01*
X78048578Y-145035713D02*
X78096197Y-145083332D01*
X78096197Y-145083332D02*
X78120006Y-145130951D01*
X77977149Y-144678571D02*
X77977149Y-144345238D01*
X77977149Y-144345238D02*
X78477149Y-144559523D01*
D10*
X63404819Y-107666666D02*
X63404819Y-108238094D01*
X63404819Y-107952380D02*
X62404819Y-107952380D01*
X62404819Y-107952380D02*
X62547676Y-108047618D01*
X62547676Y-108047618D02*
X62642914Y-108142856D01*
X62642914Y-108142856D02*
X62690533Y-108238094D01*
X62404819Y-106761904D02*
X62404819Y-107238094D01*
X62404819Y-107238094D02*
X62881009Y-107285713D01*
X62881009Y-107285713D02*
X62833390Y-107238094D01*
X62833390Y-107238094D02*
X62785771Y-107142856D01*
X62785771Y-107142856D02*
X62785771Y-106904761D01*
X62785771Y-106904761D02*
X62833390Y-106809523D01*
X62833390Y-106809523D02*
X62881009Y-106761904D01*
X62881009Y-106761904D02*
X62976247Y-106714285D01*
X62976247Y-106714285D02*
X63214342Y-106714285D01*
X63214342Y-106714285D02*
X63309580Y-106761904D01*
X63309580Y-106761904D02*
X63357200Y-106809523D01*
X63357200Y-106809523D02*
X63404819Y-106904761D01*
X63404819Y-106904761D02*
X63404819Y-107142856D01*
X63404819Y-107142856D02*
X63357200Y-107238094D01*
X63357200Y-107238094D02*
X63309580Y-107285713D01*
X62738152Y-105857142D02*
X63404819Y-105857142D01*
X62738152Y-106285713D02*
X63261961Y-106285713D01*
X63261961Y-106285713D02*
X63357200Y-106238094D01*
X63357200Y-106238094D02*
X63404819Y-106142856D01*
X63404819Y-106142856D02*
X63404819Y-105999999D01*
X63404819Y-105999999D02*
X63357200Y-105904761D01*
X63357200Y-105904761D02*
X63309580Y-105857142D01*
X63404819Y-105380951D02*
X62404819Y-105380951D01*
X62881009Y-105380951D02*
X62881009Y-104809523D01*
X63404819Y-104809523D02*
X62404819Y-104809523D01*
X69754819Y-106666666D02*
X69754819Y-107142856D01*
X69754819Y-107142856D02*
X68754819Y-107142856D01*
X69754819Y-105809523D02*
X69754819Y-106380951D01*
X69754819Y-106095237D02*
X68754819Y-106095237D01*
X68754819Y-106095237D02*
X68897676Y-106190475D01*
X68897676Y-106190475D02*
X68992914Y-106285713D01*
X68992914Y-106285713D02*
X69040533Y-106380951D01*
X72957142Y-117904819D02*
X72480952Y-117904819D01*
X72480952Y-117904819D02*
X72480952Y-116904819D01*
X73290476Y-117381009D02*
X73623809Y-117381009D01*
X73766666Y-117904819D02*
X73290476Y-117904819D01*
X73290476Y-117904819D02*
X73290476Y-116904819D01*
X73290476Y-116904819D02*
X73766666Y-116904819D01*
X74195238Y-117904819D02*
X74195238Y-116904819D01*
X74195238Y-116904819D02*
X74433333Y-116904819D01*
X74433333Y-116904819D02*
X74576190Y-116952438D01*
X74576190Y-116952438D02*
X74671428Y-117047676D01*
X74671428Y-117047676D02*
X74719047Y-117142914D01*
X74719047Y-117142914D02*
X74766666Y-117333390D01*
X74766666Y-117333390D02*
X74766666Y-117476247D01*
X74766666Y-117476247D02*
X74719047Y-117666723D01*
X74719047Y-117666723D02*
X74671428Y-117761961D01*
X74671428Y-117761961D02*
X74576190Y-117857200D01*
X74576190Y-117857200D02*
X74433333Y-117904819D01*
X74433333Y-117904819D02*
X74195238Y-117904819D01*
D12*
X72992857Y-116027149D02*
X72992857Y-115527149D01*
X72992857Y-115527149D02*
X73111905Y-115527149D01*
X73111905Y-115527149D02*
X73183333Y-115550959D01*
X73183333Y-115550959D02*
X73230952Y-115598578D01*
X73230952Y-115598578D02*
X73254762Y-115646197D01*
X73254762Y-115646197D02*
X73278571Y-115741435D01*
X73278571Y-115741435D02*
X73278571Y-115812863D01*
X73278571Y-115812863D02*
X73254762Y-115908101D01*
X73254762Y-115908101D02*
X73230952Y-115955720D01*
X73230952Y-115955720D02*
X73183333Y-116003340D01*
X73183333Y-116003340D02*
X73111905Y-116027149D01*
X73111905Y-116027149D02*
X72992857Y-116027149D01*
X73754762Y-116027149D02*
X73469048Y-116027149D01*
X73611905Y-116027149D02*
X73611905Y-115527149D01*
X73611905Y-115527149D02*
X73564286Y-115598578D01*
X73564286Y-115598578D02*
X73516667Y-115646197D01*
X73516667Y-115646197D02*
X73469048Y-115670006D01*
X74230952Y-116027149D02*
X73945238Y-116027149D01*
X74088095Y-116027149D02*
X74088095Y-115527149D01*
X74088095Y-115527149D02*
X74040476Y-115598578D01*
X74040476Y-115598578D02*
X73992857Y-115646197D01*
X73992857Y-115646197D02*
X73945238Y-115670006D01*
D10*
X83874819Y-107932738D02*
X83874819Y-108504166D01*
X83874819Y-108218452D02*
X82874819Y-108218452D01*
X82874819Y-108218452D02*
X83017676Y-108313690D01*
X83017676Y-108313690D02*
X83112914Y-108408928D01*
X83112914Y-108408928D02*
X83160533Y-108504166D01*
X82874819Y-107313690D02*
X82874819Y-107218452D01*
X82874819Y-107218452D02*
X82922438Y-107123214D01*
X82922438Y-107123214D02*
X82970057Y-107075595D01*
X82970057Y-107075595D02*
X83065295Y-107027976D01*
X83065295Y-107027976D02*
X83255771Y-106980357D01*
X83255771Y-106980357D02*
X83493866Y-106980357D01*
X83493866Y-106980357D02*
X83684342Y-107027976D01*
X83684342Y-107027976D02*
X83779580Y-107075595D01*
X83779580Y-107075595D02*
X83827200Y-107123214D01*
X83827200Y-107123214D02*
X83874819Y-107218452D01*
X83874819Y-107218452D02*
X83874819Y-107313690D01*
X83874819Y-107313690D02*
X83827200Y-107408928D01*
X83827200Y-107408928D02*
X83779580Y-107456547D01*
X83779580Y-107456547D02*
X83684342Y-107504166D01*
X83684342Y-107504166D02*
X83493866Y-107551785D01*
X83493866Y-107551785D02*
X83255771Y-107551785D01*
X83255771Y-107551785D02*
X83065295Y-107504166D01*
X83065295Y-107504166D02*
X82970057Y-107456547D01*
X82970057Y-107456547D02*
X82922438Y-107408928D01*
X82922438Y-107408928D02*
X82874819Y-107313690D01*
X83874819Y-106551785D02*
X82874819Y-106551785D01*
X83493866Y-106456547D02*
X83874819Y-106170833D01*
X83208152Y-106170833D02*
X83589104Y-106551785D01*
X83874819Y-105170833D02*
X83398628Y-105504166D01*
X83874819Y-105742261D02*
X82874819Y-105742261D01*
X82874819Y-105742261D02*
X82874819Y-105361309D01*
X82874819Y-105361309D02*
X82922438Y-105266071D01*
X82922438Y-105266071D02*
X82970057Y-105218452D01*
X82970057Y-105218452D02*
X83065295Y-105170833D01*
X83065295Y-105170833D02*
X83208152Y-105170833D01*
X83208152Y-105170833D02*
X83303390Y-105218452D01*
X83303390Y-105218452D02*
X83351009Y-105266071D01*
X83351009Y-105266071D02*
X83398628Y-105361309D01*
X83398628Y-105361309D02*
X83398628Y-105742261D01*
D11*
X82368200Y-106880832D02*
X82244391Y-106967499D01*
X82368200Y-107029404D02*
X82108200Y-107029404D01*
X82108200Y-107029404D02*
X82108200Y-106930356D01*
X82108200Y-106930356D02*
X82120581Y-106905594D01*
X82120581Y-106905594D02*
X82132962Y-106893213D01*
X82132962Y-106893213D02*
X82157724Y-106880832D01*
X82157724Y-106880832D02*
X82194867Y-106880832D01*
X82194867Y-106880832D02*
X82219629Y-106893213D01*
X82219629Y-106893213D02*
X82232010Y-106905594D01*
X82232010Y-106905594D02*
X82244391Y-106930356D01*
X82244391Y-106930356D02*
X82244391Y-107029404D01*
X82108200Y-106794166D02*
X82108200Y-106633213D01*
X82108200Y-106633213D02*
X82207248Y-106719880D01*
X82207248Y-106719880D02*
X82207248Y-106682737D01*
X82207248Y-106682737D02*
X82219629Y-106657975D01*
X82219629Y-106657975D02*
X82232010Y-106645594D01*
X82232010Y-106645594D02*
X82256772Y-106633213D01*
X82256772Y-106633213D02*
X82318677Y-106633213D01*
X82318677Y-106633213D02*
X82343439Y-106645594D01*
X82343439Y-106645594D02*
X82355820Y-106657975D01*
X82355820Y-106657975D02*
X82368200Y-106682737D01*
X82368200Y-106682737D02*
X82368200Y-106757023D01*
X82368200Y-106757023D02*
X82355820Y-106781785D01*
X82355820Y-106781785D02*
X82343439Y-106794166D01*
D10*
X79550057Y-154355356D02*
X79502438Y-154307737D01*
X79502438Y-154307737D02*
X79454819Y-154212499D01*
X79454819Y-154212499D02*
X79454819Y-153974404D01*
X79454819Y-153974404D02*
X79502438Y-153879166D01*
X79502438Y-153879166D02*
X79550057Y-153831547D01*
X79550057Y-153831547D02*
X79645295Y-153783928D01*
X79645295Y-153783928D02*
X79740533Y-153783928D01*
X79740533Y-153783928D02*
X79883390Y-153831547D01*
X79883390Y-153831547D02*
X80454819Y-154402975D01*
X80454819Y-154402975D02*
X80454819Y-153783928D01*
X79550057Y-153402975D02*
X79502438Y-153355356D01*
X79502438Y-153355356D02*
X79454819Y-153260118D01*
X79454819Y-153260118D02*
X79454819Y-153022023D01*
X79454819Y-153022023D02*
X79502438Y-152926785D01*
X79502438Y-152926785D02*
X79550057Y-152879166D01*
X79550057Y-152879166D02*
X79645295Y-152831547D01*
X79645295Y-152831547D02*
X79740533Y-152831547D01*
X79740533Y-152831547D02*
X79883390Y-152879166D01*
X79883390Y-152879166D02*
X80454819Y-153450594D01*
X80454819Y-153450594D02*
X80454819Y-152831547D01*
X79788152Y-152402975D02*
X80788152Y-152402975D01*
X79835771Y-152402975D02*
X79788152Y-152307737D01*
X79788152Y-152307737D02*
X79788152Y-152117261D01*
X79788152Y-152117261D02*
X79835771Y-152022023D01*
X79835771Y-152022023D02*
X79883390Y-151974404D01*
X79883390Y-151974404D02*
X79978628Y-151926785D01*
X79978628Y-151926785D02*
X80264342Y-151926785D01*
X80264342Y-151926785D02*
X80359580Y-151974404D01*
X80359580Y-151974404D02*
X80407200Y-152022023D01*
X80407200Y-152022023D02*
X80454819Y-152117261D01*
X80454819Y-152117261D02*
X80454819Y-152307737D01*
X80454819Y-152307737D02*
X80407200Y-152402975D01*
X79931009Y-151164880D02*
X79931009Y-151498213D01*
X80454819Y-151498213D02*
X79454819Y-151498213D01*
X79454819Y-151498213D02*
X79454819Y-151022023D01*
D12*
X78429530Y-153033928D02*
X78453340Y-153057737D01*
X78453340Y-153057737D02*
X78477149Y-153129166D01*
X78477149Y-153129166D02*
X78477149Y-153176785D01*
X78477149Y-153176785D02*
X78453340Y-153248213D01*
X78453340Y-153248213D02*
X78405720Y-153295832D01*
X78405720Y-153295832D02*
X78358101Y-153319642D01*
X78358101Y-153319642D02*
X78262863Y-153343451D01*
X78262863Y-153343451D02*
X78191435Y-153343451D01*
X78191435Y-153343451D02*
X78096197Y-153319642D01*
X78096197Y-153319642D02*
X78048578Y-153295832D01*
X78048578Y-153295832D02*
X78000959Y-153248213D01*
X78000959Y-153248213D02*
X77977149Y-153176785D01*
X77977149Y-153176785D02*
X77977149Y-153129166D01*
X77977149Y-153129166D02*
X78000959Y-153057737D01*
X78000959Y-153057737D02*
X78024768Y-153033928D01*
X78477149Y-152557737D02*
X78477149Y-152843451D01*
X78477149Y-152700594D02*
X77977149Y-152700594D01*
X77977149Y-152700594D02*
X78048578Y-152748213D01*
X78048578Y-152748213D02*
X78096197Y-152795832D01*
X78096197Y-152795832D02*
X78120006Y-152843451D01*
X78191435Y-152272023D02*
X78167625Y-152319642D01*
X78167625Y-152319642D02*
X78143816Y-152343452D01*
X78143816Y-152343452D02*
X78096197Y-152367261D01*
X78096197Y-152367261D02*
X78072387Y-152367261D01*
X78072387Y-152367261D02*
X78024768Y-152343452D01*
X78024768Y-152343452D02*
X78000959Y-152319642D01*
X78000959Y-152319642D02*
X77977149Y-152272023D01*
X77977149Y-152272023D02*
X77977149Y-152176785D01*
X77977149Y-152176785D02*
X78000959Y-152129166D01*
X78000959Y-152129166D02*
X78024768Y-152105357D01*
X78024768Y-152105357D02*
X78072387Y-152081547D01*
X78072387Y-152081547D02*
X78096197Y-152081547D01*
X78096197Y-152081547D02*
X78143816Y-152105357D01*
X78143816Y-152105357D02*
X78167625Y-152129166D01*
X78167625Y-152129166D02*
X78191435Y-152176785D01*
X78191435Y-152176785D02*
X78191435Y-152272023D01*
X78191435Y-152272023D02*
X78215244Y-152319642D01*
X78215244Y-152319642D02*
X78239054Y-152343452D01*
X78239054Y-152343452D02*
X78286673Y-152367261D01*
X78286673Y-152367261D02*
X78381911Y-152367261D01*
X78381911Y-152367261D02*
X78429530Y-152343452D01*
X78429530Y-152343452D02*
X78453340Y-152319642D01*
X78453340Y-152319642D02*
X78477149Y-152272023D01*
X78477149Y-152272023D02*
X78477149Y-152176785D01*
X78477149Y-152176785D02*
X78453340Y-152129166D01*
X78453340Y-152129166D02*
X78429530Y-152105357D01*
X78429530Y-152105357D02*
X78381911Y-152081547D01*
X78381911Y-152081547D02*
X78286673Y-152081547D01*
X78286673Y-152081547D02*
X78239054Y-152105357D01*
X78239054Y-152105357D02*
X78215244Y-152129166D01*
X78215244Y-152129166D02*
X78191435Y-152176785D01*
X118179530Y-107491428D02*
X118203340Y-107515237D01*
X118203340Y-107515237D02*
X118227149Y-107586666D01*
X118227149Y-107586666D02*
X118227149Y-107634285D01*
X118227149Y-107634285D02*
X118203340Y-107705713D01*
X118203340Y-107705713D02*
X118155720Y-107753332D01*
X118155720Y-107753332D02*
X118108101Y-107777142D01*
X118108101Y-107777142D02*
X118012863Y-107800951D01*
X118012863Y-107800951D02*
X117941435Y-107800951D01*
X117941435Y-107800951D02*
X117846197Y-107777142D01*
X117846197Y-107777142D02*
X117798578Y-107753332D01*
X117798578Y-107753332D02*
X117750959Y-107705713D01*
X117750959Y-107705713D02*
X117727149Y-107634285D01*
X117727149Y-107634285D02*
X117727149Y-107586666D01*
X117727149Y-107586666D02*
X117750959Y-107515237D01*
X117750959Y-107515237D02*
X117774768Y-107491428D01*
X118227149Y-107015237D02*
X118227149Y-107300951D01*
X118227149Y-107158094D02*
X117727149Y-107158094D01*
X117727149Y-107158094D02*
X117798578Y-107205713D01*
X117798578Y-107205713D02*
X117846197Y-107253332D01*
X117846197Y-107253332D02*
X117870006Y-107300951D01*
X117727149Y-106705714D02*
X117727149Y-106658095D01*
X117727149Y-106658095D02*
X117750959Y-106610476D01*
X117750959Y-106610476D02*
X117774768Y-106586666D01*
X117774768Y-106586666D02*
X117822387Y-106562857D01*
X117822387Y-106562857D02*
X117917625Y-106539047D01*
X117917625Y-106539047D02*
X118036673Y-106539047D01*
X118036673Y-106539047D02*
X118131911Y-106562857D01*
X118131911Y-106562857D02*
X118179530Y-106586666D01*
X118179530Y-106586666D02*
X118203340Y-106610476D01*
X118203340Y-106610476D02*
X118227149Y-106658095D01*
X118227149Y-106658095D02*
X118227149Y-106705714D01*
X118227149Y-106705714D02*
X118203340Y-106753333D01*
X118203340Y-106753333D02*
X118179530Y-106777142D01*
X118179530Y-106777142D02*
X118131911Y-106800952D01*
X118131911Y-106800952D02*
X118036673Y-106824761D01*
X118036673Y-106824761D02*
X117917625Y-106824761D01*
X117917625Y-106824761D02*
X117822387Y-106800952D01*
X117822387Y-106800952D02*
X117774768Y-106777142D01*
X117774768Y-106777142D02*
X117750959Y-106753333D01*
X117750959Y-106753333D02*
X117727149Y-106705714D01*
D10*
X85304762Y-105254819D02*
X85876190Y-105254819D01*
X85590476Y-106254819D02*
X85590476Y-105254819D01*
X86209524Y-106254819D02*
X86209524Y-105254819D01*
X86209524Y-105254819D02*
X86590476Y-105254819D01*
X86590476Y-105254819D02*
X86685714Y-105302438D01*
X86685714Y-105302438D02*
X86733333Y-105350057D01*
X86733333Y-105350057D02*
X86780952Y-105445295D01*
X86780952Y-105445295D02*
X86780952Y-105588152D01*
X86780952Y-105588152D02*
X86733333Y-105683390D01*
X86733333Y-105683390D02*
X86685714Y-105731009D01*
X86685714Y-105731009D02*
X86590476Y-105778628D01*
X86590476Y-105778628D02*
X86209524Y-105778628D01*
X87161905Y-106207200D02*
X87304762Y-106254819D01*
X87304762Y-106254819D02*
X87542857Y-106254819D01*
X87542857Y-106254819D02*
X87638095Y-106207200D01*
X87638095Y-106207200D02*
X87685714Y-106159580D01*
X87685714Y-106159580D02*
X87733333Y-106064342D01*
X87733333Y-106064342D02*
X87733333Y-105969104D01*
X87733333Y-105969104D02*
X87685714Y-105873866D01*
X87685714Y-105873866D02*
X87638095Y-105826247D01*
X87638095Y-105826247D02*
X87542857Y-105778628D01*
X87542857Y-105778628D02*
X87352381Y-105731009D01*
X87352381Y-105731009D02*
X87257143Y-105683390D01*
X87257143Y-105683390D02*
X87209524Y-105635771D01*
X87209524Y-105635771D02*
X87161905Y-105540533D01*
X87161905Y-105540533D02*
X87161905Y-105445295D01*
X87161905Y-105445295D02*
X87209524Y-105350057D01*
X87209524Y-105350057D02*
X87257143Y-105302438D01*
X87257143Y-105302438D02*
X87352381Y-105254819D01*
X87352381Y-105254819D02*
X87590476Y-105254819D01*
X87590476Y-105254819D02*
X87733333Y-105302438D01*
X88638095Y-105254819D02*
X88161905Y-105254819D01*
X88161905Y-105254819D02*
X88114286Y-105731009D01*
X88114286Y-105731009D02*
X88161905Y-105683390D01*
X88161905Y-105683390D02*
X88257143Y-105635771D01*
X88257143Y-105635771D02*
X88495238Y-105635771D01*
X88495238Y-105635771D02*
X88590476Y-105683390D01*
X88590476Y-105683390D02*
X88638095Y-105731009D01*
X88638095Y-105731009D02*
X88685714Y-105826247D01*
X88685714Y-105826247D02*
X88685714Y-106064342D01*
X88685714Y-106064342D02*
X88638095Y-106159580D01*
X88638095Y-106159580D02*
X88590476Y-106207200D01*
X88590476Y-106207200D02*
X88495238Y-106254819D01*
X88495238Y-106254819D02*
X88257143Y-106254819D01*
X88257143Y-106254819D02*
X88161905Y-106207200D01*
X88161905Y-106207200D02*
X88114286Y-106159580D01*
X89542857Y-105588152D02*
X89542857Y-106254819D01*
X89304762Y-105207200D02*
X89066667Y-105921485D01*
X89066667Y-105921485D02*
X89685714Y-105921485D01*
X89971429Y-105254819D02*
X90590476Y-105254819D01*
X90590476Y-105254819D02*
X90257143Y-105635771D01*
X90257143Y-105635771D02*
X90400000Y-105635771D01*
X90400000Y-105635771D02*
X90495238Y-105683390D01*
X90495238Y-105683390D02*
X90542857Y-105731009D01*
X90542857Y-105731009D02*
X90590476Y-105826247D01*
X90590476Y-105826247D02*
X90590476Y-106064342D01*
X90590476Y-106064342D02*
X90542857Y-106159580D01*
X90542857Y-106159580D02*
X90495238Y-106207200D01*
X90495238Y-106207200D02*
X90400000Y-106254819D01*
X90400000Y-106254819D02*
X90114286Y-106254819D01*
X90114286Y-106254819D02*
X90019048Y-106207200D01*
X90019048Y-106207200D02*
X89971429Y-106159580D01*
X91209524Y-105254819D02*
X91304762Y-105254819D01*
X91304762Y-105254819D02*
X91400000Y-105302438D01*
X91400000Y-105302438D02*
X91447619Y-105350057D01*
X91447619Y-105350057D02*
X91495238Y-105445295D01*
X91495238Y-105445295D02*
X91542857Y-105635771D01*
X91542857Y-105635771D02*
X91542857Y-105873866D01*
X91542857Y-105873866D02*
X91495238Y-106064342D01*
X91495238Y-106064342D02*
X91447619Y-106159580D01*
X91447619Y-106159580D02*
X91400000Y-106207200D01*
X91400000Y-106207200D02*
X91304762Y-106254819D01*
X91304762Y-106254819D02*
X91209524Y-106254819D01*
X91209524Y-106254819D02*
X91114286Y-106207200D01*
X91114286Y-106207200D02*
X91066667Y-106159580D01*
X91066667Y-106159580D02*
X91019048Y-106064342D01*
X91019048Y-106064342D02*
X90971429Y-105873866D01*
X90971429Y-105873866D02*
X90971429Y-105635771D01*
X90971429Y-105635771D02*
X91019048Y-105445295D01*
X91019048Y-105445295D02*
X91066667Y-105350057D01*
X91066667Y-105350057D02*
X91114286Y-105302438D01*
X91114286Y-105302438D02*
X91209524Y-105254819D01*
X91971429Y-106254819D02*
X91971429Y-105254819D01*
X91971429Y-105254819D02*
X92209524Y-105254819D01*
X92209524Y-105254819D02*
X92352381Y-105302438D01*
X92352381Y-105302438D02*
X92447619Y-105397676D01*
X92447619Y-105397676D02*
X92495238Y-105492914D01*
X92495238Y-105492914D02*
X92542857Y-105683390D01*
X92542857Y-105683390D02*
X92542857Y-105826247D01*
X92542857Y-105826247D02*
X92495238Y-106016723D01*
X92495238Y-106016723D02*
X92447619Y-106111961D01*
X92447619Y-106111961D02*
X92352381Y-106207200D01*
X92352381Y-106207200D02*
X92209524Y-106254819D01*
X92209524Y-106254819D02*
X91971429Y-106254819D01*
X92971429Y-106254819D02*
X92971429Y-105254819D01*
X92971429Y-105254819D02*
X93209524Y-105254819D01*
X93209524Y-105254819D02*
X93352381Y-105302438D01*
X93352381Y-105302438D02*
X93447619Y-105397676D01*
X93447619Y-105397676D02*
X93495238Y-105492914D01*
X93495238Y-105492914D02*
X93542857Y-105683390D01*
X93542857Y-105683390D02*
X93542857Y-105826247D01*
X93542857Y-105826247D02*
X93495238Y-106016723D01*
X93495238Y-106016723D02*
X93447619Y-106111961D01*
X93447619Y-106111961D02*
X93352381Y-106207200D01*
X93352381Y-106207200D02*
X93209524Y-106254819D01*
X93209524Y-106254819D02*
X92971429Y-106254819D01*
X93923810Y-105969104D02*
X94400000Y-105969104D01*
X93828572Y-106254819D02*
X94161905Y-105254819D01*
X94161905Y-105254819D02*
X94495238Y-106254819D01*
D13*
X89214285Y-101809337D02*
X89214285Y-102537908D01*
X89214285Y-102537908D02*
X89257142Y-102623622D01*
X89257142Y-102623622D02*
X89300000Y-102666480D01*
X89300000Y-102666480D02*
X89385714Y-102709337D01*
X89385714Y-102709337D02*
X89557142Y-102709337D01*
X89557142Y-102709337D02*
X89642857Y-102666480D01*
X89642857Y-102666480D02*
X89685714Y-102623622D01*
X89685714Y-102623622D02*
X89728571Y-102537908D01*
X89728571Y-102537908D02*
X89728571Y-101809337D01*
X90114285Y-101895051D02*
X90157142Y-101852194D01*
X90157142Y-101852194D02*
X90242857Y-101809337D01*
X90242857Y-101809337D02*
X90457142Y-101809337D01*
X90457142Y-101809337D02*
X90542857Y-101852194D01*
X90542857Y-101852194D02*
X90585714Y-101895051D01*
X90585714Y-101895051D02*
X90628571Y-101980765D01*
X90628571Y-101980765D02*
X90628571Y-102066480D01*
X90628571Y-102066480D02*
X90585714Y-102195051D01*
X90585714Y-102195051D02*
X90071428Y-102709337D01*
X90071428Y-102709337D02*
X90628571Y-102709337D01*
D10*
X117455952Y-117374819D02*
X116884524Y-117374819D01*
X117170238Y-117374819D02*
X117170238Y-116374819D01*
X117170238Y-116374819D02*
X117075000Y-116517676D01*
X117075000Y-116517676D02*
X116979762Y-116612914D01*
X116979762Y-116612914D02*
X116884524Y-116660533D01*
X117884524Y-117374819D02*
X117884524Y-116374819D01*
X117979762Y-116993866D02*
X118265476Y-117374819D01*
X118265476Y-116708152D02*
X117884524Y-117089104D01*
D11*
X117531667Y-115868200D02*
X117445000Y-115744391D01*
X117383095Y-115868200D02*
X117383095Y-115608200D01*
X117383095Y-115608200D02*
X117482143Y-115608200D01*
X117482143Y-115608200D02*
X117506905Y-115620581D01*
X117506905Y-115620581D02*
X117519286Y-115632962D01*
X117519286Y-115632962D02*
X117531667Y-115657724D01*
X117531667Y-115657724D02*
X117531667Y-115694867D01*
X117531667Y-115694867D02*
X117519286Y-115719629D01*
X117519286Y-115719629D02*
X117506905Y-115732010D01*
X117506905Y-115732010D02*
X117482143Y-115744391D01*
X117482143Y-115744391D02*
X117383095Y-115744391D01*
X117754524Y-115608200D02*
X117705000Y-115608200D01*
X117705000Y-115608200D02*
X117680238Y-115620581D01*
X117680238Y-115620581D02*
X117667857Y-115632962D01*
X117667857Y-115632962D02*
X117643095Y-115670105D01*
X117643095Y-115670105D02*
X117630714Y-115719629D01*
X117630714Y-115719629D02*
X117630714Y-115818677D01*
X117630714Y-115818677D02*
X117643095Y-115843439D01*
X117643095Y-115843439D02*
X117655476Y-115855820D01*
X117655476Y-115855820D02*
X117680238Y-115868200D01*
X117680238Y-115868200D02*
X117729762Y-115868200D01*
X117729762Y-115868200D02*
X117754524Y-115855820D01*
X117754524Y-115855820D02*
X117766905Y-115843439D01*
X117766905Y-115843439D02*
X117779286Y-115818677D01*
X117779286Y-115818677D02*
X117779286Y-115756772D01*
X117779286Y-115756772D02*
X117766905Y-115732010D01*
X117766905Y-115732010D02*
X117754524Y-115719629D01*
X117754524Y-115719629D02*
X117729762Y-115707248D01*
X117729762Y-115707248D02*
X117680238Y-115707248D01*
X117680238Y-115707248D02*
X117655476Y-115719629D01*
X117655476Y-115719629D02*
X117643095Y-115732010D01*
X117643095Y-115732010D02*
X117630714Y-115756772D01*
D10*
X96954819Y-99559523D02*
X97669104Y-99559523D01*
X97669104Y-99559523D02*
X97811961Y-99607142D01*
X97811961Y-99607142D02*
X97907200Y-99702380D01*
X97907200Y-99702380D02*
X97954819Y-99845237D01*
X97954819Y-99845237D02*
X97954819Y-99940475D01*
X97954819Y-98559523D02*
X97954819Y-99130951D01*
X97954819Y-98845237D02*
X96954819Y-98845237D01*
X96954819Y-98845237D02*
X97097676Y-98940475D01*
X97097676Y-98940475D02*
X97192914Y-99035713D01*
X97192914Y-99035713D02*
X97240533Y-99130951D01*
X96954819Y-97654761D02*
X96954819Y-98130951D01*
X96954819Y-98130951D02*
X97431009Y-98178570D01*
X97431009Y-98178570D02*
X97383390Y-98130951D01*
X97383390Y-98130951D02*
X97335771Y-98035713D01*
X97335771Y-98035713D02*
X97335771Y-97797618D01*
X97335771Y-97797618D02*
X97383390Y-97702380D01*
X97383390Y-97702380D02*
X97431009Y-97654761D01*
X97431009Y-97654761D02*
X97526247Y-97607142D01*
X97526247Y-97607142D02*
X97764342Y-97607142D01*
X97764342Y-97607142D02*
X97859580Y-97654761D01*
X97859580Y-97654761D02*
X97907200Y-97702380D01*
X97907200Y-97702380D02*
X97954819Y-97797618D01*
X97954819Y-97797618D02*
X97954819Y-98035713D01*
X97954819Y-98035713D02*
X97907200Y-98130951D01*
X97907200Y-98130951D02*
X97859580Y-98178570D01*
X82419642Y-170604819D02*
X81943452Y-170604819D01*
X81943452Y-170604819D02*
X81943452Y-169604819D01*
X82752976Y-170081009D02*
X83086309Y-170081009D01*
X83229166Y-170604819D02*
X82752976Y-170604819D01*
X82752976Y-170604819D02*
X82752976Y-169604819D01*
X82752976Y-169604819D02*
X83229166Y-169604819D01*
X83657738Y-170604819D02*
X83657738Y-169604819D01*
X83657738Y-169604819D02*
X83895833Y-169604819D01*
X83895833Y-169604819D02*
X84038690Y-169652438D01*
X84038690Y-169652438D02*
X84133928Y-169747676D01*
X84133928Y-169747676D02*
X84181547Y-169842914D01*
X84181547Y-169842914D02*
X84229166Y-170033390D01*
X84229166Y-170033390D02*
X84229166Y-170176247D01*
X84229166Y-170176247D02*
X84181547Y-170366723D01*
X84181547Y-170366723D02*
X84133928Y-170461961D01*
X84133928Y-170461961D02*
X84038690Y-170557200D01*
X84038690Y-170557200D02*
X83895833Y-170604819D01*
X83895833Y-170604819D02*
X83657738Y-170604819D01*
D12*
X82693452Y-172027149D02*
X82693452Y-171527149D01*
X82693452Y-171527149D02*
X82812500Y-171527149D01*
X82812500Y-171527149D02*
X82883928Y-171550959D01*
X82883928Y-171550959D02*
X82931547Y-171598578D01*
X82931547Y-171598578D02*
X82955357Y-171646197D01*
X82955357Y-171646197D02*
X82979166Y-171741435D01*
X82979166Y-171741435D02*
X82979166Y-171812863D01*
X82979166Y-171812863D02*
X82955357Y-171908101D01*
X82955357Y-171908101D02*
X82931547Y-171955720D01*
X82931547Y-171955720D02*
X82883928Y-172003340D01*
X82883928Y-172003340D02*
X82812500Y-172027149D01*
X82812500Y-172027149D02*
X82693452Y-172027149D01*
X83407738Y-171527149D02*
X83312500Y-171527149D01*
X83312500Y-171527149D02*
X83264881Y-171550959D01*
X83264881Y-171550959D02*
X83241071Y-171574768D01*
X83241071Y-171574768D02*
X83193452Y-171646197D01*
X83193452Y-171646197D02*
X83169643Y-171741435D01*
X83169643Y-171741435D02*
X83169643Y-171931911D01*
X83169643Y-171931911D02*
X83193452Y-171979530D01*
X83193452Y-171979530D02*
X83217262Y-172003340D01*
X83217262Y-172003340D02*
X83264881Y-172027149D01*
X83264881Y-172027149D02*
X83360119Y-172027149D01*
X83360119Y-172027149D02*
X83407738Y-172003340D01*
X83407738Y-172003340D02*
X83431547Y-171979530D01*
X83431547Y-171979530D02*
X83455357Y-171931911D01*
X83455357Y-171931911D02*
X83455357Y-171812863D01*
X83455357Y-171812863D02*
X83431547Y-171765244D01*
X83431547Y-171765244D02*
X83407738Y-171741435D01*
X83407738Y-171741435D02*
X83360119Y-171717625D01*
X83360119Y-171717625D02*
X83264881Y-171717625D01*
X83264881Y-171717625D02*
X83217262Y-171741435D01*
X83217262Y-171741435D02*
X83193452Y-171765244D01*
X83193452Y-171765244D02*
X83169643Y-171812863D01*
D10*
X100654819Y-162613333D02*
X101369104Y-162613333D01*
X101369104Y-162613333D02*
X101511961Y-162660952D01*
X101511961Y-162660952D02*
X101607200Y-162756190D01*
X101607200Y-162756190D02*
X101654819Y-162899047D01*
X101654819Y-162899047D02*
X101654819Y-162994285D01*
X100654819Y-162232380D02*
X100654819Y-161565714D01*
X100654819Y-161565714D02*
X101654819Y-161994285D01*
X103134819Y-154047619D02*
X103134819Y-154619047D01*
X103134819Y-154333333D02*
X102134819Y-154333333D01*
X102134819Y-154333333D02*
X102277676Y-154428571D01*
X102277676Y-154428571D02*
X102372914Y-154523809D01*
X102372914Y-154523809D02*
X102420533Y-154619047D01*
X102134819Y-153428571D02*
X102134819Y-153333333D01*
X102134819Y-153333333D02*
X102182438Y-153238095D01*
X102182438Y-153238095D02*
X102230057Y-153190476D01*
X102230057Y-153190476D02*
X102325295Y-153142857D01*
X102325295Y-153142857D02*
X102515771Y-153095238D01*
X102515771Y-153095238D02*
X102753866Y-153095238D01*
X102753866Y-153095238D02*
X102944342Y-153142857D01*
X102944342Y-153142857D02*
X103039580Y-153190476D01*
X103039580Y-153190476D02*
X103087200Y-153238095D01*
X103087200Y-153238095D02*
X103134819Y-153333333D01*
X103134819Y-153333333D02*
X103134819Y-153428571D01*
X103134819Y-153428571D02*
X103087200Y-153523809D01*
X103087200Y-153523809D02*
X103039580Y-153571428D01*
X103039580Y-153571428D02*
X102944342Y-153619047D01*
X102944342Y-153619047D02*
X102753866Y-153666666D01*
X102753866Y-153666666D02*
X102515771Y-153666666D01*
X102515771Y-153666666D02*
X102325295Y-153619047D01*
X102325295Y-153619047D02*
X102230057Y-153571428D01*
X102230057Y-153571428D02*
X102182438Y-153523809D01*
X102182438Y-153523809D02*
X102134819Y-153428571D01*
X102134819Y-152476190D02*
X102134819Y-152380952D01*
X102134819Y-152380952D02*
X102182438Y-152285714D01*
X102182438Y-152285714D02*
X102230057Y-152238095D01*
X102230057Y-152238095D02*
X102325295Y-152190476D01*
X102325295Y-152190476D02*
X102515771Y-152142857D01*
X102515771Y-152142857D02*
X102753866Y-152142857D01*
X102753866Y-152142857D02*
X102944342Y-152190476D01*
X102944342Y-152190476D02*
X103039580Y-152238095D01*
X103039580Y-152238095D02*
X103087200Y-152285714D01*
X103087200Y-152285714D02*
X103134819Y-152380952D01*
X103134819Y-152380952D02*
X103134819Y-152476190D01*
X103134819Y-152476190D02*
X103087200Y-152571428D01*
X103087200Y-152571428D02*
X103039580Y-152619047D01*
X103039580Y-152619047D02*
X102944342Y-152666666D01*
X102944342Y-152666666D02*
X102753866Y-152714285D01*
X102753866Y-152714285D02*
X102515771Y-152714285D01*
X102515771Y-152714285D02*
X102325295Y-152666666D01*
X102325295Y-152666666D02*
X102230057Y-152619047D01*
X102230057Y-152619047D02*
X102182438Y-152571428D01*
X102182438Y-152571428D02*
X102134819Y-152476190D01*
X102468152Y-151714285D02*
X103134819Y-151714285D01*
X102563390Y-151714285D02*
X102515771Y-151666666D01*
X102515771Y-151666666D02*
X102468152Y-151571428D01*
X102468152Y-151571428D02*
X102468152Y-151428571D01*
X102468152Y-151428571D02*
X102515771Y-151333333D01*
X102515771Y-151333333D02*
X102611009Y-151285714D01*
X102611009Y-151285714D02*
X103134819Y-151285714D01*
X102611009Y-150476190D02*
X102611009Y-150809523D01*
X103134819Y-150809523D02*
X102134819Y-150809523D01*
X102134819Y-150809523D02*
X102134819Y-150333333D01*
D12*
X101179530Y-152821428D02*
X101203340Y-152845237D01*
X101203340Y-152845237D02*
X101227149Y-152916666D01*
X101227149Y-152916666D02*
X101227149Y-152964285D01*
X101227149Y-152964285D02*
X101203340Y-153035713D01*
X101203340Y-153035713D02*
X101155720Y-153083332D01*
X101155720Y-153083332D02*
X101108101Y-153107142D01*
X101108101Y-153107142D02*
X101012863Y-153130951D01*
X101012863Y-153130951D02*
X100941435Y-153130951D01*
X100941435Y-153130951D02*
X100846197Y-153107142D01*
X100846197Y-153107142D02*
X100798578Y-153083332D01*
X100798578Y-153083332D02*
X100750959Y-153035713D01*
X100750959Y-153035713D02*
X100727149Y-152964285D01*
X100727149Y-152964285D02*
X100727149Y-152916666D01*
X100727149Y-152916666D02*
X100750959Y-152845237D01*
X100750959Y-152845237D02*
X100774768Y-152821428D01*
X101227149Y-152345237D02*
X101227149Y-152630951D01*
X101227149Y-152488094D02*
X100727149Y-152488094D01*
X100727149Y-152488094D02*
X100798578Y-152535713D01*
X100798578Y-152535713D02*
X100846197Y-152583332D01*
X100846197Y-152583332D02*
X100870006Y-152630951D01*
X101227149Y-152107142D02*
X101227149Y-152011904D01*
X101227149Y-152011904D02*
X101203340Y-151964285D01*
X101203340Y-151964285D02*
X101179530Y-151940476D01*
X101179530Y-151940476D02*
X101108101Y-151892857D01*
X101108101Y-151892857D02*
X101012863Y-151869047D01*
X101012863Y-151869047D02*
X100822387Y-151869047D01*
X100822387Y-151869047D02*
X100774768Y-151892857D01*
X100774768Y-151892857D02*
X100750959Y-151916666D01*
X100750959Y-151916666D02*
X100727149Y-151964285D01*
X100727149Y-151964285D02*
X100727149Y-152059523D01*
X100727149Y-152059523D02*
X100750959Y-152107142D01*
X100750959Y-152107142D02*
X100774768Y-152130952D01*
X100774768Y-152130952D02*
X100822387Y-152154761D01*
X100822387Y-152154761D02*
X100941435Y-152154761D01*
X100941435Y-152154761D02*
X100989054Y-152130952D01*
X100989054Y-152130952D02*
X101012863Y-152107142D01*
X101012863Y-152107142D02*
X101036673Y-152059523D01*
X101036673Y-152059523D02*
X101036673Y-151964285D01*
X101036673Y-151964285D02*
X101012863Y-151916666D01*
X101012863Y-151916666D02*
X100989054Y-151892857D01*
X100989054Y-151892857D02*
X100941435Y-151869047D01*
D10*
X63954819Y-116559523D02*
X64669104Y-116559523D01*
X64669104Y-116559523D02*
X64811961Y-116607142D01*
X64811961Y-116607142D02*
X64907200Y-116702380D01*
X64907200Y-116702380D02*
X64954819Y-116845237D01*
X64954819Y-116845237D02*
X64954819Y-116940475D01*
X64954819Y-115559523D02*
X64954819Y-116130951D01*
X64954819Y-115845237D02*
X63954819Y-115845237D01*
X63954819Y-115845237D02*
X64097676Y-115940475D01*
X64097676Y-115940475D02*
X64192914Y-116035713D01*
X64192914Y-116035713D02*
X64240533Y-116130951D01*
X64288152Y-114702380D02*
X64954819Y-114702380D01*
X63907200Y-114940475D02*
X64621485Y-115178570D01*
X64621485Y-115178570D02*
X64621485Y-114559523D01*
X114657143Y-89454819D02*
X114657143Y-90264342D01*
X114657143Y-90264342D02*
X114704762Y-90359580D01*
X114704762Y-90359580D02*
X114752381Y-90407200D01*
X114752381Y-90407200D02*
X114847619Y-90454819D01*
X114847619Y-90454819D02*
X115038095Y-90454819D01*
X115038095Y-90454819D02*
X115133333Y-90407200D01*
X115133333Y-90407200D02*
X115180952Y-90359580D01*
X115180952Y-90359580D02*
X115228571Y-90264342D01*
X115228571Y-90264342D02*
X115228571Y-89454819D01*
X115657143Y-90407200D02*
X115800000Y-90454819D01*
X115800000Y-90454819D02*
X116038095Y-90454819D01*
X116038095Y-90454819D02*
X116133333Y-90407200D01*
X116133333Y-90407200D02*
X116180952Y-90359580D01*
X116180952Y-90359580D02*
X116228571Y-90264342D01*
X116228571Y-90264342D02*
X116228571Y-90169104D01*
X116228571Y-90169104D02*
X116180952Y-90073866D01*
X116180952Y-90073866D02*
X116133333Y-90026247D01*
X116133333Y-90026247D02*
X116038095Y-89978628D01*
X116038095Y-89978628D02*
X115847619Y-89931009D01*
X115847619Y-89931009D02*
X115752381Y-89883390D01*
X115752381Y-89883390D02*
X115704762Y-89835771D01*
X115704762Y-89835771D02*
X115657143Y-89740533D01*
X115657143Y-89740533D02*
X115657143Y-89645295D01*
X115657143Y-89645295D02*
X115704762Y-89550057D01*
X115704762Y-89550057D02*
X115752381Y-89502438D01*
X115752381Y-89502438D02*
X115847619Y-89454819D01*
X115847619Y-89454819D02*
X116085714Y-89454819D01*
X116085714Y-89454819D02*
X116228571Y-89502438D01*
X116990476Y-89931009D02*
X117133333Y-89978628D01*
X117133333Y-89978628D02*
X117180952Y-90026247D01*
X117180952Y-90026247D02*
X117228571Y-90121485D01*
X117228571Y-90121485D02*
X117228571Y-90264342D01*
X117228571Y-90264342D02*
X117180952Y-90359580D01*
X117180952Y-90359580D02*
X117133333Y-90407200D01*
X117133333Y-90407200D02*
X117038095Y-90454819D01*
X117038095Y-90454819D02*
X116657143Y-90454819D01*
X116657143Y-90454819D02*
X116657143Y-89454819D01*
X116657143Y-89454819D02*
X116990476Y-89454819D01*
X116990476Y-89454819D02*
X117085714Y-89502438D01*
X117085714Y-89502438D02*
X117133333Y-89550057D01*
X117133333Y-89550057D02*
X117180952Y-89645295D01*
X117180952Y-89645295D02*
X117180952Y-89740533D01*
X117180952Y-89740533D02*
X117133333Y-89835771D01*
X117133333Y-89835771D02*
X117085714Y-89883390D01*
X117085714Y-89883390D02*
X116990476Y-89931009D01*
X116990476Y-89931009D02*
X116657143Y-89931009D01*
X117419048Y-90550057D02*
X118180952Y-90550057D01*
X118752381Y-89931009D02*
X118895238Y-89978628D01*
X118895238Y-89978628D02*
X118942857Y-90026247D01*
X118942857Y-90026247D02*
X118990476Y-90121485D01*
X118990476Y-90121485D02*
X118990476Y-90264342D01*
X118990476Y-90264342D02*
X118942857Y-90359580D01*
X118942857Y-90359580D02*
X118895238Y-90407200D01*
X118895238Y-90407200D02*
X118800000Y-90454819D01*
X118800000Y-90454819D02*
X118419048Y-90454819D01*
X118419048Y-90454819D02*
X118419048Y-89454819D01*
X118419048Y-89454819D02*
X118752381Y-89454819D01*
X118752381Y-89454819D02*
X118847619Y-89502438D01*
X118847619Y-89502438D02*
X118895238Y-89550057D01*
X118895238Y-89550057D02*
X118942857Y-89645295D01*
X118942857Y-89645295D02*
X118942857Y-89740533D01*
X118942857Y-89740533D02*
X118895238Y-89835771D01*
X118895238Y-89835771D02*
X118847619Y-89883390D01*
X118847619Y-89883390D02*
X118752381Y-89931009D01*
X118752381Y-89931009D02*
X118419048Y-89931009D01*
X101896666Y-86454819D02*
X101896666Y-87169104D01*
X101896666Y-87169104D02*
X101849047Y-87311961D01*
X101849047Y-87311961D02*
X101753809Y-87407200D01*
X101753809Y-87407200D02*
X101610952Y-87454819D01*
X101610952Y-87454819D02*
X101515714Y-87454819D01*
X102420476Y-87454819D02*
X102610952Y-87454819D01*
X102610952Y-87454819D02*
X102706190Y-87407200D01*
X102706190Y-87407200D02*
X102753809Y-87359580D01*
X102753809Y-87359580D02*
X102849047Y-87216723D01*
X102849047Y-87216723D02*
X102896666Y-87026247D01*
X102896666Y-87026247D02*
X102896666Y-86645295D01*
X102896666Y-86645295D02*
X102849047Y-86550057D01*
X102849047Y-86550057D02*
X102801428Y-86502438D01*
X102801428Y-86502438D02*
X102706190Y-86454819D01*
X102706190Y-86454819D02*
X102515714Y-86454819D01*
X102515714Y-86454819D02*
X102420476Y-86502438D01*
X102420476Y-86502438D02*
X102372857Y-86550057D01*
X102372857Y-86550057D02*
X102325238Y-86645295D01*
X102325238Y-86645295D02*
X102325238Y-86883390D01*
X102325238Y-86883390D02*
X102372857Y-86978628D01*
X102372857Y-86978628D02*
X102420476Y-87026247D01*
X102420476Y-87026247D02*
X102515714Y-87073866D01*
X102515714Y-87073866D02*
X102706190Y-87073866D01*
X102706190Y-87073866D02*
X102801428Y-87026247D01*
X102801428Y-87026247D02*
X102849047Y-86978628D01*
X102849047Y-86978628D02*
X102896666Y-86883390D01*
X73626189Y-77731009D02*
X73769046Y-77778628D01*
X73769046Y-77778628D02*
X73816665Y-77826247D01*
X73816665Y-77826247D02*
X73864284Y-77921485D01*
X73864284Y-77921485D02*
X73864284Y-78064342D01*
X73864284Y-78064342D02*
X73816665Y-78159580D01*
X73816665Y-78159580D02*
X73769046Y-78207200D01*
X73769046Y-78207200D02*
X73673808Y-78254819D01*
X73673808Y-78254819D02*
X73292856Y-78254819D01*
X73292856Y-78254819D02*
X73292856Y-77254819D01*
X73292856Y-77254819D02*
X73626189Y-77254819D01*
X73626189Y-77254819D02*
X73721427Y-77302438D01*
X73721427Y-77302438D02*
X73769046Y-77350057D01*
X73769046Y-77350057D02*
X73816665Y-77445295D01*
X73816665Y-77445295D02*
X73816665Y-77540533D01*
X73816665Y-77540533D02*
X73769046Y-77635771D01*
X73769046Y-77635771D02*
X73721427Y-77683390D01*
X73721427Y-77683390D02*
X73626189Y-77731009D01*
X73626189Y-77731009D02*
X73292856Y-77731009D01*
X74721427Y-78254819D02*
X74721427Y-77731009D01*
X74721427Y-77731009D02*
X74673808Y-77635771D01*
X74673808Y-77635771D02*
X74578570Y-77588152D01*
X74578570Y-77588152D02*
X74388094Y-77588152D01*
X74388094Y-77588152D02*
X74292856Y-77635771D01*
X74721427Y-78207200D02*
X74626189Y-78254819D01*
X74626189Y-78254819D02*
X74388094Y-78254819D01*
X74388094Y-78254819D02*
X74292856Y-78207200D01*
X74292856Y-78207200D02*
X74245237Y-78111961D01*
X74245237Y-78111961D02*
X74245237Y-78016723D01*
X74245237Y-78016723D02*
X74292856Y-77921485D01*
X74292856Y-77921485D02*
X74388094Y-77873866D01*
X74388094Y-77873866D02*
X74626189Y-77873866D01*
X74626189Y-77873866D02*
X74721427Y-77826247D01*
X75197618Y-78254819D02*
X75197618Y-77588152D01*
X75197618Y-77778628D02*
X75245237Y-77683390D01*
X75245237Y-77683390D02*
X75292856Y-77635771D01*
X75292856Y-77635771D02*
X75388094Y-77588152D01*
X75388094Y-77588152D02*
X75483332Y-77588152D01*
X75816666Y-78254819D02*
X75816666Y-77588152D01*
X75816666Y-77778628D02*
X75864285Y-77683390D01*
X75864285Y-77683390D02*
X75911904Y-77635771D01*
X75911904Y-77635771D02*
X76007142Y-77588152D01*
X76007142Y-77588152D02*
X76102380Y-77588152D01*
X76816666Y-78207200D02*
X76721428Y-78254819D01*
X76721428Y-78254819D02*
X76530952Y-78254819D01*
X76530952Y-78254819D02*
X76435714Y-78207200D01*
X76435714Y-78207200D02*
X76388095Y-78111961D01*
X76388095Y-78111961D02*
X76388095Y-77731009D01*
X76388095Y-77731009D02*
X76435714Y-77635771D01*
X76435714Y-77635771D02*
X76530952Y-77588152D01*
X76530952Y-77588152D02*
X76721428Y-77588152D01*
X76721428Y-77588152D02*
X76816666Y-77635771D01*
X76816666Y-77635771D02*
X76864285Y-77731009D01*
X76864285Y-77731009D02*
X76864285Y-77826247D01*
X76864285Y-77826247D02*
X76388095Y-77921485D01*
X77435714Y-78254819D02*
X77340476Y-78207200D01*
X77340476Y-78207200D02*
X77292857Y-78111961D01*
X77292857Y-78111961D02*
X77292857Y-77254819D01*
X77578572Y-78350057D02*
X78340476Y-78350057D01*
X78864286Y-77254819D02*
X78864286Y-77969104D01*
X78864286Y-77969104D02*
X78816667Y-78111961D01*
X78816667Y-78111961D02*
X78721429Y-78207200D01*
X78721429Y-78207200D02*
X78578572Y-78254819D01*
X78578572Y-78254819D02*
X78483334Y-78254819D01*
X79769048Y-78254819D02*
X79769048Y-77731009D01*
X79769048Y-77731009D02*
X79721429Y-77635771D01*
X79721429Y-77635771D02*
X79626191Y-77588152D01*
X79626191Y-77588152D02*
X79435715Y-77588152D01*
X79435715Y-77588152D02*
X79340477Y-77635771D01*
X79769048Y-78207200D02*
X79673810Y-78254819D01*
X79673810Y-78254819D02*
X79435715Y-78254819D01*
X79435715Y-78254819D02*
X79340477Y-78207200D01*
X79340477Y-78207200D02*
X79292858Y-78111961D01*
X79292858Y-78111961D02*
X79292858Y-78016723D01*
X79292858Y-78016723D02*
X79340477Y-77921485D01*
X79340477Y-77921485D02*
X79435715Y-77873866D01*
X79435715Y-77873866D02*
X79673810Y-77873866D01*
X79673810Y-77873866D02*
X79769048Y-77826247D01*
X80673810Y-78207200D02*
X80578572Y-78254819D01*
X80578572Y-78254819D02*
X80388096Y-78254819D01*
X80388096Y-78254819D02*
X80292858Y-78207200D01*
X80292858Y-78207200D02*
X80245239Y-78159580D01*
X80245239Y-78159580D02*
X80197620Y-78064342D01*
X80197620Y-78064342D02*
X80197620Y-77778628D01*
X80197620Y-77778628D02*
X80245239Y-77683390D01*
X80245239Y-77683390D02*
X80292858Y-77635771D01*
X80292858Y-77635771D02*
X80388096Y-77588152D01*
X80388096Y-77588152D02*
X80578572Y-77588152D01*
X80578572Y-77588152D02*
X80673810Y-77635771D01*
X81102382Y-78254819D02*
X81102382Y-77254819D01*
X81197620Y-77873866D02*
X81483334Y-78254819D01*
X81483334Y-77588152D02*
X81102382Y-77969104D01*
X81673811Y-78350057D02*
X82435715Y-78350057D01*
X82626192Y-78207200D02*
X82769049Y-78254819D01*
X82769049Y-78254819D02*
X83007144Y-78254819D01*
X83007144Y-78254819D02*
X83102382Y-78207200D01*
X83102382Y-78207200D02*
X83150001Y-78159580D01*
X83150001Y-78159580D02*
X83197620Y-78064342D01*
X83197620Y-78064342D02*
X83197620Y-77969104D01*
X83197620Y-77969104D02*
X83150001Y-77873866D01*
X83150001Y-77873866D02*
X83102382Y-77826247D01*
X83102382Y-77826247D02*
X83007144Y-77778628D01*
X83007144Y-77778628D02*
X82816668Y-77731009D01*
X82816668Y-77731009D02*
X82721430Y-77683390D01*
X82721430Y-77683390D02*
X82673811Y-77635771D01*
X82673811Y-77635771D02*
X82626192Y-77540533D01*
X82626192Y-77540533D02*
X82626192Y-77445295D01*
X82626192Y-77445295D02*
X82673811Y-77350057D01*
X82673811Y-77350057D02*
X82721430Y-77302438D01*
X82721430Y-77302438D02*
X82816668Y-77254819D01*
X82816668Y-77254819D02*
X83054763Y-77254819D01*
X83054763Y-77254819D02*
X83197620Y-77302438D01*
X83530954Y-77588152D02*
X83721430Y-78254819D01*
X83721430Y-78254819D02*
X83911906Y-77778628D01*
X83911906Y-77778628D02*
X84102382Y-78254819D01*
X84102382Y-78254819D02*
X84292858Y-77588152D01*
X84673811Y-78254819D02*
X84673811Y-77588152D01*
X84673811Y-77254819D02*
X84626192Y-77302438D01*
X84626192Y-77302438D02*
X84673811Y-77350057D01*
X84673811Y-77350057D02*
X84721430Y-77302438D01*
X84721430Y-77302438D02*
X84673811Y-77254819D01*
X84673811Y-77254819D02*
X84673811Y-77350057D01*
X85007144Y-77588152D02*
X85388096Y-77588152D01*
X85150001Y-77254819D02*
X85150001Y-78111961D01*
X85150001Y-78111961D02*
X85197620Y-78207200D01*
X85197620Y-78207200D02*
X85292858Y-78254819D01*
X85292858Y-78254819D02*
X85388096Y-78254819D01*
X86150001Y-78207200D02*
X86054763Y-78254819D01*
X86054763Y-78254819D02*
X85864287Y-78254819D01*
X85864287Y-78254819D02*
X85769049Y-78207200D01*
X85769049Y-78207200D02*
X85721430Y-78159580D01*
X85721430Y-78159580D02*
X85673811Y-78064342D01*
X85673811Y-78064342D02*
X85673811Y-77778628D01*
X85673811Y-77778628D02*
X85721430Y-77683390D01*
X85721430Y-77683390D02*
X85769049Y-77635771D01*
X85769049Y-77635771D02*
X85864287Y-77588152D01*
X85864287Y-77588152D02*
X86054763Y-77588152D01*
X86054763Y-77588152D02*
X86150001Y-77635771D01*
X86578573Y-78254819D02*
X86578573Y-77254819D01*
X87007144Y-78254819D02*
X87007144Y-77731009D01*
X87007144Y-77731009D02*
X86959525Y-77635771D01*
X86959525Y-77635771D02*
X86864287Y-77588152D01*
X86864287Y-77588152D02*
X86721430Y-77588152D01*
X86721430Y-77588152D02*
X86626192Y-77635771D01*
X86626192Y-77635771D02*
X86578573Y-77683390D01*
X97952381Y-178357200D02*
X98095238Y-178404819D01*
X98095238Y-178404819D02*
X98333333Y-178404819D01*
X98333333Y-178404819D02*
X98428571Y-178357200D01*
X98428571Y-178357200D02*
X98476190Y-178309580D01*
X98476190Y-178309580D02*
X98523809Y-178214342D01*
X98523809Y-178214342D02*
X98523809Y-178119104D01*
X98523809Y-178119104D02*
X98476190Y-178023866D01*
X98476190Y-178023866D02*
X98428571Y-177976247D01*
X98428571Y-177976247D02*
X98333333Y-177928628D01*
X98333333Y-177928628D02*
X98142857Y-177881009D01*
X98142857Y-177881009D02*
X98047619Y-177833390D01*
X98047619Y-177833390D02*
X98000000Y-177785771D01*
X98000000Y-177785771D02*
X97952381Y-177690533D01*
X97952381Y-177690533D02*
X97952381Y-177595295D01*
X97952381Y-177595295D02*
X98000000Y-177500057D01*
X98000000Y-177500057D02*
X98047619Y-177452438D01*
X98047619Y-177452438D02*
X98142857Y-177404819D01*
X98142857Y-177404819D02*
X98380952Y-177404819D01*
X98380952Y-177404819D02*
X98523809Y-177452438D01*
X98857143Y-177404819D02*
X99095238Y-178404819D01*
X99095238Y-178404819D02*
X99285714Y-177690533D01*
X99285714Y-177690533D02*
X99476190Y-178404819D01*
X99476190Y-178404819D02*
X99714286Y-177404819D01*
X99857143Y-178500057D02*
X100619047Y-178500057D01*
X100857143Y-178404819D02*
X100857143Y-177404819D01*
X100857143Y-177404819D02*
X101238095Y-177404819D01*
X101238095Y-177404819D02*
X101333333Y-177452438D01*
X101333333Y-177452438D02*
X101380952Y-177500057D01*
X101380952Y-177500057D02*
X101428571Y-177595295D01*
X101428571Y-177595295D02*
X101428571Y-177738152D01*
X101428571Y-177738152D02*
X101380952Y-177833390D01*
X101380952Y-177833390D02*
X101333333Y-177881009D01*
X101333333Y-177881009D02*
X101238095Y-177928628D01*
X101238095Y-177928628D02*
X100857143Y-177928628D01*
X102285714Y-177738152D02*
X102285714Y-178404819D01*
X101857143Y-177738152D02*
X101857143Y-178261961D01*
X101857143Y-178261961D02*
X101904762Y-178357200D01*
X101904762Y-178357200D02*
X102000000Y-178404819D01*
X102000000Y-178404819D02*
X102142857Y-178404819D01*
X102142857Y-178404819D02*
X102238095Y-178357200D01*
X102238095Y-178357200D02*
X102285714Y-178309580D01*
X102714286Y-178357200D02*
X102809524Y-178404819D01*
X102809524Y-178404819D02*
X103000000Y-178404819D01*
X103000000Y-178404819D02*
X103095238Y-178357200D01*
X103095238Y-178357200D02*
X103142857Y-178261961D01*
X103142857Y-178261961D02*
X103142857Y-178214342D01*
X103142857Y-178214342D02*
X103095238Y-178119104D01*
X103095238Y-178119104D02*
X103000000Y-178071485D01*
X103000000Y-178071485D02*
X102857143Y-178071485D01*
X102857143Y-178071485D02*
X102761905Y-178023866D01*
X102761905Y-178023866D02*
X102714286Y-177928628D01*
X102714286Y-177928628D02*
X102714286Y-177881009D01*
X102714286Y-177881009D02*
X102761905Y-177785771D01*
X102761905Y-177785771D02*
X102857143Y-177738152D01*
X102857143Y-177738152D02*
X103000000Y-177738152D01*
X103000000Y-177738152D02*
X103095238Y-177785771D01*
X103571429Y-178404819D02*
X103571429Y-177404819D01*
X104000000Y-178404819D02*
X104000000Y-177881009D01*
X104000000Y-177881009D02*
X103952381Y-177785771D01*
X103952381Y-177785771D02*
X103857143Y-177738152D01*
X103857143Y-177738152D02*
X103714286Y-177738152D01*
X103714286Y-177738152D02*
X103619048Y-177785771D01*
X103619048Y-177785771D02*
X103571429Y-177833390D01*
X99166667Y-173907200D02*
X99309524Y-173954819D01*
X99309524Y-173954819D02*
X99547619Y-173954819D01*
X99547619Y-173954819D02*
X99642857Y-173907200D01*
X99642857Y-173907200D02*
X99690476Y-173859580D01*
X99690476Y-173859580D02*
X99738095Y-173764342D01*
X99738095Y-173764342D02*
X99738095Y-173669104D01*
X99738095Y-173669104D02*
X99690476Y-173573866D01*
X99690476Y-173573866D02*
X99642857Y-173526247D01*
X99642857Y-173526247D02*
X99547619Y-173478628D01*
X99547619Y-173478628D02*
X99357143Y-173431009D01*
X99357143Y-173431009D02*
X99261905Y-173383390D01*
X99261905Y-173383390D02*
X99214286Y-173335771D01*
X99214286Y-173335771D02*
X99166667Y-173240533D01*
X99166667Y-173240533D02*
X99166667Y-173145295D01*
X99166667Y-173145295D02*
X99214286Y-173050057D01*
X99214286Y-173050057D02*
X99261905Y-173002438D01*
X99261905Y-173002438D02*
X99357143Y-172954819D01*
X99357143Y-172954819D02*
X99595238Y-172954819D01*
X99595238Y-172954819D02*
X99738095Y-173002438D01*
X100071429Y-172954819D02*
X100309524Y-173954819D01*
X100309524Y-173954819D02*
X100500000Y-173240533D01*
X100500000Y-173240533D02*
X100690476Y-173954819D01*
X100690476Y-173954819D02*
X100928572Y-172954819D01*
X101261905Y-173050057D02*
X101309524Y-173002438D01*
X101309524Y-173002438D02*
X101404762Y-172954819D01*
X101404762Y-172954819D02*
X101642857Y-172954819D01*
X101642857Y-172954819D02*
X101738095Y-173002438D01*
X101738095Y-173002438D02*
X101785714Y-173050057D01*
X101785714Y-173050057D02*
X101833333Y-173145295D01*
X101833333Y-173145295D02*
X101833333Y-173240533D01*
X101833333Y-173240533D02*
X101785714Y-173383390D01*
X101785714Y-173383390D02*
X101214286Y-173954819D01*
X101214286Y-173954819D02*
X101833333Y-173954819D01*
X98884819Y-92191428D02*
X98884819Y-92762856D01*
X98884819Y-92477142D02*
X97884819Y-92477142D01*
X97884819Y-92477142D02*
X98027676Y-92572380D01*
X98027676Y-92572380D02*
X98122914Y-92667618D01*
X98122914Y-92667618D02*
X98170533Y-92762856D01*
X97884819Y-91572380D02*
X97884819Y-91477142D01*
X97884819Y-91477142D02*
X97932438Y-91381904D01*
X97932438Y-91381904D02*
X97980057Y-91334285D01*
X97980057Y-91334285D02*
X98075295Y-91286666D01*
X98075295Y-91286666D02*
X98265771Y-91239047D01*
X98265771Y-91239047D02*
X98503866Y-91239047D01*
X98503866Y-91239047D02*
X98694342Y-91286666D01*
X98694342Y-91286666D02*
X98789580Y-91334285D01*
X98789580Y-91334285D02*
X98837200Y-91381904D01*
X98837200Y-91381904D02*
X98884819Y-91477142D01*
X98884819Y-91477142D02*
X98884819Y-91572380D01*
X98884819Y-91572380D02*
X98837200Y-91667618D01*
X98837200Y-91667618D02*
X98789580Y-91715237D01*
X98789580Y-91715237D02*
X98694342Y-91762856D01*
X98694342Y-91762856D02*
X98503866Y-91810475D01*
X98503866Y-91810475D02*
X98265771Y-91810475D01*
X98265771Y-91810475D02*
X98075295Y-91762856D01*
X98075295Y-91762856D02*
X97980057Y-91715237D01*
X97980057Y-91715237D02*
X97932438Y-91667618D01*
X97932438Y-91667618D02*
X97884819Y-91572380D01*
X98218152Y-90381904D02*
X98884819Y-90381904D01*
X98218152Y-90810475D02*
X98741961Y-90810475D01*
X98741961Y-90810475D02*
X98837200Y-90762856D01*
X98837200Y-90762856D02*
X98884819Y-90667618D01*
X98884819Y-90667618D02*
X98884819Y-90524761D01*
X98884819Y-90524761D02*
X98837200Y-90429523D01*
X98837200Y-90429523D02*
X98789580Y-90381904D01*
X98361009Y-89572380D02*
X98361009Y-89905713D01*
X98884819Y-89905713D02*
X97884819Y-89905713D01*
X97884819Y-89905713D02*
X97884819Y-89429523D01*
X95089580Y-91286666D02*
X95137200Y-91334285D01*
X95137200Y-91334285D02*
X95184819Y-91477142D01*
X95184819Y-91477142D02*
X95184819Y-91572380D01*
X95184819Y-91572380D02*
X95137200Y-91715237D01*
X95137200Y-91715237D02*
X95041961Y-91810475D01*
X95041961Y-91810475D02*
X94946723Y-91858094D01*
X94946723Y-91858094D02*
X94756247Y-91905713D01*
X94756247Y-91905713D02*
X94613390Y-91905713D01*
X94613390Y-91905713D02*
X94422914Y-91858094D01*
X94422914Y-91858094D02*
X94327676Y-91810475D01*
X94327676Y-91810475D02*
X94232438Y-91715237D01*
X94232438Y-91715237D02*
X94184819Y-91572380D01*
X94184819Y-91572380D02*
X94184819Y-91477142D01*
X94184819Y-91477142D02*
X94232438Y-91334285D01*
X94232438Y-91334285D02*
X94280057Y-91286666D01*
X95184819Y-90334285D02*
X95184819Y-90905713D01*
X95184819Y-90619999D02*
X94184819Y-90619999D01*
X94184819Y-90619999D02*
X94327676Y-90715237D01*
X94327676Y-90715237D02*
X94422914Y-90810475D01*
X94422914Y-90810475D02*
X94470533Y-90905713D01*
X82619642Y-174404819D02*
X82143452Y-174404819D01*
X82143452Y-174404819D02*
X82143452Y-173404819D01*
X82952976Y-173881009D02*
X83286309Y-173881009D01*
X83429166Y-174404819D02*
X82952976Y-174404819D01*
X82952976Y-174404819D02*
X82952976Y-173404819D01*
X82952976Y-173404819D02*
X83429166Y-173404819D01*
X83857738Y-174404819D02*
X83857738Y-173404819D01*
X83857738Y-173404819D02*
X84095833Y-173404819D01*
X84095833Y-173404819D02*
X84238690Y-173452438D01*
X84238690Y-173452438D02*
X84333928Y-173547676D01*
X84333928Y-173547676D02*
X84381547Y-173642914D01*
X84381547Y-173642914D02*
X84429166Y-173833390D01*
X84429166Y-173833390D02*
X84429166Y-173976247D01*
X84429166Y-173976247D02*
X84381547Y-174166723D01*
X84381547Y-174166723D02*
X84333928Y-174261961D01*
X84333928Y-174261961D02*
X84238690Y-174357200D01*
X84238690Y-174357200D02*
X84095833Y-174404819D01*
X84095833Y-174404819D02*
X83857738Y-174404819D01*
D12*
X82655357Y-175827149D02*
X82655357Y-175327149D01*
X82655357Y-175327149D02*
X82774405Y-175327149D01*
X82774405Y-175327149D02*
X82845833Y-175350959D01*
X82845833Y-175350959D02*
X82893452Y-175398578D01*
X82893452Y-175398578D02*
X82917262Y-175446197D01*
X82917262Y-175446197D02*
X82941071Y-175541435D01*
X82941071Y-175541435D02*
X82941071Y-175612863D01*
X82941071Y-175612863D02*
X82917262Y-175708101D01*
X82917262Y-175708101D02*
X82893452Y-175755720D01*
X82893452Y-175755720D02*
X82845833Y-175803340D01*
X82845833Y-175803340D02*
X82774405Y-175827149D01*
X82774405Y-175827149D02*
X82655357Y-175827149D01*
X83417262Y-175827149D02*
X83131548Y-175827149D01*
X83274405Y-175827149D02*
X83274405Y-175327149D01*
X83274405Y-175327149D02*
X83226786Y-175398578D01*
X83226786Y-175398578D02*
X83179167Y-175446197D01*
X83179167Y-175446197D02*
X83131548Y-175470006D01*
X83726785Y-175327149D02*
X83774404Y-175327149D01*
X83774404Y-175327149D02*
X83822023Y-175350959D01*
X83822023Y-175350959D02*
X83845833Y-175374768D01*
X83845833Y-175374768D02*
X83869642Y-175422387D01*
X83869642Y-175422387D02*
X83893452Y-175517625D01*
X83893452Y-175517625D02*
X83893452Y-175636673D01*
X83893452Y-175636673D02*
X83869642Y-175731911D01*
X83869642Y-175731911D02*
X83845833Y-175779530D01*
X83845833Y-175779530D02*
X83822023Y-175803340D01*
X83822023Y-175803340D02*
X83774404Y-175827149D01*
X83774404Y-175827149D02*
X83726785Y-175827149D01*
X83726785Y-175827149D02*
X83679166Y-175803340D01*
X83679166Y-175803340D02*
X83655357Y-175779530D01*
X83655357Y-175779530D02*
X83631547Y-175731911D01*
X83631547Y-175731911D02*
X83607738Y-175636673D01*
X83607738Y-175636673D02*
X83607738Y-175517625D01*
X83607738Y-175517625D02*
X83631547Y-175422387D01*
X83631547Y-175422387D02*
X83655357Y-175374768D01*
X83655357Y-175374768D02*
X83679166Y-175350959D01*
X83679166Y-175350959D02*
X83726785Y-175327149D01*
D10*
X96954819Y-116559523D02*
X97669104Y-116559523D01*
X97669104Y-116559523D02*
X97811961Y-116607142D01*
X97811961Y-116607142D02*
X97907200Y-116702380D01*
X97907200Y-116702380D02*
X97954819Y-116845237D01*
X97954819Y-116845237D02*
X97954819Y-116940475D01*
X97954819Y-115559523D02*
X97954819Y-116130951D01*
X97954819Y-115845237D02*
X96954819Y-115845237D01*
X96954819Y-115845237D02*
X97097676Y-115940475D01*
X97097676Y-115940475D02*
X97192914Y-116035713D01*
X97192914Y-116035713D02*
X97240533Y-116130951D01*
X97050057Y-115178570D02*
X97002438Y-115130951D01*
X97002438Y-115130951D02*
X96954819Y-115035713D01*
X96954819Y-115035713D02*
X96954819Y-114797618D01*
X96954819Y-114797618D02*
X97002438Y-114702380D01*
X97002438Y-114702380D02*
X97050057Y-114654761D01*
X97050057Y-114654761D02*
X97145295Y-114607142D01*
X97145295Y-114607142D02*
X97240533Y-114607142D01*
X97240533Y-114607142D02*
X97383390Y-114654761D01*
X97383390Y-114654761D02*
X97954819Y-115226189D01*
X97954819Y-115226189D02*
X97954819Y-114607142D01*
X63843293Y-99559523D02*
X64557578Y-99559523D01*
X64557578Y-99559523D02*
X64700435Y-99607142D01*
X64700435Y-99607142D02*
X64795674Y-99702380D01*
X64795674Y-99702380D02*
X64843293Y-99845237D01*
X64843293Y-99845237D02*
X64843293Y-99940475D01*
X64843293Y-98559523D02*
X64843293Y-99130951D01*
X64843293Y-98845237D02*
X63843293Y-98845237D01*
X63843293Y-98845237D02*
X63986150Y-98940475D01*
X63986150Y-98940475D02*
X64081388Y-99035713D01*
X64081388Y-99035713D02*
X64129007Y-99130951D01*
X63843293Y-98226189D02*
X63843293Y-97559523D01*
X63843293Y-97559523D02*
X64843293Y-97988094D01*
X70300000Y-138674819D02*
X70300000Y-137674819D01*
X71347618Y-138674819D02*
X71014285Y-138198628D01*
X70776190Y-138674819D02*
X70776190Y-137674819D01*
X70776190Y-137674819D02*
X71157142Y-137674819D01*
X71157142Y-137674819D02*
X71252380Y-137722438D01*
X71252380Y-137722438D02*
X71299999Y-137770057D01*
X71299999Y-137770057D02*
X71347618Y-137865295D01*
X71347618Y-137865295D02*
X71347618Y-138008152D01*
X71347618Y-138008152D02*
X71299999Y-138103390D01*
X71299999Y-138103390D02*
X71252380Y-138151009D01*
X71252380Y-138151009D02*
X71157142Y-138198628D01*
X71157142Y-138198628D02*
X70776190Y-138198628D01*
X70254819Y-143949523D02*
X70969104Y-143949523D01*
X70969104Y-143949523D02*
X71111961Y-143997142D01*
X71111961Y-143997142D02*
X71207200Y-144092380D01*
X71207200Y-144092380D02*
X71254819Y-144235237D01*
X71254819Y-144235237D02*
X71254819Y-144330475D01*
X71254819Y-142949523D02*
X71254819Y-143520951D01*
X71254819Y-143235237D02*
X70254819Y-143235237D01*
X70254819Y-143235237D02*
X70397676Y-143330475D01*
X70397676Y-143330475D02*
X70492914Y-143425713D01*
X70492914Y-143425713D02*
X70540533Y-143520951D01*
X70254819Y-142330475D02*
X70254819Y-142235237D01*
X70254819Y-142235237D02*
X70302438Y-142139999D01*
X70302438Y-142139999D02*
X70350057Y-142092380D01*
X70350057Y-142092380D02*
X70445295Y-142044761D01*
X70445295Y-142044761D02*
X70635771Y-141997142D01*
X70635771Y-141997142D02*
X70873866Y-141997142D01*
X70873866Y-141997142D02*
X71064342Y-142044761D01*
X71064342Y-142044761D02*
X71159580Y-142092380D01*
X71159580Y-142092380D02*
X71207200Y-142139999D01*
X71207200Y-142139999D02*
X71254819Y-142235237D01*
X71254819Y-142235237D02*
X71254819Y-142330475D01*
X71254819Y-142330475D02*
X71207200Y-142425713D01*
X71207200Y-142425713D02*
X71159580Y-142473332D01*
X71159580Y-142473332D02*
X71064342Y-142520951D01*
X71064342Y-142520951D02*
X70873866Y-142568570D01*
X70873866Y-142568570D02*
X70635771Y-142568570D01*
X70635771Y-142568570D02*
X70445295Y-142520951D01*
X70445295Y-142520951D02*
X70350057Y-142473332D01*
X70350057Y-142473332D02*
X70302438Y-142425713D01*
X70302438Y-142425713D02*
X70254819Y-142330475D01*
X114174819Y-175747619D02*
X114174819Y-176319047D01*
X114174819Y-176033333D02*
X113174819Y-176033333D01*
X113174819Y-176033333D02*
X113317676Y-176128571D01*
X113317676Y-176128571D02*
X113412914Y-176223809D01*
X113412914Y-176223809D02*
X113460533Y-176319047D01*
X113174819Y-175128571D02*
X113174819Y-175033333D01*
X113174819Y-175033333D02*
X113222438Y-174938095D01*
X113222438Y-174938095D02*
X113270057Y-174890476D01*
X113270057Y-174890476D02*
X113365295Y-174842857D01*
X113365295Y-174842857D02*
X113555771Y-174795238D01*
X113555771Y-174795238D02*
X113793866Y-174795238D01*
X113793866Y-174795238D02*
X113984342Y-174842857D01*
X113984342Y-174842857D02*
X114079580Y-174890476D01*
X114079580Y-174890476D02*
X114127200Y-174938095D01*
X114127200Y-174938095D02*
X114174819Y-175033333D01*
X114174819Y-175033333D02*
X114174819Y-175128571D01*
X114174819Y-175128571D02*
X114127200Y-175223809D01*
X114127200Y-175223809D02*
X114079580Y-175271428D01*
X114079580Y-175271428D02*
X113984342Y-175319047D01*
X113984342Y-175319047D02*
X113793866Y-175366666D01*
X113793866Y-175366666D02*
X113555771Y-175366666D01*
X113555771Y-175366666D02*
X113365295Y-175319047D01*
X113365295Y-175319047D02*
X113270057Y-175271428D01*
X113270057Y-175271428D02*
X113222438Y-175223809D01*
X113222438Y-175223809D02*
X113174819Y-175128571D01*
X113174819Y-174176190D02*
X113174819Y-174080952D01*
X113174819Y-174080952D02*
X113222438Y-173985714D01*
X113222438Y-173985714D02*
X113270057Y-173938095D01*
X113270057Y-173938095D02*
X113365295Y-173890476D01*
X113365295Y-173890476D02*
X113555771Y-173842857D01*
X113555771Y-173842857D02*
X113793866Y-173842857D01*
X113793866Y-173842857D02*
X113984342Y-173890476D01*
X113984342Y-173890476D02*
X114079580Y-173938095D01*
X114079580Y-173938095D02*
X114127200Y-173985714D01*
X114127200Y-173985714D02*
X114174819Y-174080952D01*
X114174819Y-174080952D02*
X114174819Y-174176190D01*
X114174819Y-174176190D02*
X114127200Y-174271428D01*
X114127200Y-174271428D02*
X114079580Y-174319047D01*
X114079580Y-174319047D02*
X113984342Y-174366666D01*
X113984342Y-174366666D02*
X113793866Y-174414285D01*
X113793866Y-174414285D02*
X113555771Y-174414285D01*
X113555771Y-174414285D02*
X113365295Y-174366666D01*
X113365295Y-174366666D02*
X113270057Y-174319047D01*
X113270057Y-174319047D02*
X113222438Y-174271428D01*
X113222438Y-174271428D02*
X113174819Y-174176190D01*
X113508152Y-173414285D02*
X114174819Y-173414285D01*
X113603390Y-173414285D02*
X113555771Y-173366666D01*
X113555771Y-173366666D02*
X113508152Y-173271428D01*
X113508152Y-173271428D02*
X113508152Y-173128571D01*
X113508152Y-173128571D02*
X113555771Y-173033333D01*
X113555771Y-173033333D02*
X113651009Y-172985714D01*
X113651009Y-172985714D02*
X114174819Y-172985714D01*
X113651009Y-172176190D02*
X113651009Y-172509523D01*
X114174819Y-172509523D02*
X113174819Y-172509523D01*
X113174819Y-172509523D02*
X113174819Y-172033333D01*
D12*
X115579530Y-174283333D02*
X115603340Y-174307142D01*
X115603340Y-174307142D02*
X115627149Y-174378571D01*
X115627149Y-174378571D02*
X115627149Y-174426190D01*
X115627149Y-174426190D02*
X115603340Y-174497618D01*
X115603340Y-174497618D02*
X115555720Y-174545237D01*
X115555720Y-174545237D02*
X115508101Y-174569047D01*
X115508101Y-174569047D02*
X115412863Y-174592856D01*
X115412863Y-174592856D02*
X115341435Y-174592856D01*
X115341435Y-174592856D02*
X115246197Y-174569047D01*
X115246197Y-174569047D02*
X115198578Y-174545237D01*
X115198578Y-174545237D02*
X115150959Y-174497618D01*
X115150959Y-174497618D02*
X115127149Y-174426190D01*
X115127149Y-174426190D02*
X115127149Y-174378571D01*
X115127149Y-174378571D02*
X115150959Y-174307142D01*
X115150959Y-174307142D02*
X115174768Y-174283333D01*
X115127149Y-174116666D02*
X115127149Y-173783333D01*
X115127149Y-173783333D02*
X115627149Y-173997618D01*
D10*
X85780952Y-173424819D02*
X85209524Y-173424819D01*
X85495238Y-173424819D02*
X85495238Y-172424819D01*
X85495238Y-172424819D02*
X85400000Y-172567676D01*
X85400000Y-172567676D02*
X85304762Y-172662914D01*
X85304762Y-172662914D02*
X85209524Y-172710533D01*
X86209524Y-173424819D02*
X86209524Y-172424819D01*
X86304762Y-173043866D02*
X86590476Y-173424819D01*
X86590476Y-172758152D02*
X86209524Y-173139104D01*
X87590476Y-173424819D02*
X87257143Y-172948628D01*
X87019048Y-173424819D02*
X87019048Y-172424819D01*
X87019048Y-172424819D02*
X87400000Y-172424819D01*
X87400000Y-172424819D02*
X87495238Y-172472438D01*
X87495238Y-172472438D02*
X87542857Y-172520057D01*
X87542857Y-172520057D02*
X87590476Y-172615295D01*
X87590476Y-172615295D02*
X87590476Y-172758152D01*
X87590476Y-172758152D02*
X87542857Y-172853390D01*
X87542857Y-172853390D02*
X87495238Y-172901009D01*
X87495238Y-172901009D02*
X87400000Y-172948628D01*
X87400000Y-172948628D02*
X87019048Y-172948628D01*
D11*
X86232857Y-171918200D02*
X86146190Y-171794391D01*
X86084285Y-171918200D02*
X86084285Y-171658200D01*
X86084285Y-171658200D02*
X86183333Y-171658200D01*
X86183333Y-171658200D02*
X86208095Y-171670581D01*
X86208095Y-171670581D02*
X86220476Y-171682962D01*
X86220476Y-171682962D02*
X86232857Y-171707724D01*
X86232857Y-171707724D02*
X86232857Y-171744867D01*
X86232857Y-171744867D02*
X86220476Y-171769629D01*
X86220476Y-171769629D02*
X86208095Y-171782010D01*
X86208095Y-171782010D02*
X86183333Y-171794391D01*
X86183333Y-171794391D02*
X86084285Y-171794391D01*
X86480476Y-171918200D02*
X86331904Y-171918200D01*
X86406190Y-171918200D02*
X86406190Y-171658200D01*
X86406190Y-171658200D02*
X86381428Y-171695343D01*
X86381428Y-171695343D02*
X86356666Y-171720105D01*
X86356666Y-171720105D02*
X86331904Y-171732486D01*
X86579523Y-171682962D02*
X86591904Y-171670581D01*
X86591904Y-171670581D02*
X86616666Y-171658200D01*
X86616666Y-171658200D02*
X86678571Y-171658200D01*
X86678571Y-171658200D02*
X86703333Y-171670581D01*
X86703333Y-171670581D02*
X86715714Y-171682962D01*
X86715714Y-171682962D02*
X86728095Y-171707724D01*
X86728095Y-171707724D02*
X86728095Y-171732486D01*
X86728095Y-171732486D02*
X86715714Y-171769629D01*
X86715714Y-171769629D02*
X86567142Y-171918200D01*
X86567142Y-171918200D02*
X86728095Y-171918200D01*
D10*
X89404761Y-99884819D02*
X88833333Y-99884819D01*
X89119047Y-99884819D02*
X89119047Y-98884819D01*
X89119047Y-98884819D02*
X89023809Y-99027676D01*
X89023809Y-99027676D02*
X88928571Y-99122914D01*
X88928571Y-99122914D02*
X88833333Y-99170533D01*
X90261904Y-99218152D02*
X90261904Y-99884819D01*
X89833333Y-99218152D02*
X89833333Y-99741961D01*
X89833333Y-99741961D02*
X89880952Y-99837200D01*
X89880952Y-99837200D02*
X89976190Y-99884819D01*
X89976190Y-99884819D02*
X90119047Y-99884819D01*
X90119047Y-99884819D02*
X90214285Y-99837200D01*
X90214285Y-99837200D02*
X90261904Y-99789580D01*
X91071428Y-99361009D02*
X90738095Y-99361009D01*
X90738095Y-99884819D02*
X90738095Y-98884819D01*
X90738095Y-98884819D02*
X91214285Y-98884819D01*
D12*
X89916666Y-97929530D02*
X89892857Y-97953340D01*
X89892857Y-97953340D02*
X89821428Y-97977149D01*
X89821428Y-97977149D02*
X89773809Y-97977149D01*
X89773809Y-97977149D02*
X89702381Y-97953340D01*
X89702381Y-97953340D02*
X89654762Y-97905720D01*
X89654762Y-97905720D02*
X89630952Y-97858101D01*
X89630952Y-97858101D02*
X89607143Y-97762863D01*
X89607143Y-97762863D02*
X89607143Y-97691435D01*
X89607143Y-97691435D02*
X89630952Y-97596197D01*
X89630952Y-97596197D02*
X89654762Y-97548578D01*
X89654762Y-97548578D02*
X89702381Y-97500959D01*
X89702381Y-97500959D02*
X89773809Y-97477149D01*
X89773809Y-97477149D02*
X89821428Y-97477149D01*
X89821428Y-97477149D02*
X89892857Y-97500959D01*
X89892857Y-97500959D02*
X89916666Y-97524768D01*
X90369047Y-97477149D02*
X90130952Y-97477149D01*
X90130952Y-97477149D02*
X90107143Y-97715244D01*
X90107143Y-97715244D02*
X90130952Y-97691435D01*
X90130952Y-97691435D02*
X90178571Y-97667625D01*
X90178571Y-97667625D02*
X90297619Y-97667625D01*
X90297619Y-97667625D02*
X90345238Y-97691435D01*
X90345238Y-97691435D02*
X90369047Y-97715244D01*
X90369047Y-97715244D02*
X90392857Y-97762863D01*
X90392857Y-97762863D02*
X90392857Y-97881911D01*
X90392857Y-97881911D02*
X90369047Y-97929530D01*
X90369047Y-97929530D02*
X90345238Y-97953340D01*
X90345238Y-97953340D02*
X90297619Y-97977149D01*
X90297619Y-97977149D02*
X90178571Y-97977149D01*
X90178571Y-97977149D02*
X90130952Y-97953340D01*
X90130952Y-97953340D02*
X90107143Y-97929530D01*
D10*
X101468452Y-131624819D02*
X100897024Y-131624819D01*
X101182738Y-131624819D02*
X101182738Y-130624819D01*
X101182738Y-130624819D02*
X101087500Y-130767676D01*
X101087500Y-130767676D02*
X100992262Y-130862914D01*
X100992262Y-130862914D02*
X100897024Y-130910533D01*
X101897024Y-131624819D02*
X101897024Y-130624819D01*
X101992262Y-131243866D02*
X102277976Y-131624819D01*
X102277976Y-130958152D02*
X101897024Y-131339104D01*
X103277976Y-131624819D02*
X102944643Y-131148628D01*
X102706548Y-131624819D02*
X102706548Y-130624819D01*
X102706548Y-130624819D02*
X103087500Y-130624819D01*
X103087500Y-130624819D02*
X103182738Y-130672438D01*
X103182738Y-130672438D02*
X103230357Y-130720057D01*
X103230357Y-130720057D02*
X103277976Y-130815295D01*
X103277976Y-130815295D02*
X103277976Y-130958152D01*
X103277976Y-130958152D02*
X103230357Y-131053390D01*
X103230357Y-131053390D02*
X103182738Y-131101009D01*
X103182738Y-131101009D02*
X103087500Y-131148628D01*
X103087500Y-131148628D02*
X102706548Y-131148628D01*
D11*
X101920357Y-130118200D02*
X101833690Y-129994391D01*
X101771785Y-130118200D02*
X101771785Y-129858200D01*
X101771785Y-129858200D02*
X101870833Y-129858200D01*
X101870833Y-129858200D02*
X101895595Y-129870581D01*
X101895595Y-129870581D02*
X101907976Y-129882962D01*
X101907976Y-129882962D02*
X101920357Y-129907724D01*
X101920357Y-129907724D02*
X101920357Y-129944867D01*
X101920357Y-129944867D02*
X101907976Y-129969629D01*
X101907976Y-129969629D02*
X101895595Y-129982010D01*
X101895595Y-129982010D02*
X101870833Y-129994391D01*
X101870833Y-129994391D02*
X101771785Y-129994391D01*
X102167976Y-130118200D02*
X102019404Y-130118200D01*
X102093690Y-130118200D02*
X102093690Y-129858200D01*
X102093690Y-129858200D02*
X102068928Y-129895343D01*
X102068928Y-129895343D02*
X102044166Y-129920105D01*
X102044166Y-129920105D02*
X102019404Y-129932486D01*
X102328928Y-129858200D02*
X102353690Y-129858200D01*
X102353690Y-129858200D02*
X102378452Y-129870581D01*
X102378452Y-129870581D02*
X102390833Y-129882962D01*
X102390833Y-129882962D02*
X102403214Y-129907724D01*
X102403214Y-129907724D02*
X102415595Y-129957248D01*
X102415595Y-129957248D02*
X102415595Y-130019153D01*
X102415595Y-130019153D02*
X102403214Y-130068677D01*
X102403214Y-130068677D02*
X102390833Y-130093439D01*
X102390833Y-130093439D02*
X102378452Y-130105820D01*
X102378452Y-130105820D02*
X102353690Y-130118200D01*
X102353690Y-130118200D02*
X102328928Y-130118200D01*
X102328928Y-130118200D02*
X102304166Y-130105820D01*
X102304166Y-130105820D02*
X102291785Y-130093439D01*
X102291785Y-130093439D02*
X102279404Y-130068677D01*
X102279404Y-130068677D02*
X102267023Y-130019153D01*
X102267023Y-130019153D02*
X102267023Y-129957248D01*
X102267023Y-129957248D02*
X102279404Y-129907724D01*
X102279404Y-129907724D02*
X102291785Y-129882962D01*
X102291785Y-129882962D02*
X102304166Y-129870581D01*
X102304166Y-129870581D02*
X102328928Y-129858200D01*
D10*
X125807200Y-167514286D02*
X125854819Y-167371429D01*
X125854819Y-167371429D02*
X125854819Y-167133334D01*
X125854819Y-167133334D02*
X125807200Y-167038096D01*
X125807200Y-167038096D02*
X125759580Y-166990477D01*
X125759580Y-166990477D02*
X125664342Y-166942858D01*
X125664342Y-166942858D02*
X125569104Y-166942858D01*
X125569104Y-166942858D02*
X125473866Y-166990477D01*
X125473866Y-166990477D02*
X125426247Y-167038096D01*
X125426247Y-167038096D02*
X125378628Y-167133334D01*
X125378628Y-167133334D02*
X125331009Y-167323810D01*
X125331009Y-167323810D02*
X125283390Y-167419048D01*
X125283390Y-167419048D02*
X125235771Y-167466667D01*
X125235771Y-167466667D02*
X125140533Y-167514286D01*
X125140533Y-167514286D02*
X125045295Y-167514286D01*
X125045295Y-167514286D02*
X124950057Y-167466667D01*
X124950057Y-167466667D02*
X124902438Y-167419048D01*
X124902438Y-167419048D02*
X124854819Y-167323810D01*
X124854819Y-167323810D02*
X124854819Y-167085715D01*
X124854819Y-167085715D02*
X124902438Y-166942858D01*
X125188152Y-166657143D02*
X125188152Y-166276191D01*
X124854819Y-166514286D02*
X125711961Y-166514286D01*
X125711961Y-166514286D02*
X125807200Y-166466667D01*
X125807200Y-166466667D02*
X125854819Y-166371429D01*
X125854819Y-166371429D02*
X125854819Y-166276191D01*
X125807200Y-165561905D02*
X125854819Y-165657143D01*
X125854819Y-165657143D02*
X125854819Y-165847619D01*
X125854819Y-165847619D02*
X125807200Y-165942857D01*
X125807200Y-165942857D02*
X125711961Y-165990476D01*
X125711961Y-165990476D02*
X125331009Y-165990476D01*
X125331009Y-165990476D02*
X125235771Y-165942857D01*
X125235771Y-165942857D02*
X125188152Y-165847619D01*
X125188152Y-165847619D02*
X125188152Y-165657143D01*
X125188152Y-165657143D02*
X125235771Y-165561905D01*
X125235771Y-165561905D02*
X125331009Y-165514286D01*
X125331009Y-165514286D02*
X125426247Y-165514286D01*
X125426247Y-165514286D02*
X125521485Y-165990476D01*
X125188152Y-165085714D02*
X126188152Y-165085714D01*
X125235771Y-165085714D02*
X125188152Y-164990476D01*
X125188152Y-164990476D02*
X125188152Y-164800000D01*
X125188152Y-164800000D02*
X125235771Y-164704762D01*
X125235771Y-164704762D02*
X125283390Y-164657143D01*
X125283390Y-164657143D02*
X125378628Y-164609524D01*
X125378628Y-164609524D02*
X125664342Y-164609524D01*
X125664342Y-164609524D02*
X125759580Y-164657143D01*
X125759580Y-164657143D02*
X125807200Y-164704762D01*
X125807200Y-164704762D02*
X125854819Y-164800000D01*
X125854819Y-164800000D02*
X125854819Y-164990476D01*
X125854819Y-164990476D02*
X125807200Y-165085714D01*
X125188152Y-164180952D02*
X126188152Y-164180952D01*
X125235771Y-164180952D02*
X125188152Y-164085714D01*
X125188152Y-164085714D02*
X125188152Y-163895238D01*
X125188152Y-163895238D02*
X125235771Y-163800000D01*
X125235771Y-163800000D02*
X125283390Y-163752381D01*
X125283390Y-163752381D02*
X125378628Y-163704762D01*
X125378628Y-163704762D02*
X125664342Y-163704762D01*
X125664342Y-163704762D02*
X125759580Y-163752381D01*
X125759580Y-163752381D02*
X125807200Y-163800000D01*
X125807200Y-163800000D02*
X125854819Y-163895238D01*
X125854819Y-163895238D02*
X125854819Y-164085714D01*
X125854819Y-164085714D02*
X125807200Y-164180952D01*
X125807200Y-162895238D02*
X125854819Y-162990476D01*
X125854819Y-162990476D02*
X125854819Y-163180952D01*
X125854819Y-163180952D02*
X125807200Y-163276190D01*
X125807200Y-163276190D02*
X125711961Y-163323809D01*
X125711961Y-163323809D02*
X125331009Y-163323809D01*
X125331009Y-163323809D02*
X125235771Y-163276190D01*
X125235771Y-163276190D02*
X125188152Y-163180952D01*
X125188152Y-163180952D02*
X125188152Y-162990476D01*
X125188152Y-162990476D02*
X125235771Y-162895238D01*
X125235771Y-162895238D02*
X125331009Y-162847619D01*
X125331009Y-162847619D02*
X125426247Y-162847619D01*
X125426247Y-162847619D02*
X125521485Y-163323809D01*
X125854819Y-162419047D02*
X125188152Y-162419047D01*
X125378628Y-162419047D02*
X125283390Y-162371428D01*
X125283390Y-162371428D02*
X125235771Y-162323809D01*
X125235771Y-162323809D02*
X125188152Y-162228571D01*
X125188152Y-162228571D02*
X125188152Y-162133333D01*
X125854819Y-161799999D02*
X124854819Y-161799999D01*
X124854819Y-161799999D02*
X125569104Y-161466666D01*
X125569104Y-161466666D02*
X124854819Y-161133333D01*
X124854819Y-161133333D02*
X125854819Y-161133333D01*
X125854819Y-160514285D02*
X125807200Y-160609523D01*
X125807200Y-160609523D02*
X125759580Y-160657142D01*
X125759580Y-160657142D02*
X125664342Y-160704761D01*
X125664342Y-160704761D02*
X125378628Y-160704761D01*
X125378628Y-160704761D02*
X125283390Y-160657142D01*
X125283390Y-160657142D02*
X125235771Y-160609523D01*
X125235771Y-160609523D02*
X125188152Y-160514285D01*
X125188152Y-160514285D02*
X125188152Y-160371428D01*
X125188152Y-160371428D02*
X125235771Y-160276190D01*
X125235771Y-160276190D02*
X125283390Y-160228571D01*
X125283390Y-160228571D02*
X125378628Y-160180952D01*
X125378628Y-160180952D02*
X125664342Y-160180952D01*
X125664342Y-160180952D02*
X125759580Y-160228571D01*
X125759580Y-160228571D02*
X125807200Y-160276190D01*
X125807200Y-160276190D02*
X125854819Y-160371428D01*
X125854819Y-160371428D02*
X125854819Y-160514285D01*
X125188152Y-159895237D02*
X125188152Y-159514285D01*
X124854819Y-159752380D02*
X125711961Y-159752380D01*
X125711961Y-159752380D02*
X125807200Y-159704761D01*
X125807200Y-159704761D02*
X125854819Y-159609523D01*
X125854819Y-159609523D02*
X125854819Y-159514285D01*
X125854819Y-159038094D02*
X125807200Y-159133332D01*
X125807200Y-159133332D02*
X125759580Y-159180951D01*
X125759580Y-159180951D02*
X125664342Y-159228570D01*
X125664342Y-159228570D02*
X125378628Y-159228570D01*
X125378628Y-159228570D02*
X125283390Y-159180951D01*
X125283390Y-159180951D02*
X125235771Y-159133332D01*
X125235771Y-159133332D02*
X125188152Y-159038094D01*
X125188152Y-159038094D02*
X125188152Y-158895237D01*
X125188152Y-158895237D02*
X125235771Y-158799999D01*
X125235771Y-158799999D02*
X125283390Y-158752380D01*
X125283390Y-158752380D02*
X125378628Y-158704761D01*
X125378628Y-158704761D02*
X125664342Y-158704761D01*
X125664342Y-158704761D02*
X125759580Y-158752380D01*
X125759580Y-158752380D02*
X125807200Y-158799999D01*
X125807200Y-158799999D02*
X125854819Y-158895237D01*
X125854819Y-158895237D02*
X125854819Y-159038094D01*
X125854819Y-158276189D02*
X125188152Y-158276189D01*
X125378628Y-158276189D02*
X125283390Y-158228570D01*
X125283390Y-158228570D02*
X125235771Y-158180951D01*
X125235771Y-158180951D02*
X125188152Y-158085713D01*
X125188152Y-158085713D02*
X125188152Y-157990475D01*
X126754819Y-163609523D02*
X127469104Y-163609523D01*
X127469104Y-163609523D02*
X127611961Y-163657142D01*
X127611961Y-163657142D02*
X127707200Y-163752380D01*
X127707200Y-163752380D02*
X127754819Y-163895237D01*
X127754819Y-163895237D02*
X127754819Y-163990475D01*
X127754819Y-162609523D02*
X127754819Y-163180951D01*
X127754819Y-162895237D02*
X126754819Y-162895237D01*
X126754819Y-162895237D02*
X126897676Y-162990475D01*
X126897676Y-162990475D02*
X126992914Y-163085713D01*
X126992914Y-163085713D02*
X127040533Y-163180951D01*
X127754819Y-161657142D02*
X127754819Y-162228570D01*
X127754819Y-161942856D02*
X126754819Y-161942856D01*
X126754819Y-161942856D02*
X126897676Y-162038094D01*
X126897676Y-162038094D02*
X126992914Y-162133332D01*
X126992914Y-162133332D02*
X127040533Y-162228570D01*
X112771428Y-132331009D02*
X112914285Y-132378628D01*
X112914285Y-132378628D02*
X112961904Y-132426247D01*
X112961904Y-132426247D02*
X113009523Y-132521485D01*
X113009523Y-132521485D02*
X113009523Y-132664342D01*
X113009523Y-132664342D02*
X112961904Y-132759580D01*
X112961904Y-132759580D02*
X112914285Y-132807200D01*
X112914285Y-132807200D02*
X112819047Y-132854819D01*
X112819047Y-132854819D02*
X112438095Y-132854819D01*
X112438095Y-132854819D02*
X112438095Y-131854819D01*
X112438095Y-131854819D02*
X112771428Y-131854819D01*
X112771428Y-131854819D02*
X112866666Y-131902438D01*
X112866666Y-131902438D02*
X112914285Y-131950057D01*
X112914285Y-131950057D02*
X112961904Y-132045295D01*
X112961904Y-132045295D02*
X112961904Y-132140533D01*
X112961904Y-132140533D02*
X112914285Y-132235771D01*
X112914285Y-132235771D02*
X112866666Y-132283390D01*
X112866666Y-132283390D02*
X112771428Y-132331009D01*
X112771428Y-132331009D02*
X112438095Y-132331009D01*
X113866666Y-132188152D02*
X113866666Y-132854819D01*
X113438095Y-132188152D02*
X113438095Y-132711961D01*
X113438095Y-132711961D02*
X113485714Y-132807200D01*
X113485714Y-132807200D02*
X113580952Y-132854819D01*
X113580952Y-132854819D02*
X113723809Y-132854819D01*
X113723809Y-132854819D02*
X113819047Y-132807200D01*
X113819047Y-132807200D02*
X113866666Y-132759580D01*
X114247619Y-132188152D02*
X114771428Y-132188152D01*
X114771428Y-132188152D02*
X114247619Y-132854819D01*
X114247619Y-132854819D02*
X114771428Y-132854819D01*
X115057143Y-132188152D02*
X115580952Y-132188152D01*
X115580952Y-132188152D02*
X115057143Y-132854819D01*
X115057143Y-132854819D02*
X115580952Y-132854819D01*
X116342857Y-132807200D02*
X116247619Y-132854819D01*
X116247619Y-132854819D02*
X116057143Y-132854819D01*
X116057143Y-132854819D02*
X115961905Y-132807200D01*
X115961905Y-132807200D02*
X115914286Y-132711961D01*
X115914286Y-132711961D02*
X115914286Y-132331009D01*
X115914286Y-132331009D02*
X115961905Y-132235771D01*
X115961905Y-132235771D02*
X116057143Y-132188152D01*
X116057143Y-132188152D02*
X116247619Y-132188152D01*
X116247619Y-132188152D02*
X116342857Y-132235771D01*
X116342857Y-132235771D02*
X116390476Y-132331009D01*
X116390476Y-132331009D02*
X116390476Y-132426247D01*
X116390476Y-132426247D02*
X115914286Y-132521485D01*
X116819048Y-132854819D02*
X116819048Y-132188152D01*
X116819048Y-132378628D02*
X116866667Y-132283390D01*
X116866667Y-132283390D02*
X116914286Y-132235771D01*
X116914286Y-132235771D02*
X117009524Y-132188152D01*
X117009524Y-132188152D02*
X117104762Y-132188152D01*
X113819047Y-120931009D02*
X113961904Y-120978628D01*
X113961904Y-120978628D02*
X114009523Y-121026247D01*
X114009523Y-121026247D02*
X114057142Y-121121485D01*
X114057142Y-121121485D02*
X114057142Y-121264342D01*
X114057142Y-121264342D02*
X114009523Y-121359580D01*
X114009523Y-121359580D02*
X113961904Y-121407200D01*
X113961904Y-121407200D02*
X113866666Y-121454819D01*
X113866666Y-121454819D02*
X113485714Y-121454819D01*
X113485714Y-121454819D02*
X113485714Y-120454819D01*
X113485714Y-120454819D02*
X113819047Y-120454819D01*
X113819047Y-120454819D02*
X113914285Y-120502438D01*
X113914285Y-120502438D02*
X113961904Y-120550057D01*
X113961904Y-120550057D02*
X114009523Y-120645295D01*
X114009523Y-120645295D02*
X114009523Y-120740533D01*
X114009523Y-120740533D02*
X113961904Y-120835771D01*
X113961904Y-120835771D02*
X113914285Y-120883390D01*
X113914285Y-120883390D02*
X113819047Y-120931009D01*
X113819047Y-120931009D02*
X113485714Y-120931009D01*
X114390476Y-120454819D02*
X115057142Y-120454819D01*
X115057142Y-120454819D02*
X114390476Y-121454819D01*
X114390476Y-121454819D02*
X115057142Y-121454819D01*
X115961904Y-121454819D02*
X115390476Y-121454819D01*
X115676190Y-121454819D02*
X115676190Y-120454819D01*
X115676190Y-120454819D02*
X115580952Y-120597676D01*
X115580952Y-120597676D02*
X115485714Y-120692914D01*
X115485714Y-120692914D02*
X115390476Y-120740533D01*
X110509048Y-122533866D02*
X111270953Y-122533866D01*
X110890000Y-122914819D02*
X110890000Y-122152914D01*
X85783549Y-177111275D02*
X85212121Y-177111275D01*
X85497835Y-177111275D02*
X85497835Y-176111275D01*
X85497835Y-176111275D02*
X85402597Y-176254132D01*
X85402597Y-176254132D02*
X85307359Y-176349370D01*
X85307359Y-176349370D02*
X85212121Y-176396989D01*
X86212121Y-177111275D02*
X86212121Y-176111275D01*
X86307359Y-176730322D02*
X86593073Y-177111275D01*
X86593073Y-176444608D02*
X86212121Y-176825560D01*
X87593073Y-177111275D02*
X87259740Y-176635084D01*
X87021645Y-177111275D02*
X87021645Y-176111275D01*
X87021645Y-176111275D02*
X87402597Y-176111275D01*
X87402597Y-176111275D02*
X87497835Y-176158894D01*
X87497835Y-176158894D02*
X87545454Y-176206513D01*
X87545454Y-176206513D02*
X87593073Y-176301751D01*
X87593073Y-176301751D02*
X87593073Y-176444608D01*
X87593073Y-176444608D02*
X87545454Y-176539846D01*
X87545454Y-176539846D02*
X87497835Y-176587465D01*
X87497835Y-176587465D02*
X87402597Y-176635084D01*
X87402597Y-176635084D02*
X87021645Y-176635084D01*
D11*
X86235454Y-175604656D02*
X86148787Y-175480847D01*
X86086882Y-175604656D02*
X86086882Y-175344656D01*
X86086882Y-175344656D02*
X86185930Y-175344656D01*
X86185930Y-175344656D02*
X86210692Y-175357037D01*
X86210692Y-175357037D02*
X86223073Y-175369418D01*
X86223073Y-175369418D02*
X86235454Y-175394180D01*
X86235454Y-175394180D02*
X86235454Y-175431323D01*
X86235454Y-175431323D02*
X86223073Y-175456085D01*
X86223073Y-175456085D02*
X86210692Y-175468466D01*
X86210692Y-175468466D02*
X86185930Y-175480847D01*
X86185930Y-175480847D02*
X86086882Y-175480847D01*
X86483073Y-175604656D02*
X86334501Y-175604656D01*
X86408787Y-175604656D02*
X86408787Y-175344656D01*
X86408787Y-175344656D02*
X86384025Y-175381799D01*
X86384025Y-175381799D02*
X86359263Y-175406561D01*
X86359263Y-175406561D02*
X86334501Y-175418942D01*
X86705930Y-175344656D02*
X86656406Y-175344656D01*
X86656406Y-175344656D02*
X86631644Y-175357037D01*
X86631644Y-175357037D02*
X86619263Y-175369418D01*
X86619263Y-175369418D02*
X86594501Y-175406561D01*
X86594501Y-175406561D02*
X86582120Y-175456085D01*
X86582120Y-175456085D02*
X86582120Y-175555133D01*
X86582120Y-175555133D02*
X86594501Y-175579895D01*
X86594501Y-175579895D02*
X86606882Y-175592276D01*
X86606882Y-175592276D02*
X86631644Y-175604656D01*
X86631644Y-175604656D02*
X86681168Y-175604656D01*
X86681168Y-175604656D02*
X86705930Y-175592276D01*
X86705930Y-175592276D02*
X86718311Y-175579895D01*
X86718311Y-175579895D02*
X86730692Y-175555133D01*
X86730692Y-175555133D02*
X86730692Y-175493228D01*
X86730692Y-175493228D02*
X86718311Y-175468466D01*
X86718311Y-175468466D02*
X86705930Y-175456085D01*
X86705930Y-175456085D02*
X86681168Y-175443704D01*
X86681168Y-175443704D02*
X86631644Y-175443704D01*
X86631644Y-175443704D02*
X86606882Y-175456085D01*
X86606882Y-175456085D02*
X86594501Y-175468466D01*
X86594501Y-175468466D02*
X86582120Y-175493228D01*
D10*
X79661904Y-142949580D02*
X79614285Y-142997200D01*
X79614285Y-142997200D02*
X79471428Y-143044819D01*
X79471428Y-143044819D02*
X79376190Y-143044819D01*
X79376190Y-143044819D02*
X79233333Y-142997200D01*
X79233333Y-142997200D02*
X79138095Y-142901961D01*
X79138095Y-142901961D02*
X79090476Y-142806723D01*
X79090476Y-142806723D02*
X79042857Y-142616247D01*
X79042857Y-142616247D02*
X79042857Y-142473390D01*
X79042857Y-142473390D02*
X79090476Y-142282914D01*
X79090476Y-142282914D02*
X79138095Y-142187676D01*
X79138095Y-142187676D02*
X79233333Y-142092438D01*
X79233333Y-142092438D02*
X79376190Y-142044819D01*
X79376190Y-142044819D02*
X79471428Y-142044819D01*
X79471428Y-142044819D02*
X79614285Y-142092438D01*
X79614285Y-142092438D02*
X79661904Y-142140057D01*
X80233333Y-143044819D02*
X80138095Y-142997200D01*
X80138095Y-142997200D02*
X80090476Y-142949580D01*
X80090476Y-142949580D02*
X80042857Y-142854342D01*
X80042857Y-142854342D02*
X80042857Y-142568628D01*
X80042857Y-142568628D02*
X80090476Y-142473390D01*
X80090476Y-142473390D02*
X80138095Y-142425771D01*
X80138095Y-142425771D02*
X80233333Y-142378152D01*
X80233333Y-142378152D02*
X80376190Y-142378152D01*
X80376190Y-142378152D02*
X80471428Y-142425771D01*
X80471428Y-142425771D02*
X80519047Y-142473390D01*
X80519047Y-142473390D02*
X80566666Y-142568628D01*
X80566666Y-142568628D02*
X80566666Y-142854342D01*
X80566666Y-142854342D02*
X80519047Y-142949580D01*
X80519047Y-142949580D02*
X80471428Y-142997200D01*
X80471428Y-142997200D02*
X80376190Y-143044819D01*
X80376190Y-143044819D02*
X80233333Y-143044819D01*
X80995238Y-142378152D02*
X80995238Y-143044819D01*
X80995238Y-142473390D02*
X81042857Y-142425771D01*
X81042857Y-142425771D02*
X81138095Y-142378152D01*
X81138095Y-142378152D02*
X81280952Y-142378152D01*
X81280952Y-142378152D02*
X81376190Y-142425771D01*
X81376190Y-142425771D02*
X81423809Y-142521009D01*
X81423809Y-142521009D02*
X81423809Y-143044819D01*
X81900000Y-142378152D02*
X81900000Y-143044819D01*
X81900000Y-142473390D02*
X81947619Y-142425771D01*
X81947619Y-142425771D02*
X82042857Y-142378152D01*
X82042857Y-142378152D02*
X82185714Y-142378152D01*
X82185714Y-142378152D02*
X82280952Y-142425771D01*
X82280952Y-142425771D02*
X82328571Y-142521009D01*
X82328571Y-142521009D02*
X82328571Y-143044819D01*
X82566667Y-143140057D02*
X83328571Y-143140057D01*
X83757143Y-142044819D02*
X83852381Y-142044819D01*
X83852381Y-142044819D02*
X83947619Y-142092438D01*
X83947619Y-142092438D02*
X83995238Y-142140057D01*
X83995238Y-142140057D02*
X84042857Y-142235295D01*
X84042857Y-142235295D02*
X84090476Y-142425771D01*
X84090476Y-142425771D02*
X84090476Y-142663866D01*
X84090476Y-142663866D02*
X84042857Y-142854342D01*
X84042857Y-142854342D02*
X83995238Y-142949580D01*
X83995238Y-142949580D02*
X83947619Y-142997200D01*
X83947619Y-142997200D02*
X83852381Y-143044819D01*
X83852381Y-143044819D02*
X83757143Y-143044819D01*
X83757143Y-143044819D02*
X83661905Y-142997200D01*
X83661905Y-142997200D02*
X83614286Y-142949580D01*
X83614286Y-142949580D02*
X83566667Y-142854342D01*
X83566667Y-142854342D02*
X83519048Y-142663866D01*
X83519048Y-142663866D02*
X83519048Y-142425771D01*
X83519048Y-142425771D02*
X83566667Y-142235295D01*
X83566667Y-142235295D02*
X83614286Y-142140057D01*
X83614286Y-142140057D02*
X83661905Y-142092438D01*
X83661905Y-142092438D02*
X83757143Y-142044819D01*
X85042857Y-143044819D02*
X84471429Y-143044819D01*
X84757143Y-143044819D02*
X84757143Y-142044819D01*
X84757143Y-142044819D02*
X84661905Y-142187676D01*
X84661905Y-142187676D02*
X84566667Y-142282914D01*
X84566667Y-142282914D02*
X84471429Y-142330533D01*
X85376191Y-143044819D02*
X85900000Y-142378152D01*
X85376191Y-142378152D02*
X85900000Y-143044819D01*
X86471429Y-142044819D02*
X86566667Y-142044819D01*
X86566667Y-142044819D02*
X86661905Y-142092438D01*
X86661905Y-142092438D02*
X86709524Y-142140057D01*
X86709524Y-142140057D02*
X86757143Y-142235295D01*
X86757143Y-142235295D02*
X86804762Y-142425771D01*
X86804762Y-142425771D02*
X86804762Y-142663866D01*
X86804762Y-142663866D02*
X86757143Y-142854342D01*
X86757143Y-142854342D02*
X86709524Y-142949580D01*
X86709524Y-142949580D02*
X86661905Y-142997200D01*
X86661905Y-142997200D02*
X86566667Y-143044819D01*
X86566667Y-143044819D02*
X86471429Y-143044819D01*
X86471429Y-143044819D02*
X86376191Y-142997200D01*
X86376191Y-142997200D02*
X86328572Y-142949580D01*
X86328572Y-142949580D02*
X86280953Y-142854342D01*
X86280953Y-142854342D02*
X86233334Y-142663866D01*
X86233334Y-142663866D02*
X86233334Y-142425771D01*
X86233334Y-142425771D02*
X86280953Y-142235295D01*
X86280953Y-142235295D02*
X86328572Y-142140057D01*
X86328572Y-142140057D02*
X86376191Y-142092438D01*
X86376191Y-142092438D02*
X86471429Y-142044819D01*
X87661905Y-142378152D02*
X87661905Y-143044819D01*
X87423810Y-141997200D02*
X87185715Y-142711485D01*
X87185715Y-142711485D02*
X87804762Y-142711485D01*
X82854819Y-136733333D02*
X83569104Y-136733333D01*
X83569104Y-136733333D02*
X83711961Y-136780952D01*
X83711961Y-136780952D02*
X83807200Y-136876190D01*
X83807200Y-136876190D02*
X83854819Y-137019047D01*
X83854819Y-137019047D02*
X83854819Y-137114285D01*
X82854819Y-135780952D02*
X82854819Y-136257142D01*
X82854819Y-136257142D02*
X83331009Y-136304761D01*
X83331009Y-136304761D02*
X83283390Y-136257142D01*
X83283390Y-136257142D02*
X83235771Y-136161904D01*
X83235771Y-136161904D02*
X83235771Y-135923809D01*
X83235771Y-135923809D02*
X83283390Y-135828571D01*
X83283390Y-135828571D02*
X83331009Y-135780952D01*
X83331009Y-135780952D02*
X83426247Y-135733333D01*
X83426247Y-135733333D02*
X83664342Y-135733333D01*
X83664342Y-135733333D02*
X83759580Y-135780952D01*
X83759580Y-135780952D02*
X83807200Y-135828571D01*
X83807200Y-135828571D02*
X83854819Y-135923809D01*
X83854819Y-135923809D02*
X83854819Y-136161904D01*
X83854819Y-136161904D02*
X83807200Y-136257142D01*
X83807200Y-136257142D02*
X83759580Y-136304761D01*
X93848152Y-112798571D02*
X94514819Y-112798571D01*
X93467200Y-113036666D02*
X94181485Y-113274761D01*
X94181485Y-113274761D02*
X94181485Y-112655714D01*
X94419580Y-112274761D02*
X94467200Y-112227142D01*
X94467200Y-112227142D02*
X94514819Y-112274761D01*
X94514819Y-112274761D02*
X94467200Y-112322380D01*
X94467200Y-112322380D02*
X94419580Y-112274761D01*
X94419580Y-112274761D02*
X94514819Y-112274761D01*
X93514819Y-111893809D02*
X93514819Y-111227143D01*
X93514819Y-111227143D02*
X94514819Y-111655714D01*
X94514819Y-110846190D02*
X93514819Y-110846190D01*
X94133866Y-110750952D02*
X94514819Y-110465238D01*
X93848152Y-110465238D02*
X94229104Y-110846190D01*
X94514819Y-109465238D02*
X94038628Y-109798571D01*
X94514819Y-110036666D02*
X93514819Y-110036666D01*
X93514819Y-110036666D02*
X93514819Y-109655714D01*
X93514819Y-109655714D02*
X93562438Y-109560476D01*
X93562438Y-109560476D02*
X93610057Y-109512857D01*
X93610057Y-109512857D02*
X93705295Y-109465238D01*
X93705295Y-109465238D02*
X93848152Y-109465238D01*
X93848152Y-109465238D02*
X93943390Y-109512857D01*
X93943390Y-109512857D02*
X93991009Y-109560476D01*
X93991009Y-109560476D02*
X94038628Y-109655714D01*
X94038628Y-109655714D02*
X94038628Y-110036666D01*
D11*
X95348200Y-111413332D02*
X95224391Y-111499999D01*
X95348200Y-111561904D02*
X95088200Y-111561904D01*
X95088200Y-111561904D02*
X95088200Y-111462856D01*
X95088200Y-111462856D02*
X95100581Y-111438094D01*
X95100581Y-111438094D02*
X95112962Y-111425713D01*
X95112962Y-111425713D02*
X95137724Y-111413332D01*
X95137724Y-111413332D02*
X95174867Y-111413332D01*
X95174867Y-111413332D02*
X95199629Y-111425713D01*
X95199629Y-111425713D02*
X95212010Y-111438094D01*
X95212010Y-111438094D02*
X95224391Y-111462856D01*
X95224391Y-111462856D02*
X95224391Y-111561904D01*
X95088200Y-111178094D02*
X95088200Y-111301904D01*
X95088200Y-111301904D02*
X95212010Y-111314285D01*
X95212010Y-111314285D02*
X95199629Y-111301904D01*
X95199629Y-111301904D02*
X95187248Y-111277142D01*
X95187248Y-111277142D02*
X95187248Y-111215237D01*
X95187248Y-111215237D02*
X95199629Y-111190475D01*
X95199629Y-111190475D02*
X95212010Y-111178094D01*
X95212010Y-111178094D02*
X95236772Y-111165713D01*
X95236772Y-111165713D02*
X95298677Y-111165713D01*
X95298677Y-111165713D02*
X95323439Y-111178094D01*
X95323439Y-111178094D02*
X95335820Y-111190475D01*
X95335820Y-111190475D02*
X95348200Y-111215237D01*
X95348200Y-111215237D02*
X95348200Y-111277142D01*
X95348200Y-111277142D02*
X95335820Y-111301904D01*
X95335820Y-111301904D02*
X95323439Y-111314285D01*
D10*
X131654819Y-146869048D02*
X131654819Y-147345238D01*
X131654819Y-147345238D02*
X130654819Y-147345238D01*
X131559580Y-145964286D02*
X131607200Y-146011905D01*
X131607200Y-146011905D02*
X131654819Y-146154762D01*
X131654819Y-146154762D02*
X131654819Y-146250000D01*
X131654819Y-146250000D02*
X131607200Y-146392857D01*
X131607200Y-146392857D02*
X131511961Y-146488095D01*
X131511961Y-146488095D02*
X131416723Y-146535714D01*
X131416723Y-146535714D02*
X131226247Y-146583333D01*
X131226247Y-146583333D02*
X131083390Y-146583333D01*
X131083390Y-146583333D02*
X130892914Y-146535714D01*
X130892914Y-146535714D02*
X130797676Y-146488095D01*
X130797676Y-146488095D02*
X130702438Y-146392857D01*
X130702438Y-146392857D02*
X130654819Y-146250000D01*
X130654819Y-146250000D02*
X130654819Y-146154762D01*
X130654819Y-146154762D02*
X130702438Y-146011905D01*
X130702438Y-146011905D02*
X130750057Y-145964286D01*
X131654819Y-145535714D02*
X130654819Y-145535714D01*
X130654819Y-145535714D02*
X130654819Y-145297619D01*
X130654819Y-145297619D02*
X130702438Y-145154762D01*
X130702438Y-145154762D02*
X130797676Y-145059524D01*
X130797676Y-145059524D02*
X130892914Y-145011905D01*
X130892914Y-145011905D02*
X131083390Y-144964286D01*
X131083390Y-144964286D02*
X131226247Y-144964286D01*
X131226247Y-144964286D02*
X131416723Y-145011905D01*
X131416723Y-145011905D02*
X131511961Y-145059524D01*
X131511961Y-145059524D02*
X131607200Y-145154762D01*
X131607200Y-145154762D02*
X131654819Y-145297619D01*
X131654819Y-145297619D02*
X131654819Y-145535714D01*
X131654819Y-143773809D02*
X130654819Y-143773809D01*
X130654819Y-143773809D02*
X130654819Y-143392857D01*
X130654819Y-143392857D02*
X130702438Y-143297619D01*
X130702438Y-143297619D02*
X130750057Y-143250000D01*
X130750057Y-143250000D02*
X130845295Y-143202381D01*
X130845295Y-143202381D02*
X130988152Y-143202381D01*
X130988152Y-143202381D02*
X131083390Y-143250000D01*
X131083390Y-143250000D02*
X131131009Y-143297619D01*
X131131009Y-143297619D02*
X131178628Y-143392857D01*
X131178628Y-143392857D02*
X131178628Y-143773809D01*
X131654819Y-142630952D02*
X131607200Y-142726190D01*
X131607200Y-142726190D02*
X131559580Y-142773809D01*
X131559580Y-142773809D02*
X131464342Y-142821428D01*
X131464342Y-142821428D02*
X131178628Y-142821428D01*
X131178628Y-142821428D02*
X131083390Y-142773809D01*
X131083390Y-142773809D02*
X131035771Y-142726190D01*
X131035771Y-142726190D02*
X130988152Y-142630952D01*
X130988152Y-142630952D02*
X130988152Y-142488095D01*
X130988152Y-142488095D02*
X131035771Y-142392857D01*
X131035771Y-142392857D02*
X131083390Y-142345238D01*
X131083390Y-142345238D02*
X131178628Y-142297619D01*
X131178628Y-142297619D02*
X131464342Y-142297619D01*
X131464342Y-142297619D02*
X131559580Y-142345238D01*
X131559580Y-142345238D02*
X131607200Y-142392857D01*
X131607200Y-142392857D02*
X131654819Y-142488095D01*
X131654819Y-142488095D02*
X131654819Y-142630952D01*
X131654819Y-141869047D02*
X130988152Y-141869047D01*
X131178628Y-141869047D02*
X131083390Y-141821428D01*
X131083390Y-141821428D02*
X131035771Y-141773809D01*
X131035771Y-141773809D02*
X130988152Y-141678571D01*
X130988152Y-141678571D02*
X130988152Y-141583333D01*
X130988152Y-141392856D02*
X130988152Y-141011904D01*
X130654819Y-141249999D02*
X131511961Y-141249999D01*
X131511961Y-141249999D02*
X131607200Y-141202380D01*
X131607200Y-141202380D02*
X131654819Y-141107142D01*
X131654819Y-141107142D02*
X131654819Y-141011904D01*
X128754819Y-145059523D02*
X129469104Y-145059523D01*
X129469104Y-145059523D02*
X129611961Y-145107142D01*
X129611961Y-145107142D02*
X129707200Y-145202380D01*
X129707200Y-145202380D02*
X129754819Y-145345237D01*
X129754819Y-145345237D02*
X129754819Y-145440475D01*
X129754819Y-144059523D02*
X129754819Y-144630951D01*
X129754819Y-144345237D02*
X128754819Y-144345237D01*
X128754819Y-144345237D02*
X128897676Y-144440475D01*
X128897676Y-144440475D02*
X128992914Y-144535713D01*
X128992914Y-144535713D02*
X129040533Y-144630951D01*
X128754819Y-143202380D02*
X128754819Y-143392856D01*
X128754819Y-143392856D02*
X128802438Y-143488094D01*
X128802438Y-143488094D02*
X128850057Y-143535713D01*
X128850057Y-143535713D02*
X128992914Y-143630951D01*
X128992914Y-143630951D02*
X129183390Y-143678570D01*
X129183390Y-143678570D02*
X129564342Y-143678570D01*
X129564342Y-143678570D02*
X129659580Y-143630951D01*
X129659580Y-143630951D02*
X129707200Y-143583332D01*
X129707200Y-143583332D02*
X129754819Y-143488094D01*
X129754819Y-143488094D02*
X129754819Y-143297618D01*
X129754819Y-143297618D02*
X129707200Y-143202380D01*
X129707200Y-143202380D02*
X129659580Y-143154761D01*
X129659580Y-143154761D02*
X129564342Y-143107142D01*
X129564342Y-143107142D02*
X129326247Y-143107142D01*
X129326247Y-143107142D02*
X129231009Y-143154761D01*
X129231009Y-143154761D02*
X129183390Y-143202380D01*
X129183390Y-143202380D02*
X129135771Y-143297618D01*
X129135771Y-143297618D02*
X129135771Y-143488094D01*
X129135771Y-143488094D02*
X129183390Y-143583332D01*
X129183390Y-143583332D02*
X129231009Y-143630951D01*
X129231009Y-143630951D02*
X129326247Y-143678570D01*
X111764052Y-168829299D02*
X111764052Y-169638822D01*
X111764052Y-169638822D02*
X111811671Y-169734060D01*
X111811671Y-169734060D02*
X111859290Y-169781680D01*
X111859290Y-169781680D02*
X111954528Y-169829299D01*
X111954528Y-169829299D02*
X112145004Y-169829299D01*
X112145004Y-169829299D02*
X112240242Y-169781680D01*
X112240242Y-169781680D02*
X112287861Y-169734060D01*
X112287861Y-169734060D02*
X112335480Y-169638822D01*
X112335480Y-169638822D02*
X112335480Y-168829299D01*
X113287861Y-169829299D02*
X112811671Y-169829299D01*
X112811671Y-169829299D02*
X112811671Y-168829299D01*
X113621195Y-169829299D02*
X113621195Y-168829299D01*
X113621195Y-168829299D02*
X114192623Y-169829299D01*
X114192623Y-169829299D02*
X114192623Y-168829299D01*
X114621195Y-168924537D02*
X114668814Y-168876918D01*
X114668814Y-168876918D02*
X114764052Y-168829299D01*
X114764052Y-168829299D02*
X115002147Y-168829299D01*
X115002147Y-168829299D02*
X115097385Y-168876918D01*
X115097385Y-168876918D02*
X115145004Y-168924537D01*
X115145004Y-168924537D02*
X115192623Y-169019775D01*
X115192623Y-169019775D02*
X115192623Y-169115013D01*
X115192623Y-169115013D02*
X115145004Y-169257870D01*
X115145004Y-169257870D02*
X114573576Y-169829299D01*
X114573576Y-169829299D02*
X115192623Y-169829299D01*
X115811671Y-168829299D02*
X115906909Y-168829299D01*
X115906909Y-168829299D02*
X116002147Y-168876918D01*
X116002147Y-168876918D02*
X116049766Y-168924537D01*
X116049766Y-168924537D02*
X116097385Y-169019775D01*
X116097385Y-169019775D02*
X116145004Y-169210251D01*
X116145004Y-169210251D02*
X116145004Y-169448346D01*
X116145004Y-169448346D02*
X116097385Y-169638822D01*
X116097385Y-169638822D02*
X116049766Y-169734060D01*
X116049766Y-169734060D02*
X116002147Y-169781680D01*
X116002147Y-169781680D02*
X115906909Y-169829299D01*
X115906909Y-169829299D02*
X115811671Y-169829299D01*
X115811671Y-169829299D02*
X115716433Y-169781680D01*
X115716433Y-169781680D02*
X115668814Y-169734060D01*
X115668814Y-169734060D02*
X115621195Y-169638822D01*
X115621195Y-169638822D02*
X115573576Y-169448346D01*
X115573576Y-169448346D02*
X115573576Y-169210251D01*
X115573576Y-169210251D02*
X115621195Y-169019775D01*
X115621195Y-169019775D02*
X115668814Y-168924537D01*
X115668814Y-168924537D02*
X115716433Y-168876918D01*
X115716433Y-168876918D02*
X115811671Y-168829299D01*
X116764052Y-168829299D02*
X116859290Y-168829299D01*
X116859290Y-168829299D02*
X116954528Y-168876918D01*
X116954528Y-168876918D02*
X117002147Y-168924537D01*
X117002147Y-168924537D02*
X117049766Y-169019775D01*
X117049766Y-169019775D02*
X117097385Y-169210251D01*
X117097385Y-169210251D02*
X117097385Y-169448346D01*
X117097385Y-169448346D02*
X117049766Y-169638822D01*
X117049766Y-169638822D02*
X117002147Y-169734060D01*
X117002147Y-169734060D02*
X116954528Y-169781680D01*
X116954528Y-169781680D02*
X116859290Y-169829299D01*
X116859290Y-169829299D02*
X116764052Y-169829299D01*
X116764052Y-169829299D02*
X116668814Y-169781680D01*
X116668814Y-169781680D02*
X116621195Y-169734060D01*
X116621195Y-169734060D02*
X116573576Y-169638822D01*
X116573576Y-169638822D02*
X116525957Y-169448346D01*
X116525957Y-169448346D02*
X116525957Y-169210251D01*
X116525957Y-169210251D02*
X116573576Y-169019775D01*
X116573576Y-169019775D02*
X116621195Y-168924537D01*
X116621195Y-168924537D02*
X116668814Y-168876918D01*
X116668814Y-168876918D02*
X116764052Y-168829299D01*
X117430719Y-168829299D02*
X118049766Y-168829299D01*
X118049766Y-168829299D02*
X117716433Y-169210251D01*
X117716433Y-169210251D02*
X117859290Y-169210251D01*
X117859290Y-169210251D02*
X117954528Y-169257870D01*
X117954528Y-169257870D02*
X118002147Y-169305489D01*
X118002147Y-169305489D02*
X118049766Y-169400727D01*
X118049766Y-169400727D02*
X118049766Y-169638822D01*
X118049766Y-169638822D02*
X118002147Y-169734060D01*
X118002147Y-169734060D02*
X117954528Y-169781680D01*
X117954528Y-169781680D02*
X117859290Y-169829299D01*
X117859290Y-169829299D02*
X117573576Y-169829299D01*
X117573576Y-169829299D02*
X117478338Y-169781680D01*
X117478338Y-169781680D02*
X117430719Y-169734060D01*
X114121195Y-162779299D02*
X114121195Y-163588822D01*
X114121195Y-163588822D02*
X114168814Y-163684060D01*
X114168814Y-163684060D02*
X114216433Y-163731680D01*
X114216433Y-163731680D02*
X114311671Y-163779299D01*
X114311671Y-163779299D02*
X114502147Y-163779299D01*
X114502147Y-163779299D02*
X114597385Y-163731680D01*
X114597385Y-163731680D02*
X114645004Y-163684060D01*
X114645004Y-163684060D02*
X114692623Y-163588822D01*
X114692623Y-163588822D02*
X114692623Y-162779299D01*
X115073576Y-162779299D02*
X115740242Y-162779299D01*
X115740242Y-162779299D02*
X115311671Y-163779299D01*
X82874819Y-105516070D02*
X82874819Y-104897023D01*
X82874819Y-104897023D02*
X83255771Y-105230356D01*
X83255771Y-105230356D02*
X83255771Y-105087499D01*
X83255771Y-105087499D02*
X83303390Y-104992261D01*
X83303390Y-104992261D02*
X83351009Y-104944642D01*
X83351009Y-104944642D02*
X83446247Y-104897023D01*
X83446247Y-104897023D02*
X83684342Y-104897023D01*
X83684342Y-104897023D02*
X83779580Y-104944642D01*
X83779580Y-104944642D02*
X83827200Y-104992261D01*
X83827200Y-104992261D02*
X83874819Y-105087499D01*
X83874819Y-105087499D02*
X83874819Y-105373213D01*
X83874819Y-105373213D02*
X83827200Y-105468451D01*
X83827200Y-105468451D02*
X83779580Y-105516070D01*
X83779580Y-104468451D02*
X83827200Y-104420832D01*
X83827200Y-104420832D02*
X83874819Y-104468451D01*
X83874819Y-104468451D02*
X83827200Y-104516070D01*
X83827200Y-104516070D02*
X83779580Y-104468451D01*
X83779580Y-104468451D02*
X83874819Y-104468451D01*
X82970057Y-104039880D02*
X82922438Y-103992261D01*
X82922438Y-103992261D02*
X82874819Y-103897023D01*
X82874819Y-103897023D02*
X82874819Y-103658928D01*
X82874819Y-103658928D02*
X82922438Y-103563690D01*
X82922438Y-103563690D02*
X82970057Y-103516071D01*
X82970057Y-103516071D02*
X83065295Y-103468452D01*
X83065295Y-103468452D02*
X83160533Y-103468452D01*
X83160533Y-103468452D02*
X83303390Y-103516071D01*
X83303390Y-103516071D02*
X83874819Y-104087499D01*
X83874819Y-104087499D02*
X83874819Y-103468452D01*
X83208152Y-102611309D02*
X83874819Y-102611309D01*
X82827200Y-102849404D02*
X83541485Y-103087499D01*
X83541485Y-103087499D02*
X83541485Y-102468452D01*
X83874819Y-102087499D02*
X82874819Y-102087499D01*
X83493866Y-101992261D02*
X83874819Y-101706547D01*
X83208152Y-101706547D02*
X83589104Y-102087499D01*
X83874819Y-100706547D02*
X83398628Y-101039880D01*
X83874819Y-101277975D02*
X82874819Y-101277975D01*
X82874819Y-101277975D02*
X82874819Y-100897023D01*
X82874819Y-100897023D02*
X82922438Y-100801785D01*
X82922438Y-100801785D02*
X82970057Y-100754166D01*
X82970057Y-100754166D02*
X83065295Y-100706547D01*
X83065295Y-100706547D02*
X83208152Y-100706547D01*
X83208152Y-100706547D02*
X83303390Y-100754166D01*
X83303390Y-100754166D02*
X83351009Y-100801785D01*
X83351009Y-100801785D02*
X83398628Y-100897023D01*
X83398628Y-100897023D02*
X83398628Y-101277975D01*
D11*
X82368200Y-103130832D02*
X82244391Y-103217499D01*
X82368200Y-103279404D02*
X82108200Y-103279404D01*
X82108200Y-103279404D02*
X82108200Y-103180356D01*
X82108200Y-103180356D02*
X82120581Y-103155594D01*
X82120581Y-103155594D02*
X82132962Y-103143213D01*
X82132962Y-103143213D02*
X82157724Y-103130832D01*
X82157724Y-103130832D02*
X82194867Y-103130832D01*
X82194867Y-103130832D02*
X82219629Y-103143213D01*
X82219629Y-103143213D02*
X82232010Y-103155594D01*
X82232010Y-103155594D02*
X82244391Y-103180356D01*
X82244391Y-103180356D02*
X82244391Y-103279404D01*
X82194867Y-102907975D02*
X82368200Y-102907975D01*
X82095820Y-102969880D02*
X82281534Y-103031785D01*
X82281534Y-103031785D02*
X82281534Y-102870832D01*
D10*
X117455952Y-113034819D02*
X116884524Y-113034819D01*
X117170238Y-113034819D02*
X117170238Y-112034819D01*
X117170238Y-112034819D02*
X117075000Y-112177676D01*
X117075000Y-112177676D02*
X116979762Y-112272914D01*
X116979762Y-112272914D02*
X116884524Y-112320533D01*
X117884524Y-113034819D02*
X117884524Y-112034819D01*
X117979762Y-112653866D02*
X118265476Y-113034819D01*
X118265476Y-112368152D02*
X117884524Y-112749104D01*
D11*
X117531667Y-113868200D02*
X117445000Y-113744391D01*
X117383095Y-113868200D02*
X117383095Y-113608200D01*
X117383095Y-113608200D02*
X117482143Y-113608200D01*
X117482143Y-113608200D02*
X117506905Y-113620581D01*
X117506905Y-113620581D02*
X117519286Y-113632962D01*
X117519286Y-113632962D02*
X117531667Y-113657724D01*
X117531667Y-113657724D02*
X117531667Y-113694867D01*
X117531667Y-113694867D02*
X117519286Y-113719629D01*
X117519286Y-113719629D02*
X117506905Y-113732010D01*
X117506905Y-113732010D02*
X117482143Y-113744391D01*
X117482143Y-113744391D02*
X117383095Y-113744391D01*
X117618333Y-113608200D02*
X117791667Y-113608200D01*
X117791667Y-113608200D02*
X117680238Y-113868200D01*
D10*
X100454819Y-140943333D02*
X101169104Y-140943333D01*
X101169104Y-140943333D02*
X101311961Y-140990952D01*
X101311961Y-140990952D02*
X101407200Y-141086190D01*
X101407200Y-141086190D02*
X101454819Y-141229047D01*
X101454819Y-141229047D02*
X101454819Y-141324285D01*
X100883390Y-140324285D02*
X100835771Y-140419523D01*
X100835771Y-140419523D02*
X100788152Y-140467142D01*
X100788152Y-140467142D02*
X100692914Y-140514761D01*
X100692914Y-140514761D02*
X100645295Y-140514761D01*
X100645295Y-140514761D02*
X100550057Y-140467142D01*
X100550057Y-140467142D02*
X100502438Y-140419523D01*
X100502438Y-140419523D02*
X100454819Y-140324285D01*
X100454819Y-140324285D02*
X100454819Y-140133809D01*
X100454819Y-140133809D02*
X100502438Y-140038571D01*
X100502438Y-140038571D02*
X100550057Y-139990952D01*
X100550057Y-139990952D02*
X100645295Y-139943333D01*
X100645295Y-139943333D02*
X100692914Y-139943333D01*
X100692914Y-139943333D02*
X100788152Y-139990952D01*
X100788152Y-139990952D02*
X100835771Y-140038571D01*
X100835771Y-140038571D02*
X100883390Y-140133809D01*
X100883390Y-140133809D02*
X100883390Y-140324285D01*
X100883390Y-140324285D02*
X100931009Y-140419523D01*
X100931009Y-140419523D02*
X100978628Y-140467142D01*
X100978628Y-140467142D02*
X101073866Y-140514761D01*
X101073866Y-140514761D02*
X101264342Y-140514761D01*
X101264342Y-140514761D02*
X101359580Y-140467142D01*
X101359580Y-140467142D02*
X101407200Y-140419523D01*
X101407200Y-140419523D02*
X101454819Y-140324285D01*
X101454819Y-140324285D02*
X101454819Y-140133809D01*
X101454819Y-140133809D02*
X101407200Y-140038571D01*
X101407200Y-140038571D02*
X101359580Y-139990952D01*
X101359580Y-139990952D02*
X101264342Y-139943333D01*
X101264342Y-139943333D02*
X101073866Y-139943333D01*
X101073866Y-139943333D02*
X100978628Y-139990952D01*
X100978628Y-139990952D02*
X100931009Y-140038571D01*
X100931009Y-140038571D02*
X100883390Y-140133809D01*
X68080952Y-166434819D02*
X68080952Y-165434819D01*
X68080952Y-165434819D02*
X68319047Y-165434819D01*
X68319047Y-165434819D02*
X68461904Y-165482438D01*
X68461904Y-165482438D02*
X68557142Y-165577676D01*
X68557142Y-165577676D02*
X68604761Y-165672914D01*
X68604761Y-165672914D02*
X68652380Y-165863390D01*
X68652380Y-165863390D02*
X68652380Y-166006247D01*
X68652380Y-166006247D02*
X68604761Y-166196723D01*
X68604761Y-166196723D02*
X68557142Y-166291961D01*
X68557142Y-166291961D02*
X68461904Y-166387200D01*
X68461904Y-166387200D02*
X68319047Y-166434819D01*
X68319047Y-166434819D02*
X68080952Y-166434819D01*
X69080952Y-166434819D02*
X69080952Y-165434819D01*
X69080952Y-165911009D02*
X69652380Y-165911009D01*
X69652380Y-166434819D02*
X69652380Y-165434819D01*
X69985714Y-165434819D02*
X70557142Y-165434819D01*
X70271428Y-166434819D02*
X70271428Y-165434819D01*
X71414285Y-166434819D02*
X70842857Y-166434819D01*
X71128571Y-166434819D02*
X71128571Y-165434819D01*
X71128571Y-165434819D02*
X71033333Y-165577676D01*
X71033333Y-165577676D02*
X70938095Y-165672914D01*
X70938095Y-165672914D02*
X70842857Y-165720533D01*
X72366666Y-166434819D02*
X71795238Y-166434819D01*
X72080952Y-166434819D02*
X72080952Y-165434819D01*
X72080952Y-165434819D02*
X71985714Y-165577676D01*
X71985714Y-165577676D02*
X71890476Y-165672914D01*
X71890476Y-165672914D02*
X71795238Y-165720533D01*
X69654819Y-161869523D02*
X70369104Y-161869523D01*
X70369104Y-161869523D02*
X70511961Y-161917142D01*
X70511961Y-161917142D02*
X70607200Y-162012380D01*
X70607200Y-162012380D02*
X70654819Y-162155237D01*
X70654819Y-162155237D02*
X70654819Y-162250475D01*
X70654819Y-160869523D02*
X70654819Y-161440951D01*
X70654819Y-161155237D02*
X69654819Y-161155237D01*
X69654819Y-161155237D02*
X69797676Y-161250475D01*
X69797676Y-161250475D02*
X69892914Y-161345713D01*
X69892914Y-161345713D02*
X69940533Y-161440951D01*
X69654819Y-160536189D02*
X69654819Y-159917142D01*
X69654819Y-159917142D02*
X70035771Y-160250475D01*
X70035771Y-160250475D02*
X70035771Y-160107618D01*
X70035771Y-160107618D02*
X70083390Y-160012380D01*
X70083390Y-160012380D02*
X70131009Y-159964761D01*
X70131009Y-159964761D02*
X70226247Y-159917142D01*
X70226247Y-159917142D02*
X70464342Y-159917142D01*
X70464342Y-159917142D02*
X70559580Y-159964761D01*
X70559580Y-159964761D02*
X70607200Y-160012380D01*
X70607200Y-160012380D02*
X70654819Y-160107618D01*
X70654819Y-160107618D02*
X70654819Y-160393332D01*
X70654819Y-160393332D02*
X70607200Y-160488570D01*
X70607200Y-160488570D02*
X70559580Y-160536189D01*
X86230952Y-119329819D02*
X85754762Y-119329819D01*
X85754762Y-119329819D02*
X85754762Y-118329819D01*
X86564286Y-119329819D02*
X86564286Y-118329819D01*
X86564286Y-118329819D02*
X86897619Y-119044104D01*
X86897619Y-119044104D02*
X87230952Y-118329819D01*
X87230952Y-118329819D02*
X87230952Y-119329819D01*
X87564286Y-118329819D02*
X87897619Y-119329819D01*
X87897619Y-119329819D02*
X88230952Y-118329819D01*
X88469048Y-118329819D02*
X89088095Y-118329819D01*
X89088095Y-118329819D02*
X88754762Y-118710771D01*
X88754762Y-118710771D02*
X88897619Y-118710771D01*
X88897619Y-118710771D02*
X88992857Y-118758390D01*
X88992857Y-118758390D02*
X89040476Y-118806009D01*
X89040476Y-118806009D02*
X89088095Y-118901247D01*
X89088095Y-118901247D02*
X89088095Y-119139342D01*
X89088095Y-119139342D02*
X89040476Y-119234580D01*
X89040476Y-119234580D02*
X88992857Y-119282200D01*
X88992857Y-119282200D02*
X88897619Y-119329819D01*
X88897619Y-119329819D02*
X88611905Y-119329819D01*
X88611905Y-119329819D02*
X88516667Y-119282200D01*
X88516667Y-119282200D02*
X88469048Y-119234580D01*
X89992857Y-118329819D02*
X89516667Y-118329819D01*
X89516667Y-118329819D02*
X89469048Y-118806009D01*
X89469048Y-118806009D02*
X89516667Y-118758390D01*
X89516667Y-118758390D02*
X89611905Y-118710771D01*
X89611905Y-118710771D02*
X89850000Y-118710771D01*
X89850000Y-118710771D02*
X89945238Y-118758390D01*
X89945238Y-118758390D02*
X89992857Y-118806009D01*
X89992857Y-118806009D02*
X90040476Y-118901247D01*
X90040476Y-118901247D02*
X90040476Y-119139342D01*
X90040476Y-119139342D02*
X89992857Y-119234580D01*
X89992857Y-119234580D02*
X89945238Y-119282200D01*
X89945238Y-119282200D02*
X89850000Y-119329819D01*
X89850000Y-119329819D02*
X89611905Y-119329819D01*
X89611905Y-119329819D02*
X89516667Y-119282200D01*
X89516667Y-119282200D02*
X89469048Y-119234580D01*
X90611905Y-118758390D02*
X90516667Y-118710771D01*
X90516667Y-118710771D02*
X90469048Y-118663152D01*
X90469048Y-118663152D02*
X90421429Y-118567914D01*
X90421429Y-118567914D02*
X90421429Y-118520295D01*
X90421429Y-118520295D02*
X90469048Y-118425057D01*
X90469048Y-118425057D02*
X90516667Y-118377438D01*
X90516667Y-118377438D02*
X90611905Y-118329819D01*
X90611905Y-118329819D02*
X90802381Y-118329819D01*
X90802381Y-118329819D02*
X90897619Y-118377438D01*
X90897619Y-118377438D02*
X90945238Y-118425057D01*
X90945238Y-118425057D02*
X90992857Y-118520295D01*
X90992857Y-118520295D02*
X90992857Y-118567914D01*
X90992857Y-118567914D02*
X90945238Y-118663152D01*
X90945238Y-118663152D02*
X90897619Y-118710771D01*
X90897619Y-118710771D02*
X90802381Y-118758390D01*
X90802381Y-118758390D02*
X90611905Y-118758390D01*
X90611905Y-118758390D02*
X90516667Y-118806009D01*
X90516667Y-118806009D02*
X90469048Y-118853628D01*
X90469048Y-118853628D02*
X90421429Y-118948866D01*
X90421429Y-118948866D02*
X90421429Y-119139342D01*
X90421429Y-119139342D02*
X90469048Y-119234580D01*
X90469048Y-119234580D02*
X90516667Y-119282200D01*
X90516667Y-119282200D02*
X90611905Y-119329819D01*
X90611905Y-119329819D02*
X90802381Y-119329819D01*
X90802381Y-119329819D02*
X90897619Y-119282200D01*
X90897619Y-119282200D02*
X90945238Y-119234580D01*
X90945238Y-119234580D02*
X90992857Y-119139342D01*
X90992857Y-119139342D02*
X90992857Y-118948866D01*
X90992857Y-118948866D02*
X90945238Y-118853628D01*
X90945238Y-118853628D02*
X90897619Y-118806009D01*
X90897619Y-118806009D02*
X90802381Y-118758390D01*
X87603333Y-121740566D02*
X87603333Y-122533900D01*
X87603333Y-122533900D02*
X87650000Y-122627233D01*
X87650000Y-122627233D02*
X87696666Y-122673900D01*
X87696666Y-122673900D02*
X87790000Y-122720566D01*
X87790000Y-122720566D02*
X87976666Y-122720566D01*
X87976666Y-122720566D02*
X88070000Y-122673900D01*
X88070000Y-122673900D02*
X88116666Y-122627233D01*
X88116666Y-122627233D02*
X88163333Y-122533900D01*
X88163333Y-122533900D02*
X88163333Y-121740566D01*
X89143333Y-122720566D02*
X88583333Y-122720566D01*
X88863333Y-122720566D02*
X88863333Y-121740566D01*
X88863333Y-121740566D02*
X88770000Y-121880566D01*
X88770000Y-121880566D02*
X88676667Y-121973900D01*
X88676667Y-121973900D02*
X88583333Y-122020566D01*
X108204761Y-143254819D02*
X107633333Y-143254819D01*
X107919047Y-143254819D02*
X107919047Y-142254819D01*
X107919047Y-142254819D02*
X107823809Y-142397676D01*
X107823809Y-142397676D02*
X107728571Y-142492914D01*
X107728571Y-142492914D02*
X107633333Y-142540533D01*
X108823809Y-142254819D02*
X108919047Y-142254819D01*
X108919047Y-142254819D02*
X109014285Y-142302438D01*
X109014285Y-142302438D02*
X109061904Y-142350057D01*
X109061904Y-142350057D02*
X109109523Y-142445295D01*
X109109523Y-142445295D02*
X109157142Y-142635771D01*
X109157142Y-142635771D02*
X109157142Y-142873866D01*
X109157142Y-142873866D02*
X109109523Y-143064342D01*
X109109523Y-143064342D02*
X109061904Y-143159580D01*
X109061904Y-143159580D02*
X109014285Y-143207200D01*
X109014285Y-143207200D02*
X108919047Y-143254819D01*
X108919047Y-143254819D02*
X108823809Y-143254819D01*
X108823809Y-143254819D02*
X108728571Y-143207200D01*
X108728571Y-143207200D02*
X108680952Y-143159580D01*
X108680952Y-143159580D02*
X108633333Y-143064342D01*
X108633333Y-143064342D02*
X108585714Y-142873866D01*
X108585714Y-142873866D02*
X108585714Y-142635771D01*
X108585714Y-142635771D02*
X108633333Y-142445295D01*
X108633333Y-142445295D02*
X108680952Y-142350057D01*
X108680952Y-142350057D02*
X108728571Y-142302438D01*
X108728571Y-142302438D02*
X108823809Y-142254819D01*
X109585714Y-143254819D02*
X109585714Y-142254819D01*
X109680952Y-142873866D02*
X109966666Y-143254819D01*
X109966666Y-142588152D02*
X109585714Y-142969104D01*
X110966666Y-143254819D02*
X110633333Y-142778628D01*
X110395238Y-143254819D02*
X110395238Y-142254819D01*
X110395238Y-142254819D02*
X110776190Y-142254819D01*
X110776190Y-142254819D02*
X110871428Y-142302438D01*
X110871428Y-142302438D02*
X110919047Y-142350057D01*
X110919047Y-142350057D02*
X110966666Y-142445295D01*
X110966666Y-142445295D02*
X110966666Y-142588152D01*
X110966666Y-142588152D02*
X110919047Y-142683390D01*
X110919047Y-142683390D02*
X110871428Y-142731009D01*
X110871428Y-142731009D02*
X110776190Y-142778628D01*
X110776190Y-142778628D02*
X110395238Y-142778628D01*
X108804761Y-148154819D02*
X108471428Y-147678628D01*
X108233333Y-148154819D02*
X108233333Y-147154819D01*
X108233333Y-147154819D02*
X108614285Y-147154819D01*
X108614285Y-147154819D02*
X108709523Y-147202438D01*
X108709523Y-147202438D02*
X108757142Y-147250057D01*
X108757142Y-147250057D02*
X108804761Y-147345295D01*
X108804761Y-147345295D02*
X108804761Y-147488152D01*
X108804761Y-147488152D02*
X108757142Y-147583390D01*
X108757142Y-147583390D02*
X108709523Y-147631009D01*
X108709523Y-147631009D02*
X108614285Y-147678628D01*
X108614285Y-147678628D02*
X108233333Y-147678628D01*
X109090476Y-147154819D02*
X109423809Y-148154819D01*
X109423809Y-148154819D02*
X109757142Y-147154819D01*
X110614285Y-148154819D02*
X110042857Y-148154819D01*
X110328571Y-148154819D02*
X110328571Y-147154819D01*
X110328571Y-147154819D02*
X110233333Y-147297676D01*
X110233333Y-147297676D02*
X110138095Y-147392914D01*
X110138095Y-147392914D02*
X110042857Y-147440533D01*
X81334819Y-115086666D02*
X81334819Y-114467619D01*
X81334819Y-114467619D02*
X81715771Y-114800952D01*
X81715771Y-114800952D02*
X81715771Y-114658095D01*
X81715771Y-114658095D02*
X81763390Y-114562857D01*
X81763390Y-114562857D02*
X81811009Y-114515238D01*
X81811009Y-114515238D02*
X81906247Y-114467619D01*
X81906247Y-114467619D02*
X82144342Y-114467619D01*
X82144342Y-114467619D02*
X82239580Y-114515238D01*
X82239580Y-114515238D02*
X82287200Y-114562857D01*
X82287200Y-114562857D02*
X82334819Y-114658095D01*
X82334819Y-114658095D02*
X82334819Y-114943809D01*
X82334819Y-114943809D02*
X82287200Y-115039047D01*
X82287200Y-115039047D02*
X82239580Y-115086666D01*
X81334819Y-114134285D02*
X81334819Y-113515238D01*
X81334819Y-113515238D02*
X81715771Y-113848571D01*
X81715771Y-113848571D02*
X81715771Y-113705714D01*
X81715771Y-113705714D02*
X81763390Y-113610476D01*
X81763390Y-113610476D02*
X81811009Y-113562857D01*
X81811009Y-113562857D02*
X81906247Y-113515238D01*
X81906247Y-113515238D02*
X82144342Y-113515238D01*
X82144342Y-113515238D02*
X82239580Y-113562857D01*
X82239580Y-113562857D02*
X82287200Y-113610476D01*
X82287200Y-113610476D02*
X82334819Y-113705714D01*
X82334819Y-113705714D02*
X82334819Y-113991428D01*
X82334819Y-113991428D02*
X82287200Y-114086666D01*
X82287200Y-114086666D02*
X82239580Y-114134285D01*
X81334819Y-112896190D02*
X81334819Y-112800952D01*
X81334819Y-112800952D02*
X81382438Y-112705714D01*
X81382438Y-112705714D02*
X81430057Y-112658095D01*
X81430057Y-112658095D02*
X81525295Y-112610476D01*
X81525295Y-112610476D02*
X81715771Y-112562857D01*
X81715771Y-112562857D02*
X81953866Y-112562857D01*
X81953866Y-112562857D02*
X82144342Y-112610476D01*
X82144342Y-112610476D02*
X82239580Y-112658095D01*
X82239580Y-112658095D02*
X82287200Y-112705714D01*
X82287200Y-112705714D02*
X82334819Y-112800952D01*
X82334819Y-112800952D02*
X82334819Y-112896190D01*
X82334819Y-112896190D02*
X82287200Y-112991428D01*
X82287200Y-112991428D02*
X82239580Y-113039047D01*
X82239580Y-113039047D02*
X82144342Y-113086666D01*
X82144342Y-113086666D02*
X81953866Y-113134285D01*
X81953866Y-113134285D02*
X81715771Y-113134285D01*
X81715771Y-113134285D02*
X81525295Y-113086666D01*
X81525295Y-113086666D02*
X81430057Y-113039047D01*
X81430057Y-113039047D02*
X81382438Y-112991428D01*
X81382438Y-112991428D02*
X81334819Y-112896190D01*
X81668152Y-111705714D02*
X82334819Y-111705714D01*
X81668152Y-112134285D02*
X82191961Y-112134285D01*
X82191961Y-112134285D02*
X82287200Y-112086666D01*
X82287200Y-112086666D02*
X82334819Y-111991428D01*
X82334819Y-111991428D02*
X82334819Y-111848571D01*
X82334819Y-111848571D02*
X82287200Y-111753333D01*
X82287200Y-111753333D02*
X82239580Y-111705714D01*
X81811009Y-110896190D02*
X81811009Y-111229523D01*
X82334819Y-111229523D02*
X81334819Y-111229523D01*
X81334819Y-111229523D02*
X81334819Y-110753333D01*
X86589580Y-113086666D02*
X86637200Y-113134285D01*
X86637200Y-113134285D02*
X86684819Y-113277142D01*
X86684819Y-113277142D02*
X86684819Y-113372380D01*
X86684819Y-113372380D02*
X86637200Y-113515237D01*
X86637200Y-113515237D02*
X86541961Y-113610475D01*
X86541961Y-113610475D02*
X86446723Y-113658094D01*
X86446723Y-113658094D02*
X86256247Y-113705713D01*
X86256247Y-113705713D02*
X86113390Y-113705713D01*
X86113390Y-113705713D02*
X85922914Y-113658094D01*
X85922914Y-113658094D02*
X85827676Y-113610475D01*
X85827676Y-113610475D02*
X85732438Y-113515237D01*
X85732438Y-113515237D02*
X85684819Y-113372380D01*
X85684819Y-113372380D02*
X85684819Y-113277142D01*
X85684819Y-113277142D02*
X85732438Y-113134285D01*
X85732438Y-113134285D02*
X85780057Y-113086666D01*
X86113390Y-112515237D02*
X86065771Y-112610475D01*
X86065771Y-112610475D02*
X86018152Y-112658094D01*
X86018152Y-112658094D02*
X85922914Y-112705713D01*
X85922914Y-112705713D02*
X85875295Y-112705713D01*
X85875295Y-112705713D02*
X85780057Y-112658094D01*
X85780057Y-112658094D02*
X85732438Y-112610475D01*
X85732438Y-112610475D02*
X85684819Y-112515237D01*
X85684819Y-112515237D02*
X85684819Y-112324761D01*
X85684819Y-112324761D02*
X85732438Y-112229523D01*
X85732438Y-112229523D02*
X85780057Y-112181904D01*
X85780057Y-112181904D02*
X85875295Y-112134285D01*
X85875295Y-112134285D02*
X85922914Y-112134285D01*
X85922914Y-112134285D02*
X86018152Y-112181904D01*
X86018152Y-112181904D02*
X86065771Y-112229523D01*
X86065771Y-112229523D02*
X86113390Y-112324761D01*
X86113390Y-112324761D02*
X86113390Y-112515237D01*
X86113390Y-112515237D02*
X86161009Y-112610475D01*
X86161009Y-112610475D02*
X86208628Y-112658094D01*
X86208628Y-112658094D02*
X86303866Y-112705713D01*
X86303866Y-112705713D02*
X86494342Y-112705713D01*
X86494342Y-112705713D02*
X86589580Y-112658094D01*
X86589580Y-112658094D02*
X86637200Y-112610475D01*
X86637200Y-112610475D02*
X86684819Y-112515237D01*
X86684819Y-112515237D02*
X86684819Y-112324761D01*
X86684819Y-112324761D02*
X86637200Y-112229523D01*
X86637200Y-112229523D02*
X86589580Y-112181904D01*
X86589580Y-112181904D02*
X86494342Y-112134285D01*
X86494342Y-112134285D02*
X86303866Y-112134285D01*
X86303866Y-112134285D02*
X86208628Y-112181904D01*
X86208628Y-112181904D02*
X86161009Y-112229523D01*
X86161009Y-112229523D02*
X86113390Y-112324761D01*
D14*
%TO.C,J4*%
X126132114Y-120400000D02*
X126132114Y-132900000D01*
X126132114Y-132900000D02*
X129932114Y-132900000D01*
X127842114Y-133310000D02*
X130342114Y-133310000D01*
X129932114Y-120400000D02*
X126132114Y-120400000D01*
X129932114Y-132900000D02*
X129932114Y-120400000D01*
X130342114Y-133310000D02*
X130342114Y-130810000D01*
%TO.C,D3*%
X94150000Y-114500000D02*
X94150000Y-116200000D01*
X94150000Y-116200000D02*
X94450000Y-116500000D01*
X94450000Y-116500000D02*
X95350000Y-116500000D01*
X95350000Y-114500000D02*
X94150000Y-114500000D01*
X95350000Y-116500000D02*
X95350000Y-114500000D01*
%TO.C,U6*%
X89765000Y-133790000D02*
X90765000Y-132790000D01*
X89765000Y-168350000D02*
X89765000Y-133790000D01*
X90765000Y-132790000D02*
X96115000Y-132790000D01*
X96115000Y-132790000D02*
X96115000Y-168350000D01*
X96115000Y-168350000D02*
X89765000Y-168350000D01*
%TO.C,D5*%
X78350000Y-126200000D02*
X80150000Y-126200000D01*
X78350000Y-129000000D02*
X78350000Y-126200000D01*
X78850000Y-127850000D02*
X79250000Y-127250000D01*
X79250000Y-126850000D02*
X79250000Y-127250000D01*
X79250000Y-127250000D02*
X78700000Y-127250000D01*
X79250000Y-127250000D02*
X79650000Y-127850000D01*
X79250000Y-127250000D02*
X79800000Y-127250000D01*
X79250000Y-127850000D02*
X79250000Y-128350000D01*
X79650000Y-127850000D02*
X78850000Y-127850000D01*
X80150000Y-126200000D02*
X80150000Y-129000000D01*
X80150000Y-129000000D02*
X78350000Y-129000000D01*
%TO.C,J6*%
X83330000Y-158545000D02*
X83965000Y-157910000D01*
X83330000Y-168070000D02*
X83330000Y-158545000D01*
X83965000Y-157910000D02*
X85870000Y-157910000D01*
X85870000Y-157910000D02*
X85870000Y-168070000D01*
X85870000Y-168070000D02*
X83330000Y-168070000D01*
%TO.C,R11*%
X107735000Y-170980000D02*
X108785000Y-170980000D01*
X107735000Y-171520000D02*
X107735000Y-170980000D01*
X108785000Y-170980000D02*
X108785000Y-171520000D01*
X108785000Y-171520000D02*
X107735000Y-171520000D01*
%TO.C,R17*%
X68275000Y-115730000D02*
X69325000Y-115730000D01*
X68275000Y-116270000D02*
X68275000Y-115730000D01*
X69325000Y-115730000D02*
X69325000Y-116270000D01*
X69325000Y-116270000D02*
X68275000Y-116270000D01*
%TO.C,C17*%
X77625000Y-144000000D02*
X78875000Y-144000000D01*
X77625000Y-146000000D02*
X77625000Y-144000000D01*
X78875000Y-144000000D02*
X78875000Y-146000000D01*
X78875000Y-146000000D02*
X77625000Y-146000000D01*
%TO.C,D4*%
X102650000Y-90000000D02*
X102650000Y-91700000D01*
X102650000Y-91700000D02*
X102950000Y-92000000D01*
X102950000Y-92000000D02*
X103850000Y-92000000D01*
X103850000Y-90000000D02*
X102650000Y-90000000D01*
X103850000Y-92000000D02*
X103850000Y-90000000D01*
%TO.C,L1*%
X64100000Y-101300000D02*
X64100000Y-111700000D01*
X64100000Y-101300000D02*
X67200000Y-101300000D01*
X64100000Y-111700000D02*
X67200000Y-111700000D01*
X74500000Y-101300000D02*
X71400000Y-101300000D01*
X74500000Y-101300000D02*
X74500000Y-111700000D01*
X74500000Y-111700000D02*
X71400000Y-111700000D01*
X66130000Y-109670000D02*
G75*
G02*
X66130000Y-103330000I3170000J3170000D01*
G01*
X72470000Y-103330000D02*
G75*
G02*
X72470000Y-109670000I-3170000J-3170000D01*
G01*
%TO.C,D11*%
X72600000Y-115500000D02*
X72600000Y-116400000D01*
X72600000Y-116400000D02*
X74600000Y-116400000D01*
X72900000Y-115200000D02*
X72600000Y-115500000D01*
X74600000Y-115200000D02*
X72900000Y-115200000D01*
X74600000Y-116400000D02*
X74600000Y-115200000D01*
%TO.C,R3*%
X81980000Y-106312500D02*
X82520000Y-106312500D01*
X81980000Y-107362500D02*
X81980000Y-106312500D01*
X82520000Y-106312500D02*
X82520000Y-107362500D01*
X82520000Y-107362500D02*
X81980000Y-107362500D01*
%TO.C,C18*%
X77625000Y-151712500D02*
X78875000Y-151712500D01*
X77625000Y-153712500D02*
X77625000Y-151712500D01*
X78875000Y-151712500D02*
X78875000Y-153712500D01*
X78875000Y-153712500D02*
X77625000Y-153712500D01*
%TO.C,C14*%
X121475000Y-109570000D02*
X122725000Y-109570000D01*
X121475000Y-111570000D02*
X121475000Y-109570000D01*
X122725000Y-109570000D02*
X122725000Y-111570000D01*
X122725000Y-111570000D02*
X121475000Y-111570000D01*
%TO.C,C10*%
X117375000Y-106170000D02*
X118625000Y-106170000D01*
X117375000Y-108170000D02*
X117375000Y-106170000D01*
X118625000Y-106170000D02*
X118625000Y-108170000D01*
X118625000Y-108170000D02*
X117375000Y-108170000D01*
D10*
%TO.C,U2*%
X87950000Y-100850000D02*
X88950000Y-99850000D01*
X87950000Y-104750000D02*
X87950000Y-100850000D01*
X88950000Y-99850000D02*
X91850000Y-99850000D01*
X91850000Y-99850000D02*
X91850000Y-104750000D01*
X91850000Y-104750000D02*
X87950000Y-104750000D01*
D14*
%TO.C,R6*%
X117050000Y-115480000D02*
X118100000Y-115480000D01*
X117050000Y-116020000D02*
X117050000Y-115480000D01*
X118100000Y-115480000D02*
X118100000Y-116020000D01*
X118100000Y-116020000D02*
X117050000Y-116020000D01*
%TO.C,R1*%
X95980000Y-121465000D02*
X96520000Y-121465000D01*
X95980000Y-122515000D02*
X95980000Y-121465000D01*
X96520000Y-121465000D02*
X96520000Y-122515000D01*
X96520000Y-122515000D02*
X95980000Y-122515000D01*
%TO.C,J15*%
X96230000Y-97480000D02*
X98770000Y-97480000D01*
X96230000Y-100020000D02*
X96230000Y-97480000D01*
X98135000Y-100020000D02*
X96230000Y-100020000D01*
X98770000Y-97480000D02*
X98770000Y-99385000D01*
X98770000Y-99385000D02*
X98135000Y-100020000D01*
%TO.C,D6*%
X82062500Y-171200000D02*
X82062500Y-172400000D01*
X82062500Y-172400000D02*
X83762500Y-172400000D01*
X83762500Y-172400000D02*
X84062500Y-172100000D01*
X84062500Y-171200000D02*
X82062500Y-171200000D01*
X84062500Y-172100000D02*
X84062500Y-171200000D01*
%TO.C,J7*%
X99930000Y-155930000D02*
X102470000Y-155930000D01*
X99930000Y-168630000D02*
X99930000Y-155930000D01*
X101835000Y-168630000D02*
X99930000Y-168630000D01*
X102470000Y-155930000D02*
X102470000Y-167995000D01*
X102470000Y-167995000D02*
X101835000Y-168630000D01*
%TO.C,C19*%
X100375000Y-151500000D02*
X101625000Y-151500000D01*
X100375000Y-153500000D02*
X100375000Y-151500000D01*
X101625000Y-151500000D02*
X101625000Y-153500000D01*
X101625000Y-153500000D02*
X100375000Y-153500000D01*
%TO.C,J14*%
X63230000Y-115115000D02*
X63865000Y-114480000D01*
X63230000Y-117020000D02*
X63230000Y-115115000D01*
X63865000Y-114480000D02*
X65770000Y-114480000D01*
X65770000Y-114480000D02*
X65770000Y-117020000D01*
X65770000Y-117020000D02*
X63230000Y-117020000D01*
%TO.C,C9*%
X92125000Y-114500000D02*
X93375000Y-114500000D01*
X92125000Y-116500000D02*
X92125000Y-114500000D01*
X93375000Y-114500000D02*
X93375000Y-116500000D01*
X93375000Y-116500000D02*
X92125000Y-116500000D01*
%TO.C,R9*%
X81980000Y-126975000D02*
X82520000Y-126975000D01*
X81980000Y-128025000D02*
X81980000Y-126975000D01*
X82520000Y-126975000D02*
X82520000Y-128025000D01*
X82520000Y-128025000D02*
X81980000Y-128025000D01*
%TO.C,J2*%
X110250000Y-79950000D02*
X122250000Y-79950000D01*
X110250000Y-96350000D02*
X110250000Y-79950000D01*
X115000000Y-95860000D02*
X114510000Y-96350000D01*
X115490000Y-96350000D02*
X115000000Y-95860000D01*
X122250000Y-79950000D02*
X122250000Y-96350000D01*
X122250000Y-96350000D02*
X110250000Y-96350000D01*
%TO.C,J9*%
X99690000Y-85730000D02*
X104770000Y-85730000D01*
X99690000Y-87635000D02*
X99690000Y-85730000D01*
X100325000Y-88270000D02*
X99690000Y-87635000D01*
X104770000Y-85730000D02*
X104770000Y-88270000D01*
X104770000Y-88270000D02*
X100325000Y-88270000D01*
%TO.C,J1*%
X75650000Y-79600000D02*
X84650000Y-79600000D01*
X75650000Y-93900000D02*
X75650000Y-79600000D01*
X75650000Y-93900000D02*
X83650000Y-93900000D01*
X84650000Y-79600000D02*
X84650000Y-92900000D01*
X84650000Y-92900000D02*
X83650000Y-93900000D01*
%TO.C,Y1*%
X121340000Y-100795000D02*
X127740000Y-100795000D01*
X121340000Y-105445000D02*
X127740000Y-105445000D01*
X121340000Y-105445000D02*
G75*
G02*
X121340000Y-100795000I0J2325000D01*
G01*
X127740000Y-100795000D02*
G75*
G02*
X127740000Y-105445000I0J-2325000D01*
G01*
%TO.C,C2*%
X75500000Y-96875000D02*
X77500000Y-96875000D01*
X75500000Y-98125000D02*
X75500000Y-96875000D01*
X77500000Y-96875000D02*
X77500000Y-98125000D01*
X77500000Y-98125000D02*
X75500000Y-98125000D01*
%TO.C,SW2*%
X97500000Y-170500000D02*
X100500000Y-170500000D01*
X97500000Y-176500000D02*
X97500000Y-170500000D01*
X100500000Y-170500000D02*
X103500000Y-170500000D01*
X103500000Y-170500000D02*
X103500000Y-176500000D01*
X103500000Y-176500000D02*
X97500000Y-176500000D01*
X102515564Y-173500000D02*
G75*
G02*
X98484436Y-173500000I-2015564J0D01*
G01*
X98484436Y-173500000D02*
G75*
G02*
X102515564Y-173500000I2015564J0D01*
G01*
%TO.C,D1*%
X87000000Y-89200000D02*
X87000000Y-93800000D01*
X87000000Y-89200000D02*
X90000000Y-89200000D01*
X87700920Y-92149440D02*
X89301120Y-92149440D01*
X88501020Y-90998820D02*
X88501020Y-90000600D01*
X88501020Y-92149440D02*
X87700920Y-90998820D01*
X88501020Y-92149440D02*
X88501020Y-93051140D01*
X88501020Y-92149440D02*
X89250320Y-90998820D01*
X89250320Y-90998820D02*
X87700920Y-90998820D01*
X90000000Y-89200000D02*
X90000000Y-93800000D01*
X90000000Y-93800000D02*
X87000000Y-93800000D01*
%TO.C,C1*%
X92080000Y-88470000D02*
X97380000Y-88470000D01*
X92080000Y-92770000D02*
X92080000Y-88470000D01*
X93080000Y-93770000D02*
X92080000Y-92770000D01*
X93080000Y-93770000D02*
X96380000Y-93770000D01*
X93280000Y-92903956D02*
X93780000Y-92903956D01*
X93530000Y-93153956D02*
X93530000Y-92653956D01*
X96380000Y-93770000D02*
X97380000Y-92770000D01*
X97380000Y-92770000D02*
X97380000Y-88470000D01*
X97230000Y-91120000D02*
G75*
G02*
X92230000Y-91120000I-2500000J0D01*
G01*
X92230000Y-91120000D02*
G75*
G02*
X97230000Y-91120000I2500000J0D01*
G01*
%TO.C,D10*%
X82262500Y-175000000D02*
X82262500Y-176200000D01*
X82262500Y-176200000D02*
X83962500Y-176200000D01*
X83962500Y-176200000D02*
X84262500Y-175900000D01*
X84262500Y-175000000D02*
X82262500Y-175000000D01*
X84262500Y-175900000D02*
X84262500Y-175000000D01*
%TO.C,J12*%
X96230000Y-115115000D02*
X96865000Y-114480000D01*
X96230000Y-117020000D02*
X96230000Y-115115000D01*
X96865000Y-114480000D02*
X98770000Y-114480000D01*
X98770000Y-114480000D02*
X98770000Y-117020000D01*
X98770000Y-117020000D02*
X96230000Y-117020000D01*
%TO.C,J17*%
X63118474Y-97480000D02*
X65658474Y-97480000D01*
X63118474Y-100020000D02*
X63118474Y-97480000D01*
X65023474Y-100020000D02*
X63118474Y-100020000D01*
X65658474Y-97480000D02*
X65658474Y-99385000D01*
X65658474Y-99385000D02*
X65023474Y-100020000D01*
%TO.C,J10*%
X69530000Y-139330000D02*
X72070000Y-139330000D01*
X69530000Y-146950000D02*
X69530000Y-139330000D01*
X71435000Y-146950000D02*
X69530000Y-146950000D01*
X72070000Y-139330000D02*
X72070000Y-146315000D01*
X72070000Y-146315000D02*
X71435000Y-146950000D01*
%TO.C,C7*%
X114775000Y-173200000D02*
X116025000Y-173200000D01*
X114775000Y-175200000D02*
X114775000Y-173200000D01*
X116025000Y-173200000D02*
X116025000Y-175200000D01*
X116025000Y-175200000D02*
X114775000Y-175200000D01*
%TO.C,C15*%
X126355000Y-109620000D02*
X127605000Y-109620000D01*
X126355000Y-111620000D02*
X126355000Y-109620000D01*
X127605000Y-109620000D02*
X127605000Y-111620000D01*
X127605000Y-111620000D02*
X126355000Y-111620000D01*
%TO.C,R12*%
X85875000Y-171530000D02*
X86925000Y-171530000D01*
X85875000Y-172070000D02*
X85875000Y-171530000D01*
X86925000Y-171530000D02*
X86925000Y-172070000D01*
X86925000Y-172070000D02*
X85875000Y-172070000D01*
%TO.C,C5*%
X89000000Y-97125000D02*
X91000000Y-97125000D01*
X89000000Y-98375000D02*
X89000000Y-97125000D01*
X91000000Y-97125000D02*
X91000000Y-98375000D01*
X91000000Y-98375000D02*
X89000000Y-98375000D01*
%TO.C,R10*%
X101562500Y-129730000D02*
X102612500Y-129730000D01*
X101562500Y-130270000D02*
X101562500Y-129730000D01*
X102612500Y-129730000D02*
X102612500Y-130270000D01*
X102612500Y-130270000D02*
X101562500Y-130270000D01*
%TO.C,J11*%
X126190000Y-154890000D02*
X126190000Y-157390000D01*
X126600000Y-155300000D02*
X126600000Y-170300000D01*
X126600000Y-170300000D02*
X130400000Y-170300000D01*
X128690000Y-154890000D02*
X126190000Y-154890000D01*
X130400000Y-155300000D02*
X126600000Y-155300000D01*
X130400000Y-170300000D02*
X130400000Y-155300000D01*
%TO.C,Y2*%
X80675000Y-152260000D02*
X80675000Y-145860000D01*
X85325000Y-152260000D02*
X85325000Y-145860000D01*
X80675000Y-145860000D02*
G75*
G02*
X85325000Y-145860000I2325000J0D01*
G01*
X85325000Y-152260000D02*
G75*
G02*
X80675000Y-152260000I-2325000J0D01*
G01*
%TO.C,BZ1*%
X115700000Y-125000000D02*
G75*
G02*
X113700000Y-125000000I-1000000J0D01*
G01*
X113700000Y-125000000D02*
G75*
G02*
X115700000Y-125000000I1000000J0D01*
G01*
X120700000Y-125000000D02*
G75*
G02*
X108700000Y-125000000I-6000000J0D01*
G01*
X108700000Y-125000000D02*
G75*
G02*
X120700000Y-125000000I6000000J0D01*
G01*
%TO.C,R16*%
X85877597Y-175216456D02*
X86927597Y-175216456D01*
X85877597Y-175756456D02*
X85877597Y-175216456D01*
X86927597Y-175216456D02*
X86927597Y-175756456D01*
X86927597Y-175756456D02*
X85877597Y-175756456D01*
%TO.C,J5*%
X82130000Y-131955000D02*
X82765000Y-131320000D01*
X82130000Y-141480000D02*
X82130000Y-131955000D01*
X82765000Y-131320000D02*
X84670000Y-131320000D01*
X84670000Y-131320000D02*
X84670000Y-141480000D01*
X84670000Y-141480000D02*
X82130000Y-141480000D01*
%TO.C,R5*%
X94960000Y-110845000D02*
X95500000Y-110845000D01*
X94960000Y-111895000D02*
X94960000Y-110845000D01*
X95500000Y-110845000D02*
X95500000Y-111895000D01*
X95500000Y-111895000D02*
X94960000Y-111895000D01*
%TO.C,SW1*%
X70250000Y-123000000D02*
X76250000Y-123000000D01*
X70250000Y-129000000D02*
X70250000Y-123000000D01*
X76250000Y-123000000D02*
X76250000Y-126000000D01*
X76250000Y-126000000D02*
X76250000Y-129000000D01*
X76250000Y-129000000D02*
X70250000Y-129000000D01*
X75265564Y-126000000D02*
G75*
G02*
X71234436Y-126000000I-2015564J0D01*
G01*
X71234436Y-126000000D02*
G75*
G02*
X75265564Y-126000000I2015564J0D01*
G01*
%TO.C,Q1*%
X100100000Y-121912500D02*
X103000000Y-121912500D01*
X100100000Y-122887500D02*
X100100000Y-121912500D01*
X100425000Y-123212500D02*
X100100000Y-122887500D01*
X103000000Y-121912500D02*
X103000000Y-123212500D01*
X103000000Y-123212500D02*
X100425000Y-123212500D01*
%TO.C,J16*%
X126200000Y-138000000D02*
X126200000Y-150500000D01*
X126200000Y-150500000D02*
X130000000Y-150500000D01*
X127910000Y-150910000D02*
X130410000Y-150910000D01*
X130000000Y-138000000D02*
X126200000Y-138000000D01*
X130000000Y-150500000D02*
X130000000Y-138000000D01*
X130410000Y-150910000D02*
X130410000Y-148410000D01*
%TO.C,U5*%
X106305000Y-99745000D02*
X110205000Y-99745000D01*
X106305000Y-109645000D02*
X106305000Y-99745000D01*
X109230000Y-109645000D02*
X106305000Y-109645000D01*
X110205000Y-99745000D02*
X110205000Y-108670000D01*
X110205000Y-108670000D02*
X109230000Y-109645000D01*
%TO.C,R8*%
X105087500Y-90450000D02*
X105912500Y-90450000D01*
X105087500Y-92050000D02*
X105087500Y-90450000D01*
X105912500Y-90450000D02*
X105912500Y-92050000D01*
X105912500Y-92050000D02*
X105087500Y-92050000D01*
%TO.C,U7*%
X112233100Y-159224480D02*
X113233100Y-158224480D01*
X112233100Y-168424480D02*
X112233100Y-159224480D01*
X113233100Y-158224480D02*
X117533100Y-158224480D01*
X117533100Y-158224480D02*
X117533100Y-168424480D01*
X117533100Y-168424480D02*
X112233100Y-168424480D01*
%TO.C,R4*%
X81980000Y-102562500D02*
X82520000Y-102562500D01*
X81980000Y-103612500D02*
X81980000Y-102562500D01*
X82520000Y-102562500D02*
X82520000Y-103612500D01*
X82520000Y-103612500D02*
X81980000Y-103612500D01*
%TO.C,R7*%
X117050000Y-113480000D02*
X118100000Y-113480000D01*
X117050000Y-114020000D02*
X117050000Y-113480000D01*
X118100000Y-113480000D02*
X118100000Y-114020000D01*
X118100000Y-114020000D02*
X117050000Y-114020000D01*
%TO.C,J8*%
X99730000Y-132990000D02*
X102270000Y-132990000D01*
X99730000Y-148230000D02*
X99730000Y-132990000D01*
X101635000Y-148230000D02*
X99730000Y-148230000D01*
X102270000Y-132990000D02*
X102270000Y-147595000D01*
X102270000Y-147595000D02*
X101635000Y-148230000D01*
%TO.C,J13*%
X68930000Y-157885000D02*
X69565000Y-157250000D01*
X68930000Y-164870000D02*
X68930000Y-157885000D01*
X69565000Y-157250000D02*
X71470000Y-157250000D01*
X71470000Y-157250000D02*
X71470000Y-164870000D01*
X71470000Y-164870000D02*
X68930000Y-164870000D01*
%TO.C,U1*%
X86400000Y-119825000D02*
X90300000Y-119825000D01*
X86400000Y-124725000D02*
X86400000Y-119825000D01*
X89325000Y-124725000D02*
X86400000Y-124725000D01*
X90300000Y-119825000D02*
X90300000Y-123750000D01*
X90300000Y-123750000D02*
X89325000Y-124725000D01*
%TO.C,RV1*%
X106200000Y-145700000D02*
X106200000Y-151300000D01*
X106200000Y-151300000D02*
X112600000Y-151300000D01*
X106300000Y-151300000D02*
X106300000Y-151500000D01*
X106300000Y-151500000D02*
X107490000Y-151500000D01*
X107500000Y-151500000D02*
X107500000Y-151300000D01*
X111300000Y-151500000D02*
X111300000Y-151300000D01*
X111400000Y-144500000D02*
X107400000Y-144500000D01*
X112500000Y-151300000D02*
X112500000Y-151500000D01*
X112500000Y-151500000D02*
X111300000Y-151500000D01*
X112600000Y-145700000D02*
X112600000Y-151300000D01*
X106200000Y-145700000D02*
G75*
G02*
X107400000Y-144500000I1200000J0D01*
G01*
X111400000Y-144500000D02*
G75*
G02*
X112600000Y-145700000I0J-1200000D01*
G01*
X112400000Y-147700000D02*
G75*
G02*
X106400000Y-147700000I-3000000J0D01*
G01*
X106400000Y-147700000D02*
G75*
G02*
X112400000Y-147700000I3000000J0D01*
G01*
%TO.C,R2*%
X95980000Y-123965000D02*
X96520000Y-123965000D01*
X95980000Y-125015000D02*
X95980000Y-123965000D01*
X96520000Y-123965000D02*
X96520000Y-125015000D01*
X96520000Y-125015000D02*
X95980000Y-125015000D01*
%TO.C,C8*%
X82930000Y-110620000D02*
X82930000Y-116220000D01*
X83930000Y-109620000D02*
X82930000Y-110620000D01*
X87560000Y-110215162D02*
X87560000Y-110845162D01*
X87875000Y-110530162D02*
X87245000Y-110530162D01*
X88530000Y-109620000D02*
X83930000Y-109620000D01*
X88530000Y-109620000D02*
X89530000Y-110620000D01*
X89530000Y-110620000D02*
X89530000Y-116220000D01*
X89530000Y-116220000D02*
X82930000Y-116220000D01*
X89380000Y-112920000D02*
G75*
G02*
X83080000Y-112920000I-3150000J0D01*
G01*
X83080000Y-112920000D02*
G75*
G02*
X89380000Y-112920000I3150000J0D01*
G01*
%TO.C,C16*%
X114855000Y-106170000D02*
X116105000Y-106170000D01*
X114855000Y-108170000D02*
X114855000Y-106170000D01*
X116105000Y-106170000D02*
X116105000Y-108170000D01*
X116105000Y-108170000D02*
X114855000Y-108170000D01*
%TO.C,D2*%
X69750000Y-91200000D02*
X69750000Y-95800000D01*
X69750000Y-91200000D02*
X72750000Y-91200000D01*
X70450920Y-94149440D02*
X72051120Y-94149440D01*
X71251020Y-92998820D02*
X71251020Y-92000600D01*
X71251020Y-94149440D02*
X70450920Y-92998820D01*
X71251020Y-94149440D02*
X71251020Y-95051140D01*
X71251020Y-94149440D02*
X72000320Y-92998820D01*
X72000320Y-92998820D02*
X70450920Y-92998820D01*
X72750000Y-91200000D02*
X72750000Y-95800000D01*
X72750000Y-95800000D02*
X69750000Y-95800000D01*
%TD*%
M02*
