%TF.GenerationSoftware,KiCad,Pcbnew,9.0.2*%
%TF.CreationDate,2025-09-24T13:25:18+05:30*%
%TF.ProjectId,UNO STEMc3.1,554e4f20-5354-4454-9d63-332e312e6b69,rev?*%
%TF.SameCoordinates,Original*%
%TF.FileFunction,Soldermask,Top*%
%TF.FilePolarity,Negative*%
%FSLAX46Y46*%
G04 Gerber Fmt 4.6, Leading zero omitted, Abs format (unit mm)*
G04 Created by KiCad (PCBNEW 9.0.2) date 2025-09-24 13:25:18*
%MOMM*%
%LPD*%
G01*
G04 APERTURE LIST*
G04 Aperture macros list*
%AMRoundRect*
0 Rectangle with rounded corners*
0 $1 Rounding radius*
0 $2 $3 $4 $5 $6 $7 $8 $9 X,Y pos of 4 corners*
0 Add a 4 corners polygon primitive as box body*
4,1,4,$2,$3,$4,$5,$6,$7,$8,$9,$2,$3,0*
0 Add four circle primitives for the rounded corners*
1,1,$1+$1,$2,$3*
1,1,$1+$1,$4,$5*
1,1,$1+$1,$6,$7*
1,1,$1+$1,$8,$9*
0 Add four rect primitives between the rounded corners*
20,1,$1+$1,$2,$3,$4,$5,0*
20,1,$1+$1,$4,$5,$6,$7,0*
20,1,$1+$1,$6,$7,$8,$9,0*
20,1,$1+$1,$8,$9,$2,$3,0*%
G04 Aperture macros list end*
%ADD10RoundRect,0.250000X0.725000X-0.600000X0.725000X0.600000X-0.725000X0.600000X-0.725000X-0.600000X0*%
%ADD11O,1.950000X1.700000*%
%ADD12RoundRect,0.243750X0.456250X-0.243750X0.456250X0.243750X-0.456250X0.243750X-0.456250X-0.243750X0*%
%ADD13RoundRect,0.250000X-0.550000X-0.550000X0.550000X-0.550000X0.550000X0.550000X-0.550000X0.550000X0*%
%ADD14C,1.600000*%
%ADD15RoundRect,0.225000X-0.375000X0.225000X-0.375000X-0.225000X0.375000X-0.225000X0.375000X0.225000X0*%
%ADD16R,1.700000X1.700000*%
%ADD17C,1.700000*%
%ADD18RoundRect,0.135000X0.135000X0.185000X-0.135000X0.185000X-0.135000X-0.185000X0.135000X-0.185000X0*%
%ADD19RoundRect,0.250000X0.475000X-0.250000X0.475000X0.250000X-0.475000X0.250000X-0.475000X-0.250000X0*%
%ADD20R,3.600000X2.700000*%
%ADD21RoundRect,0.243750X-0.243750X-0.456250X0.243750X-0.456250X0.243750X0.456250X-0.243750X0.456250X0*%
%ADD22RoundRect,0.135000X0.185000X-0.135000X0.185000X0.135000X-0.185000X0.135000X-0.185000X-0.135000X0*%
%ADD23RoundRect,0.250000X-0.475000X0.250000X-0.475000X-0.250000X0.475000X-0.250000X0.475000X0.250000X0*%
%ADD24R,1.550000X0.600000*%
%ADD25R,2.600000X3.100000*%
%ADD26RoundRect,0.135000X-0.135000X-0.185000X0.135000X-0.185000X0.135000X0.185000X-0.135000X0.185000X0*%
%ADD27RoundRect,0.135000X-0.185000X0.135000X-0.185000X-0.135000X0.185000X-0.135000X0.185000X0.135000X0*%
%ADD28RoundRect,0.243750X0.243750X0.456250X-0.243750X0.456250X-0.243750X-0.456250X0.243750X-0.456250X0*%
%ADD29R,1.600000X1.600000*%
%ADD30C,4.000000*%
%ADD31R,4.600000X2.000000*%
%ADD32O,4.200000X2.000000*%
%ADD33O,2.000000X4.200000*%
%ADD34C,1.500000*%
%ADD35RoundRect,0.250000X0.250000X0.475000X-0.250000X0.475000X-0.250000X-0.475000X0.250000X-0.475000X0*%
%ADD36C,2.000000*%
%ADD37RoundRect,0.250000X0.650000X-1.000000X0.650000X1.000000X-0.650000X1.000000X-0.650000X-1.000000X0*%
%ADD38RoundRect,0.250000X0.550000X-1.250000X0.550000X1.250000X-0.550000X1.250000X-0.550000X-1.250000X0*%
%ADD39RoundRect,0.250000X-0.250000X-0.475000X0.250000X-0.475000X0.250000X0.475000X-0.250000X0.475000X0*%
%ADD40RoundRect,0.250000X-0.725000X0.600000X-0.725000X-0.600000X0.725000X-0.600000X0.725000X0.600000X0*%
%ADD41R,2.000000X2.000000*%
%ADD42RoundRect,0.150000X0.150000X-0.587500X0.150000X0.587500X-0.150000X0.587500X-0.150000X-0.587500X0*%
%ADD43RoundRect,0.150000X0.825000X0.150000X-0.825000X0.150000X-0.825000X-0.150000X0.825000X-0.150000X0*%
%ADD44RoundRect,0.200000X0.275000X-0.200000X0.275000X0.200000X-0.275000X0.200000X-0.275000X-0.200000X0*%
%ADD45RoundRect,0.150000X-1.050000X-0.150000X1.050000X-0.150000X1.050000X0.150000X-1.050000X0.150000X0*%
%ADD46R,1.560000X1.560000*%
%ADD47C,1.560000*%
%ADD48RoundRect,0.250000X-0.550000X1.500000X-0.550000X-1.500000X0.550000X-1.500000X0.550000X1.500000X0*%
G04 APERTURE END LIST*
D10*
%TO.C,J4*%
X127732114Y-130400000D03*
D11*
X127732114Y-127900000D03*
X127732114Y-125400000D03*
X127732114Y-122900000D03*
%TD*%
D12*
%TO.C,D3*%
X94750000Y-116437500D03*
X94750000Y-114562500D03*
%TD*%
D13*
%TO.C,U6*%
X89130000Y-134060000D03*
D14*
X89130000Y-136600000D03*
X89130000Y-139140000D03*
X89130000Y-141680000D03*
X89130000Y-144220000D03*
X89130000Y-146760000D03*
X89130000Y-149300000D03*
X89130000Y-151840000D03*
X89130000Y-154380000D03*
X89130000Y-156920000D03*
X89130000Y-159460000D03*
X89130000Y-162000000D03*
X89130000Y-164540000D03*
X89130000Y-167080000D03*
X96750000Y-167080000D03*
X96750000Y-164540000D03*
X96750000Y-162000000D03*
X96750000Y-159460000D03*
X96750000Y-156920000D03*
X96750000Y-154380000D03*
X96750000Y-151840000D03*
X96750000Y-149300000D03*
X96750000Y-146760000D03*
X96750000Y-144220000D03*
X96750000Y-141680000D03*
X96750000Y-139140000D03*
X96750000Y-136600000D03*
X96750000Y-134060000D03*
%TD*%
D15*
%TO.C,D5*%
X79250000Y-125950000D03*
X79250000Y-129250000D03*
%TD*%
D16*
%TO.C,J6*%
X84600000Y-159180000D03*
D17*
X84600000Y-161720000D03*
X84600000Y-164260000D03*
X84600000Y-166800000D03*
%TD*%
D18*
%TO.C,R11*%
X108770000Y-171250000D03*
X107750000Y-171250000D03*
%TD*%
%TO.C,R17*%
X69310000Y-116000000D03*
X68290000Y-116000000D03*
%TD*%
D19*
%TO.C,C17*%
X78250000Y-145950000D03*
X78250000Y-144050000D03*
%TD*%
D12*
%TO.C,D4*%
X103250000Y-91937500D03*
X103250000Y-90062500D03*
%TD*%
D20*
%TO.C,L1*%
X69300000Y-102350000D03*
X69300000Y-110650000D03*
%TD*%
D21*
%TO.C,D11*%
X72662500Y-115800000D03*
X74537500Y-115800000D03*
%TD*%
D22*
%TO.C,R3*%
X82250000Y-107347500D03*
X82250000Y-106327500D03*
%TD*%
D23*
%TO.C,C18*%
X78250000Y-151762500D03*
X78250000Y-153662500D03*
%TD*%
%TO.C,C14*%
X122100000Y-109620000D03*
X122100000Y-111520000D03*
%TD*%
D19*
%TO.C,C10*%
X118000000Y-108120000D03*
X118000000Y-106220000D03*
%TD*%
D24*
%TO.C,U2*%
X87200000Y-100395000D03*
X87200000Y-101665000D03*
X87200000Y-102935000D03*
X87200000Y-104205000D03*
X92600000Y-104205000D03*
X92600000Y-102935000D03*
X92600000Y-101665000D03*
X92600000Y-100395000D03*
D25*
X89900000Y-102300000D03*
%TD*%
D26*
%TO.C,R6*%
X117065000Y-115750000D03*
X118085000Y-115750000D03*
%TD*%
D27*
%TO.C,R1*%
X96250000Y-121480000D03*
X96250000Y-122500000D03*
%TD*%
D16*
%TO.C,J15*%
X97500000Y-98750000D03*
%TD*%
D28*
%TO.C,D6*%
X84000000Y-171800000D03*
X82125000Y-171800000D03*
%TD*%
D16*
%TO.C,J7*%
X101200000Y-167360000D03*
D17*
X101200000Y-164820000D03*
X101200000Y-162280000D03*
X101200000Y-159740000D03*
X101200000Y-157200000D03*
%TD*%
D19*
%TO.C,C19*%
X101000000Y-153450000D03*
X101000000Y-151550000D03*
%TD*%
D16*
%TO.C,J14*%
X64500000Y-115750000D03*
%TD*%
D23*
%TO.C,C9*%
X92750000Y-114550000D03*
X92750000Y-116450000D03*
%TD*%
D27*
%TO.C,R9*%
X82250000Y-126990000D03*
X82250000Y-128010000D03*
%TD*%
D29*
%TO.C,J2*%
X115000000Y-95110000D03*
D14*
X117500000Y-95110000D03*
X117500000Y-93110000D03*
X115000000Y-93110000D03*
D30*
X110250000Y-90250000D03*
X122250000Y-90250000D03*
%TD*%
D16*
%TO.C,J9*%
X100960000Y-87000000D03*
D17*
X103500000Y-87000000D03*
%TD*%
D31*
%TO.C,J1*%
X80150000Y-93300000D03*
D32*
X80150000Y-87000000D03*
D33*
X75350000Y-90400000D03*
%TD*%
D34*
%TO.C,Y1*%
X122100000Y-103120000D03*
X126980000Y-103120000D03*
%TD*%
D35*
%TO.C,C2*%
X77450000Y-97500000D03*
X75550000Y-97500000D03*
%TD*%
D36*
%TO.C,SW2*%
X97250000Y-171250000D03*
X103750000Y-171250000D03*
X97250000Y-175750000D03*
X103750000Y-175750000D03*
%TD*%
D37*
%TO.C,D1*%
X88500000Y-93500000D03*
X88500000Y-89500000D03*
%TD*%
D38*
%TO.C,C1*%
X94730000Y-93320000D03*
X94730000Y-88920000D03*
%TD*%
D28*
%TO.C,D10*%
X84200000Y-175600000D03*
X82325000Y-175600000D03*
%TD*%
D16*
%TO.C,J12*%
X97500000Y-115750000D03*
%TD*%
%TO.C,J17*%
X64388474Y-98750000D03*
%TD*%
%TO.C,J10*%
X70800000Y-145680000D03*
D17*
X70800000Y-143140000D03*
X70800000Y-140600000D03*
%TD*%
D23*
%TO.C,C7*%
X115400000Y-173250000D03*
X115400000Y-175150000D03*
%TD*%
%TO.C,C15*%
X126980000Y-109670000D03*
X126980000Y-111570000D03*
%TD*%
D26*
%TO.C,R12*%
X85890000Y-171800000D03*
X86910000Y-171800000D03*
%TD*%
D39*
%TO.C,C5*%
X89050000Y-97750000D03*
X90950000Y-97750000D03*
%TD*%
D26*
%TO.C,R10*%
X101577500Y-130000000D03*
X102597500Y-130000000D03*
%TD*%
D40*
%TO.C,J11*%
X128800000Y-157800000D03*
D11*
X128800000Y-160300000D03*
X128800000Y-162800000D03*
X128800000Y-165300000D03*
X128800000Y-167800000D03*
%TD*%
D34*
%TO.C,Y2*%
X83000000Y-151500000D03*
X83000000Y-146620000D03*
%TD*%
D41*
%TO.C,BZ1*%
X110900000Y-125000000D03*
D36*
X118500000Y-125000000D03*
%TD*%
D26*
%TO.C,R16*%
X85892597Y-175486456D03*
X86912597Y-175486456D03*
%TD*%
D16*
%TO.C,J5*%
X83400000Y-132590000D03*
D17*
X83400000Y-135130000D03*
X83400000Y-137670000D03*
X83400000Y-140210000D03*
%TD*%
D27*
%TO.C,R5*%
X95230000Y-110860000D03*
X95230000Y-111880000D03*
%TD*%
D36*
%TO.C,SW1*%
X75500000Y-122750000D03*
X75500000Y-129250000D03*
X71000000Y-122750000D03*
X71000000Y-129250000D03*
%TD*%
D42*
%TO.C,Q1*%
X100600000Y-123500000D03*
X102500000Y-123500000D03*
X101550000Y-121625000D03*
%TD*%
D10*
%TO.C,J16*%
X127800000Y-148000000D03*
D11*
X127800000Y-145500000D03*
X127800000Y-143000000D03*
X127800000Y-140500000D03*
%TD*%
D43*
%TO.C,U5*%
X110730000Y-109140000D03*
X110730000Y-107870000D03*
X110730000Y-106600000D03*
X110730000Y-105330000D03*
X110730000Y-104060000D03*
X110730000Y-102790000D03*
X110730000Y-101520000D03*
X110730000Y-100250000D03*
X105780000Y-100250000D03*
X105780000Y-101520000D03*
X105780000Y-102790000D03*
X105780000Y-104060000D03*
X105780000Y-105330000D03*
X105780000Y-106600000D03*
X105780000Y-107870000D03*
X105780000Y-109140000D03*
%TD*%
D44*
%TO.C,R8*%
X105500000Y-92075000D03*
X105500000Y-90425000D03*
%TD*%
D45*
%TO.C,U7*%
X111633100Y-158879480D03*
X111633100Y-160149480D03*
X111633100Y-161419480D03*
X111633100Y-162689480D03*
X111633100Y-163959480D03*
X111633100Y-165229480D03*
X111633100Y-166499480D03*
X111633100Y-167769480D03*
X118133100Y-167769480D03*
X118133100Y-166499480D03*
X118133100Y-165229480D03*
X118133100Y-163959480D03*
X118133100Y-162689480D03*
X118133100Y-161419480D03*
X118133100Y-160149480D03*
X118133100Y-158879480D03*
%TD*%
D22*
%TO.C,R4*%
X82250000Y-103597500D03*
X82250000Y-102577500D03*
%TD*%
D18*
%TO.C,R7*%
X118085000Y-113750000D03*
X117065000Y-113750000D03*
%TD*%
D16*
%TO.C,J8*%
X101000000Y-146960000D03*
D17*
X101000000Y-144420000D03*
X101000000Y-141880000D03*
X101000000Y-139340000D03*
X101000000Y-136800000D03*
X101000000Y-134260000D03*
%TD*%
D16*
%TO.C,J13*%
X70200000Y-158520000D03*
D17*
X70200000Y-161060000D03*
X70200000Y-163600000D03*
%TD*%
D43*
%TO.C,U1*%
X90825000Y-124180000D03*
X90825000Y-122910000D03*
X90825000Y-121640000D03*
X90825000Y-120370000D03*
X85875000Y-120370000D03*
X85875000Y-121640000D03*
X85875000Y-122910000D03*
X85875000Y-124180000D03*
%TD*%
D46*
%TO.C,RV1*%
X111900000Y-150200000D03*
D47*
X109400000Y-145200000D03*
X106900000Y-150200000D03*
%TD*%
D27*
%TO.C,R2*%
X96250000Y-123980000D03*
X96250000Y-125000000D03*
%TD*%
D48*
%TO.C,C8*%
X86230000Y-110220000D03*
X86230000Y-115620000D03*
%TD*%
D19*
%TO.C,C16*%
X115480000Y-108120000D03*
X115480000Y-106220000D03*
%TD*%
D37*
%TO.C,D2*%
X71250000Y-95500000D03*
X71250000Y-91500000D03*
%TD*%
M02*
