M48
; DRILL file {KiCad 9.0.2} date 2025-09-24T13:25:16+0530
; FORMAT={-:-/ absolute / metric / decimal}
; #@! TF.CreationDate,2025-09-24T13:25:16+05:30
; #@! TF.GenerationSoftware,Kicad,Pcbnew,9.0.2
; #@! TF.FileFunction,Plated,1,2,PTH
FMAT,2
METRIC
; #@! TA.AperFunction,Plated,PTH,ComponentDrill
T1C0.300
; #@! TA.AperFunction,Plated,PTH,ViaDrill
T2C0.400
; #@! TA.AperFunction,Plated,PTH,ComponentDrill
T3C0.800
; #@! TA.AperFunction,Plated,PTH,ComponentDrill
T4C0.950
; #@! TA.AperFunction,Plated,PTH,ComponentDrill
T5C1.000
; #@! TA.AperFunction,Plated,PTH,ComponentDrill
T6C1.100
; #@! TA.AperFunction,Plated,PTH,ComponentDrill
T7C2.300
%
G90
G05
T1
X89.3Y-100.5
X89.3Y-101.7
X89.3Y-103.0
X89.3Y-104.1
X90.5Y-100.5
X90.5Y-101.7
X90.5Y-103.0
X90.5Y-104.1
T2
X65.5Y-115.25
X78.25Y-116.5
X81.25Y-126.0
X82.5Y-124.75
X83.655Y-100.645
X86.375Y-130.125
X88.0Y-115.25
X90.5Y-106.0
X91.0Y-97.75
X94.73Y-100.81
X95.0Y-105.25
X95.2Y-119.6
X98.5Y-125.25
X101.2Y-106.6
X102.2Y-100.2
X102.2Y-101.6
X102.2Y-102.8
X102.2Y-104.0
X104.0Y-111.6
X104.0Y-125.75
X107.0Y-158.0
X107.0Y-160.0
X107.025Y-161.475
X107.125Y-163.625
X107.25Y-111.25
X111.25Y-95.0
X111.25Y-114.25
X111.25Y-117.75
X114.25Y-98.0
X114.75Y-100.25
X114.75Y-101.555
X115.5Y-110.75
X115.5Y-144.25
X117.5Y-98.25
X118.0Y-111.0
X118.875Y-147.375
X119.75Y-94.0
X120.0Y-174.2
X120.825Y-113.75
X121.25Y-167.75
X122.575Y-115.75
X122.67Y-151.75
X123.5Y-94.5
X123.5Y-129.5
X125.25Y-121.75
X128.25Y-114.75
X129.5Y-100.5
X129.75Y-91.5
X129.75Y-91.5
T3
X83.0Y-146.62
X83.0Y-151.5
X89.13Y-134.06
X89.13Y-136.6
X89.13Y-139.14
X89.13Y-141.68
X89.13Y-144.22
X89.13Y-146.76
X89.13Y-149.3
X89.13Y-151.84
X89.13Y-154.38
X89.13Y-156.92
X89.13Y-159.46
X89.13Y-162.0
X89.13Y-164.54
X89.13Y-167.08
X96.75Y-134.06
X96.75Y-136.6
X96.75Y-139.14
X96.75Y-141.68
X96.75Y-144.22
X96.75Y-146.76
X96.75Y-149.3
X96.75Y-151.84
X96.75Y-154.38
X96.75Y-156.92
X96.75Y-159.46
X96.75Y-162.0
X96.75Y-164.54
X96.75Y-167.08
X122.1Y-103.12
X126.98Y-103.12
T4
X115.0Y-93.11
X115.0Y-95.11
X117.5Y-93.11
X117.5Y-95.11
X127.732Y-122.9
X127.732Y-125.4
X127.732Y-127.9
X127.732Y-130.4
X127.8Y-140.5
X127.8Y-143.0
X127.8Y-145.5
X127.8Y-148.0
X128.8Y-157.8
X128.8Y-160.3
X128.8Y-162.8
X128.8Y-165.3
X128.8Y-167.8
T5
X64.388Y-98.75
X64.5Y-115.75
X70.2Y-158.52
X70.2Y-161.06
X70.2Y-163.6
X70.8Y-140.6
X70.8Y-143.14
X70.8Y-145.68
X83.4Y-132.59
X83.4Y-135.13
X83.4Y-137.67
X83.4Y-140.21
X84.6Y-159.18
X84.6Y-161.72
X84.6Y-164.26
X84.6Y-166.8
X97.5Y-98.75
X97.5Y-115.75
X100.96Y-87.0
X101.0Y-134.26
X101.0Y-136.8
X101.0Y-139.34
X101.0Y-141.88
X101.0Y-144.42
X101.0Y-146.96
X101.2Y-157.2
X101.2Y-159.74
X101.2Y-162.28
X101.2Y-164.82
X101.2Y-167.36
X103.5Y-87.0
X106.9Y-150.2
X109.4Y-145.2
X110.9Y-125.0
X111.9Y-150.2
X118.5Y-125.0
T6
X71.0Y-122.75
X71.0Y-129.25
X75.5Y-122.75
X75.5Y-129.25
X97.25Y-171.25
X97.25Y-175.75
X103.75Y-171.25
X103.75Y-175.75
T7
X110.25Y-90.25
X122.25Y-90.25
T5
G00X75.35Y-91.5
M15
G01X75.35Y-89.3
M16
G05
G00X81.25Y-87.0
M15
G01X79.05Y-87.0
M16
G05
G00X81.45Y-93.3
M15
G01X78.85Y-93.3
M16
G05
M30
