%TF.GenerationSoftware,KiCad,Pcbnew,9.0.2*%
%TF.CreationDate,2025-09-25T10:29:51+05:30*%
%TF.ProjectId,UNO STEMc3.1,554e4f20-5354-4454-9d63-332e312e6b69,rev?*%
%TF.SameCoordinates,Original*%
%TF.FileFunction,Soldermask,Bot*%
%TF.FilePolarity,Negative*%
%FSLAX46Y46*%
G04 Gerber Fmt 4.6, Leading zero omitted, Abs format (unit mm)*
G04 Created by KiCad (PCBNEW 9.0.2) date 2025-09-25 10:29:51*
%MOMM*%
%LPD*%
G01*
G04 APERTURE LIST*
G04 Aperture macros list*
%AMRoundRect*
0 Rectangle with rounded corners*
0 $1 Rounding radius*
0 $2 $3 $4 $5 $6 $7 $8 $9 X,Y pos of 4 corners*
0 Add a 4 corners polygon primitive as box body*
4,1,4,$2,$3,$4,$5,$6,$7,$8,$9,$2,$3,0*
0 Add four circle primitives for the rounded corners*
1,1,$1+$1,$2,$3*
1,1,$1+$1,$4,$5*
1,1,$1+$1,$6,$7*
1,1,$1+$1,$8,$9*
0 Add four rect primitives between the rounded corners*
20,1,$1+$1,$2,$3,$4,$5,0*
20,1,$1+$1,$4,$5,$6,$7,0*
20,1,$1+$1,$6,$7,$8,$9,0*
20,1,$1+$1,$8,$9,$2,$3,0*%
G04 Aperture macros list end*
%ADD10RoundRect,0.250000X0.725000X-0.600000X0.725000X0.600000X-0.725000X0.600000X-0.725000X-0.600000X0*%
%ADD11O,1.950000X1.700000*%
%ADD12RoundRect,0.250000X-0.550000X-0.550000X0.550000X-0.550000X0.550000X0.550000X-0.550000X0.550000X0*%
%ADD13C,1.600000*%
%ADD14R,1.700000X1.700000*%
%ADD15C,1.700000*%
%ADD16R,1.600000X1.600000*%
%ADD17C,4.000000*%
%ADD18R,4.600000X2.000000*%
%ADD19O,4.200000X2.000000*%
%ADD20O,2.000000X4.200000*%
%ADD21C,1.500000*%
%ADD22C,2.000000*%
%ADD23RoundRect,0.250000X-0.725000X0.600000X-0.725000X-0.600000X0.725000X-0.600000X0.725000X0.600000X0*%
%ADD24R,2.000000X2.000000*%
%ADD25R,1.560000X1.560000*%
%ADD26C,1.560000*%
%ADD27RoundRect,0.250000X-0.250000X-0.475000X0.250000X-0.475000X0.250000X0.475000X-0.250000X0.475000X0*%
%ADD28RoundRect,0.375000X0.625000X0.375000X-0.625000X0.375000X-0.625000X-0.375000X0.625000X-0.375000X0*%
%ADD29RoundRect,0.500000X0.500000X1.400000X-0.500000X1.400000X-0.500000X-1.400000X0.500000X-1.400000X0*%
%ADD30RoundRect,0.150000X0.512500X0.150000X-0.512500X0.150000X-0.512500X-0.150000X0.512500X-0.150000X0*%
%ADD31RoundRect,0.250000X-0.475000X0.250000X-0.475000X-0.250000X0.475000X-0.250000X0.475000X0.250000X0*%
G04 APERTURE END LIST*
D10*
%TO.C,J4*%
X127732114Y-130400000D03*
D11*
X127732114Y-127900000D03*
X127732114Y-125400000D03*
X127732114Y-122900000D03*
%TD*%
D12*
%TO.C,U6*%
X89130000Y-134060000D03*
D13*
X89130000Y-136600000D03*
X89130000Y-139140000D03*
X89130000Y-141680000D03*
X89130000Y-144220000D03*
X89130000Y-146760000D03*
X89130000Y-149300000D03*
X89130000Y-151840000D03*
X89130000Y-154380000D03*
X89130000Y-156920000D03*
X89130000Y-159460000D03*
X89130000Y-162000000D03*
X89130000Y-164540000D03*
X89130000Y-167080000D03*
X96750000Y-167080000D03*
X96750000Y-164540000D03*
X96750000Y-162000000D03*
X96750000Y-159460000D03*
X96750000Y-156920000D03*
X96750000Y-154380000D03*
X96750000Y-151840000D03*
X96750000Y-149300000D03*
X96750000Y-146760000D03*
X96750000Y-144220000D03*
X96750000Y-141680000D03*
X96750000Y-139140000D03*
X96750000Y-136600000D03*
X96750000Y-134060000D03*
%TD*%
D14*
%TO.C,J6*%
X84600000Y-159180000D03*
D15*
X84600000Y-161720000D03*
X84600000Y-164260000D03*
X84600000Y-166800000D03*
%TD*%
D14*
%TO.C,J15*%
X97500000Y-98750000D03*
%TD*%
%TO.C,J7*%
X101200000Y-167360000D03*
D15*
X101200000Y-164820000D03*
X101200000Y-162280000D03*
X101200000Y-159740000D03*
X101200000Y-157200000D03*
%TD*%
D14*
%TO.C,J14*%
X64500000Y-115750000D03*
%TD*%
D16*
%TO.C,J2*%
X115000000Y-95110000D03*
D13*
X117500000Y-95110000D03*
X117500000Y-93110000D03*
X115000000Y-93110000D03*
D17*
X110250000Y-90250000D03*
X122250000Y-90250000D03*
%TD*%
D14*
%TO.C,J9*%
X100960000Y-87000000D03*
D15*
X103500000Y-87000000D03*
%TD*%
D18*
%TO.C,J1*%
X80150000Y-93300000D03*
D19*
X80150000Y-87000000D03*
D20*
X75350000Y-90400000D03*
%TD*%
D21*
%TO.C,Y1*%
X122100000Y-103120000D03*
X126980000Y-103120000D03*
%TD*%
D22*
%TO.C,SW2*%
X97250000Y-171250000D03*
X103750000Y-171250000D03*
X97250000Y-175750000D03*
X103750000Y-175750000D03*
%TD*%
D14*
%TO.C,J12*%
X97500000Y-115750000D03*
%TD*%
%TO.C,J17*%
X64388474Y-98750000D03*
%TD*%
%TO.C,J10*%
X70800000Y-145680000D03*
D15*
X70800000Y-143140000D03*
X70800000Y-140600000D03*
%TD*%
D23*
%TO.C,J11*%
X128800000Y-157800000D03*
D11*
X128800000Y-160300000D03*
X128800000Y-162800000D03*
X128800000Y-165300000D03*
X128800000Y-167800000D03*
%TD*%
D21*
%TO.C,Y2*%
X83000000Y-151500000D03*
X83000000Y-146620000D03*
%TD*%
D24*
%TO.C,BZ1*%
X110900000Y-125000000D03*
D22*
X118500000Y-125000000D03*
%TD*%
D14*
%TO.C,J5*%
X83400000Y-132590000D03*
D15*
X83400000Y-135130000D03*
X83400000Y-137670000D03*
X83400000Y-140210000D03*
%TD*%
D22*
%TO.C,SW1*%
X75500000Y-122750000D03*
X75500000Y-129250000D03*
X71000000Y-122750000D03*
X71000000Y-129250000D03*
%TD*%
D10*
%TO.C,J16*%
X127800000Y-148000000D03*
D11*
X127800000Y-145500000D03*
X127800000Y-143000000D03*
X127800000Y-140500000D03*
%TD*%
D14*
%TO.C,J8*%
X101000000Y-146960000D03*
D15*
X101000000Y-144420000D03*
X101000000Y-141880000D03*
X101000000Y-139340000D03*
X101000000Y-136800000D03*
X101000000Y-134260000D03*
%TD*%
D14*
%TO.C,J13*%
X70200000Y-158520000D03*
D15*
X70200000Y-161060000D03*
X70200000Y-163600000D03*
%TD*%
D25*
%TO.C,RV1*%
X111900000Y-150200000D03*
D26*
X109400000Y-145200000D03*
X106900000Y-150200000D03*
%TD*%
D27*
%TO.C,C6*%
X88030000Y-115120000D03*
X89930000Y-115120000D03*
%TD*%
%TO.C,C4*%
X88030000Y-117870000D03*
X89930000Y-117870000D03*
%TD*%
D28*
%TO.C,U3*%
X85230000Y-111270000D03*
X85230000Y-113570000D03*
D29*
X78930000Y-113570000D03*
D28*
X85230000Y-115870000D03*
%TD*%
D30*
%TO.C,U4*%
X127750000Y-95600000D03*
X127750000Y-96550000D03*
X127750000Y-97500000D03*
X125475000Y-97500000D03*
X125475000Y-96550000D03*
X125475000Y-95600000D03*
%TD*%
D31*
%TO.C,C3*%
X88350000Y-121325000D03*
X88350000Y-123225000D03*
%TD*%
D27*
%TO.C,C13*%
X88030000Y-109620000D03*
X89930000Y-109620000D03*
%TD*%
%TO.C,C11*%
X88030000Y-112370000D03*
X89930000Y-112370000D03*
%TD*%
M02*
