%TF.GenerationSoftware,KiCad,Pcbnew,9.0.2*%
%TF.CreationDate,2025-09-25T10:29:51+05:30*%
%TF.ProjectId,UNO STEMc3.1,554e4f20-5354-4454-9d63-332e312e6b69,rev?*%
%TF.SameCoordinates,Original*%
%TF.FileFunction,Legend,Bot*%
%TF.FilePolarity,Positive*%
%FSLAX46Y46*%
G04 Gerber Fmt 4.6, Leading zero omitted, Abs format (unit mm)*
G04 Created by KiCad (PCBNEW 9.0.2) date 2025-09-25 10:29:51*
%MOMM*%
%LPD*%
G01*
G04 APERTURE LIST*
%ADD10C,0.137500*%
%ADD11C,0.150000*%
%ADD12C,0.120000*%
G04 APERTURE END LIST*
D10*
X129783333Y-133697290D02*
X129783333Y-134090147D01*
X129783333Y-134090147D02*
X129809524Y-134168719D01*
X129809524Y-134168719D02*
X129861905Y-134221100D01*
X129861905Y-134221100D02*
X129940476Y-134247290D01*
X129940476Y-134247290D02*
X129992857Y-134247290D01*
X129285714Y-133880623D02*
X129285714Y-134247290D01*
X129416666Y-133671100D02*
X129547619Y-134063957D01*
X129547619Y-134063957D02*
X129207142Y-134063957D01*
X91591666Y-115444909D02*
X91617857Y-115471100D01*
X91617857Y-115471100D02*
X91696428Y-115497290D01*
X91696428Y-115497290D02*
X91748809Y-115497290D01*
X91748809Y-115497290D02*
X91827381Y-115471100D01*
X91827381Y-115471100D02*
X91879762Y-115418719D01*
X91879762Y-115418719D02*
X91905952Y-115366338D01*
X91905952Y-115366338D02*
X91932143Y-115261576D01*
X91932143Y-115261576D02*
X91932143Y-115183004D01*
X91932143Y-115183004D02*
X91905952Y-115078242D01*
X91905952Y-115078242D02*
X91879762Y-115025861D01*
X91879762Y-115025861D02*
X91827381Y-114973480D01*
X91827381Y-114973480D02*
X91748809Y-114947290D01*
X91748809Y-114947290D02*
X91696428Y-114947290D01*
X91696428Y-114947290D02*
X91617857Y-114973480D01*
X91617857Y-114973480D02*
X91591666Y-114999671D01*
X91120238Y-114947290D02*
X91225000Y-114947290D01*
X91225000Y-114947290D02*
X91277381Y-114973480D01*
X91277381Y-114973480D02*
X91303571Y-114999671D01*
X91303571Y-114999671D02*
X91355952Y-115078242D01*
X91355952Y-115078242D02*
X91382143Y-115183004D01*
X91382143Y-115183004D02*
X91382143Y-115392528D01*
X91382143Y-115392528D02*
X91355952Y-115444909D01*
X91355952Y-115444909D02*
X91329762Y-115471100D01*
X91329762Y-115471100D02*
X91277381Y-115497290D01*
X91277381Y-115497290D02*
X91172619Y-115497290D01*
X91172619Y-115497290D02*
X91120238Y-115471100D01*
X91120238Y-115471100D02*
X91094047Y-115444909D01*
X91094047Y-115444909D02*
X91067857Y-115392528D01*
X91067857Y-115392528D02*
X91067857Y-115261576D01*
X91067857Y-115261576D02*
X91094047Y-115209195D01*
X91094047Y-115209195D02*
X91120238Y-115183004D01*
X91120238Y-115183004D02*
X91172619Y-115156814D01*
X91172619Y-115156814D02*
X91277381Y-115156814D01*
X91277381Y-115156814D02*
X91329762Y-115183004D01*
X91329762Y-115183004D02*
X91355952Y-115209195D01*
X91355952Y-115209195D02*
X91382143Y-115261576D01*
X91591666Y-118194909D02*
X91617857Y-118221100D01*
X91617857Y-118221100D02*
X91696428Y-118247290D01*
X91696428Y-118247290D02*
X91748809Y-118247290D01*
X91748809Y-118247290D02*
X91827381Y-118221100D01*
X91827381Y-118221100D02*
X91879762Y-118168719D01*
X91879762Y-118168719D02*
X91905952Y-118116338D01*
X91905952Y-118116338D02*
X91932143Y-118011576D01*
X91932143Y-118011576D02*
X91932143Y-117933004D01*
X91932143Y-117933004D02*
X91905952Y-117828242D01*
X91905952Y-117828242D02*
X91879762Y-117775861D01*
X91879762Y-117775861D02*
X91827381Y-117723480D01*
X91827381Y-117723480D02*
X91748809Y-117697290D01*
X91748809Y-117697290D02*
X91696428Y-117697290D01*
X91696428Y-117697290D02*
X91617857Y-117723480D01*
X91617857Y-117723480D02*
X91591666Y-117749671D01*
X91120238Y-117880623D02*
X91120238Y-118247290D01*
X91251190Y-117671100D02*
X91382143Y-118063957D01*
X91382143Y-118063957D02*
X91041666Y-118063957D01*
X81919047Y-109197290D02*
X81919047Y-109642528D01*
X81919047Y-109642528D02*
X81892857Y-109694909D01*
X81892857Y-109694909D02*
X81866666Y-109721100D01*
X81866666Y-109721100D02*
X81814285Y-109747290D01*
X81814285Y-109747290D02*
X81709523Y-109747290D01*
X81709523Y-109747290D02*
X81657142Y-109721100D01*
X81657142Y-109721100D02*
X81630952Y-109694909D01*
X81630952Y-109694909D02*
X81604761Y-109642528D01*
X81604761Y-109642528D02*
X81604761Y-109197290D01*
X81395238Y-109197290D02*
X81054762Y-109197290D01*
X81054762Y-109197290D02*
X81238095Y-109406814D01*
X81238095Y-109406814D02*
X81159524Y-109406814D01*
X81159524Y-109406814D02*
X81107143Y-109433004D01*
X81107143Y-109433004D02*
X81080952Y-109459195D01*
X81080952Y-109459195D02*
X81054762Y-109511576D01*
X81054762Y-109511576D02*
X81054762Y-109642528D01*
X81054762Y-109642528D02*
X81080952Y-109694909D01*
X81080952Y-109694909D02*
X81107143Y-109721100D01*
X81107143Y-109721100D02*
X81159524Y-109747290D01*
X81159524Y-109747290D02*
X81316667Y-109747290D01*
X81316667Y-109747290D02*
X81369048Y-109721100D01*
X81369048Y-109721100D02*
X81395238Y-109694909D01*
D11*
X127374404Y-93604819D02*
X127374404Y-94414342D01*
X127374404Y-94414342D02*
X127326785Y-94509580D01*
X127326785Y-94509580D02*
X127279166Y-94557200D01*
X127279166Y-94557200D02*
X127183928Y-94604819D01*
X127183928Y-94604819D02*
X126993452Y-94604819D01*
X126993452Y-94604819D02*
X126898214Y-94557200D01*
X126898214Y-94557200D02*
X126850595Y-94509580D01*
X126850595Y-94509580D02*
X126802976Y-94414342D01*
X126802976Y-94414342D02*
X126802976Y-93604819D01*
X125898214Y-93938152D02*
X125898214Y-94604819D01*
X126136309Y-93557200D02*
X126374404Y-94271485D01*
X126374404Y-94271485D02*
X125755357Y-94271485D01*
D10*
X86761666Y-122469909D02*
X86787857Y-122496100D01*
X86787857Y-122496100D02*
X86866428Y-122522290D01*
X86866428Y-122522290D02*
X86918809Y-122522290D01*
X86918809Y-122522290D02*
X86997381Y-122496100D01*
X86997381Y-122496100D02*
X87049762Y-122443719D01*
X87049762Y-122443719D02*
X87075952Y-122391338D01*
X87075952Y-122391338D02*
X87102143Y-122286576D01*
X87102143Y-122286576D02*
X87102143Y-122208004D01*
X87102143Y-122208004D02*
X87075952Y-122103242D01*
X87075952Y-122103242D02*
X87049762Y-122050861D01*
X87049762Y-122050861D02*
X86997381Y-121998480D01*
X86997381Y-121998480D02*
X86918809Y-121972290D01*
X86918809Y-121972290D02*
X86866428Y-121972290D01*
X86866428Y-121972290D02*
X86787857Y-121998480D01*
X86787857Y-121998480D02*
X86761666Y-122024671D01*
X86578333Y-121972290D02*
X86237857Y-121972290D01*
X86237857Y-121972290D02*
X86421190Y-122181814D01*
X86421190Y-122181814D02*
X86342619Y-122181814D01*
X86342619Y-122181814D02*
X86290238Y-122208004D01*
X86290238Y-122208004D02*
X86264047Y-122234195D01*
X86264047Y-122234195D02*
X86237857Y-122286576D01*
X86237857Y-122286576D02*
X86237857Y-122417528D01*
X86237857Y-122417528D02*
X86264047Y-122469909D01*
X86264047Y-122469909D02*
X86290238Y-122496100D01*
X86290238Y-122496100D02*
X86342619Y-122522290D01*
X86342619Y-122522290D02*
X86499762Y-122522290D01*
X86499762Y-122522290D02*
X86552143Y-122496100D01*
X86552143Y-122496100D02*
X86578333Y-122469909D01*
X92103571Y-109694909D02*
X92129762Y-109721100D01*
X92129762Y-109721100D02*
X92208333Y-109747290D01*
X92208333Y-109747290D02*
X92260714Y-109747290D01*
X92260714Y-109747290D02*
X92339286Y-109721100D01*
X92339286Y-109721100D02*
X92391667Y-109668719D01*
X92391667Y-109668719D02*
X92417857Y-109616338D01*
X92417857Y-109616338D02*
X92444048Y-109511576D01*
X92444048Y-109511576D02*
X92444048Y-109433004D01*
X92444048Y-109433004D02*
X92417857Y-109328242D01*
X92417857Y-109328242D02*
X92391667Y-109275861D01*
X92391667Y-109275861D02*
X92339286Y-109223480D01*
X92339286Y-109223480D02*
X92260714Y-109197290D01*
X92260714Y-109197290D02*
X92208333Y-109197290D01*
X92208333Y-109197290D02*
X92129762Y-109223480D01*
X92129762Y-109223480D02*
X92103571Y-109249671D01*
X91579762Y-109747290D02*
X91894048Y-109747290D01*
X91736905Y-109747290D02*
X91736905Y-109197290D01*
X91736905Y-109197290D02*
X91789286Y-109275861D01*
X91789286Y-109275861D02*
X91841667Y-109328242D01*
X91841667Y-109328242D02*
X91894048Y-109354433D01*
X91396428Y-109197290D02*
X91055952Y-109197290D01*
X91055952Y-109197290D02*
X91239285Y-109406814D01*
X91239285Y-109406814D02*
X91160714Y-109406814D01*
X91160714Y-109406814D02*
X91108333Y-109433004D01*
X91108333Y-109433004D02*
X91082142Y-109459195D01*
X91082142Y-109459195D02*
X91055952Y-109511576D01*
X91055952Y-109511576D02*
X91055952Y-109642528D01*
X91055952Y-109642528D02*
X91082142Y-109694909D01*
X91082142Y-109694909D02*
X91108333Y-109721100D01*
X91108333Y-109721100D02*
X91160714Y-109747290D01*
X91160714Y-109747290D02*
X91317857Y-109747290D01*
X91317857Y-109747290D02*
X91370238Y-109721100D01*
X91370238Y-109721100D02*
X91396428Y-109694909D01*
X91853571Y-112444909D02*
X91879762Y-112471100D01*
X91879762Y-112471100D02*
X91958333Y-112497290D01*
X91958333Y-112497290D02*
X92010714Y-112497290D01*
X92010714Y-112497290D02*
X92089286Y-112471100D01*
X92089286Y-112471100D02*
X92141667Y-112418719D01*
X92141667Y-112418719D02*
X92167857Y-112366338D01*
X92167857Y-112366338D02*
X92194048Y-112261576D01*
X92194048Y-112261576D02*
X92194048Y-112183004D01*
X92194048Y-112183004D02*
X92167857Y-112078242D01*
X92167857Y-112078242D02*
X92141667Y-112025861D01*
X92141667Y-112025861D02*
X92089286Y-111973480D01*
X92089286Y-111973480D02*
X92010714Y-111947290D01*
X92010714Y-111947290D02*
X91958333Y-111947290D01*
X91958333Y-111947290D02*
X91879762Y-111973480D01*
X91879762Y-111973480D02*
X91853571Y-111999671D01*
X91329762Y-112497290D02*
X91644048Y-112497290D01*
X91486905Y-112497290D02*
X91486905Y-111947290D01*
X91486905Y-111947290D02*
X91539286Y-112025861D01*
X91539286Y-112025861D02*
X91591667Y-112078242D01*
X91591667Y-112078242D02*
X91644048Y-112104433D01*
X90805952Y-112497290D02*
X91120238Y-112497290D01*
X90963095Y-112497290D02*
X90963095Y-111947290D01*
X90963095Y-111947290D02*
X91015476Y-112025861D01*
X91015476Y-112025861D02*
X91067857Y-112078242D01*
X91067857Y-112078242D02*
X91120238Y-112104433D01*
D12*
%TO.C,C6*%
X88718748Y-114385000D02*
X89241252Y-114385000D01*
X88718748Y-115855000D02*
X89241252Y-115855000D01*
%TO.C,C4*%
X88718748Y-117135000D02*
X89241252Y-117135000D01*
X88718748Y-118605000D02*
X89241252Y-118605000D01*
%TO.C,U3*%
X80170000Y-110160000D02*
X80170000Y-111420000D01*
X80170000Y-116980000D02*
X80170000Y-115720000D01*
X83930000Y-110160000D02*
X80170000Y-110160000D01*
X83930000Y-116980000D02*
X80170000Y-116980000D01*
X85210000Y-110260000D02*
X84970000Y-109930000D01*
X85450000Y-109930000D01*
X85210000Y-110260000D01*
G36*
X85210000Y-110260000D02*
G01*
X84970000Y-109930000D01*
X85450000Y-109930000D01*
X85210000Y-110260000D01*
G37*
%TO.C,U4*%
X126612500Y-94990000D02*
X125812500Y-94990000D01*
X126612500Y-94990000D02*
X127412500Y-94990000D01*
X126612500Y-98110000D02*
X125812500Y-98110000D01*
X126612500Y-98110000D02*
X127412500Y-98110000D01*
X127912500Y-95040000D02*
X127672500Y-94710000D01*
X128152500Y-94710000D01*
X127912500Y-95040000D01*
G36*
X127912500Y-95040000D02*
G01*
X127672500Y-94710000D01*
X128152500Y-94710000D01*
X127912500Y-95040000D01*
G37*
%TO.C,C3*%
X87615000Y-122013748D02*
X87615000Y-122536252D01*
X89085000Y-122013748D02*
X89085000Y-122536252D01*
%TO.C,C13*%
X88718748Y-108885000D02*
X89241252Y-108885000D01*
X88718748Y-110355000D02*
X89241252Y-110355000D01*
%TO.C,C11*%
X88718748Y-111635000D02*
X89241252Y-111635000D01*
X88718748Y-113105000D02*
X89241252Y-113105000D01*
%TD*%
M02*
