%TF.GenerationSoftware,KiCad,Pcbnew,9.0.2*%
%TF.CreationDate,2025-09-25T10:29:51+05:30*%
%TF.ProjectId,UNO STEMc3.1,554e4f20-5354-4454-9d63-332e312e6b69,rev?*%
%TF.SameCoordinates,Original*%
%TF.FileFunction,AssemblyDrawing,Bot*%
%FSLAX46Y46*%
G04 Gerber Fmt 4.6, Leading zero omitted, Abs format (unit mm)*
G04 Created by KiCad (PCBNEW 9.0.2) date 2025-09-25 10:29:51*
%MOMM*%
%LPD*%
G01*
G04 APERTURE LIST*
%ADD10C,0.150000*%
%ADD11C,0.080000*%
%ADD12C,0.100000*%
G04 APERTURE END LIST*
D10*
X90527619Y-113894819D02*
X91099047Y-113894819D01*
X90813333Y-113894819D02*
X90813333Y-112894819D01*
X90813333Y-112894819D02*
X90908571Y-113037676D01*
X90908571Y-113037676D02*
X91003809Y-113132914D01*
X91003809Y-113132914D02*
X91099047Y-113180533D01*
X89908571Y-112894819D02*
X89813333Y-112894819D01*
X89813333Y-112894819D02*
X89718095Y-112942438D01*
X89718095Y-112942438D02*
X89670476Y-112990057D01*
X89670476Y-112990057D02*
X89622857Y-113085295D01*
X89622857Y-113085295D02*
X89575238Y-113275771D01*
X89575238Y-113275771D02*
X89575238Y-113513866D01*
X89575238Y-113513866D02*
X89622857Y-113704342D01*
X89622857Y-113704342D02*
X89670476Y-113799580D01*
X89670476Y-113799580D02*
X89718095Y-113847200D01*
X89718095Y-113847200D02*
X89813333Y-113894819D01*
X89813333Y-113894819D02*
X89908571Y-113894819D01*
X89908571Y-113894819D02*
X90003809Y-113847200D01*
X90003809Y-113847200D02*
X90051428Y-113799580D01*
X90051428Y-113799580D02*
X90099047Y-113704342D01*
X90099047Y-113704342D02*
X90146666Y-113513866D01*
X90146666Y-113513866D02*
X90146666Y-113275771D01*
X90146666Y-113275771D02*
X90099047Y-113085295D01*
X90099047Y-113085295D02*
X90051428Y-112990057D01*
X90051428Y-112990057D02*
X90003809Y-112942438D01*
X90003809Y-112942438D02*
X89908571Y-112894819D01*
X88956190Y-112894819D02*
X88860952Y-112894819D01*
X88860952Y-112894819D02*
X88765714Y-112942438D01*
X88765714Y-112942438D02*
X88718095Y-112990057D01*
X88718095Y-112990057D02*
X88670476Y-113085295D01*
X88670476Y-113085295D02*
X88622857Y-113275771D01*
X88622857Y-113275771D02*
X88622857Y-113513866D01*
X88622857Y-113513866D02*
X88670476Y-113704342D01*
X88670476Y-113704342D02*
X88718095Y-113799580D01*
X88718095Y-113799580D02*
X88765714Y-113847200D01*
X88765714Y-113847200D02*
X88860952Y-113894819D01*
X88860952Y-113894819D02*
X88956190Y-113894819D01*
X88956190Y-113894819D02*
X89051428Y-113847200D01*
X89051428Y-113847200D02*
X89099047Y-113799580D01*
X89099047Y-113799580D02*
X89146666Y-113704342D01*
X89146666Y-113704342D02*
X89194285Y-113513866D01*
X89194285Y-113513866D02*
X89194285Y-113275771D01*
X89194285Y-113275771D02*
X89146666Y-113085295D01*
X89146666Y-113085295D02*
X89099047Y-112990057D01*
X89099047Y-112990057D02*
X89051428Y-112942438D01*
X89051428Y-112942438D02*
X88956190Y-112894819D01*
X88194285Y-113228152D02*
X88194285Y-113894819D01*
X88194285Y-113323390D02*
X88146666Y-113275771D01*
X88146666Y-113275771D02*
X88051428Y-113228152D01*
X88051428Y-113228152D02*
X87908571Y-113228152D01*
X87908571Y-113228152D02*
X87813333Y-113275771D01*
X87813333Y-113275771D02*
X87765714Y-113371009D01*
X87765714Y-113371009D02*
X87765714Y-113894819D01*
X86956190Y-113371009D02*
X87289523Y-113371009D01*
X87289523Y-113894819D02*
X87289523Y-112894819D01*
X87289523Y-112894819D02*
X86813333Y-112894819D01*
D11*
X89063333Y-115299530D02*
X89087142Y-115323340D01*
X89087142Y-115323340D02*
X89158571Y-115347149D01*
X89158571Y-115347149D02*
X89206190Y-115347149D01*
X89206190Y-115347149D02*
X89277618Y-115323340D01*
X89277618Y-115323340D02*
X89325237Y-115275720D01*
X89325237Y-115275720D02*
X89349047Y-115228101D01*
X89349047Y-115228101D02*
X89372856Y-115132863D01*
X89372856Y-115132863D02*
X89372856Y-115061435D01*
X89372856Y-115061435D02*
X89349047Y-114966197D01*
X89349047Y-114966197D02*
X89325237Y-114918578D01*
X89325237Y-114918578D02*
X89277618Y-114870959D01*
X89277618Y-114870959D02*
X89206190Y-114847149D01*
X89206190Y-114847149D02*
X89158571Y-114847149D01*
X89158571Y-114847149D02*
X89087142Y-114870959D01*
X89087142Y-114870959D02*
X89063333Y-114894768D01*
X88634761Y-114847149D02*
X88729999Y-114847149D01*
X88729999Y-114847149D02*
X88777618Y-114870959D01*
X88777618Y-114870959D02*
X88801428Y-114894768D01*
X88801428Y-114894768D02*
X88849047Y-114966197D01*
X88849047Y-114966197D02*
X88872856Y-115061435D01*
X88872856Y-115061435D02*
X88872856Y-115251911D01*
X88872856Y-115251911D02*
X88849047Y-115299530D01*
X88849047Y-115299530D02*
X88825237Y-115323340D01*
X88825237Y-115323340D02*
X88777618Y-115347149D01*
X88777618Y-115347149D02*
X88682380Y-115347149D01*
X88682380Y-115347149D02*
X88634761Y-115323340D01*
X88634761Y-115323340D02*
X88610952Y-115299530D01*
X88610952Y-115299530D02*
X88587142Y-115251911D01*
X88587142Y-115251911D02*
X88587142Y-115132863D01*
X88587142Y-115132863D02*
X88610952Y-115085244D01*
X88610952Y-115085244D02*
X88634761Y-115061435D01*
X88634761Y-115061435D02*
X88682380Y-115037625D01*
X88682380Y-115037625D02*
X88777618Y-115037625D01*
X88777618Y-115037625D02*
X88825237Y-115061435D01*
X88825237Y-115061435D02*
X88849047Y-115085244D01*
X88849047Y-115085244D02*
X88872856Y-115132863D01*
D10*
X90527619Y-116644819D02*
X91099047Y-116644819D01*
X90813333Y-116644819D02*
X90813333Y-115644819D01*
X90813333Y-115644819D02*
X90908571Y-115787676D01*
X90908571Y-115787676D02*
X91003809Y-115882914D01*
X91003809Y-115882914D02*
X91099047Y-115930533D01*
X89908571Y-115644819D02*
X89813333Y-115644819D01*
X89813333Y-115644819D02*
X89718095Y-115692438D01*
X89718095Y-115692438D02*
X89670476Y-115740057D01*
X89670476Y-115740057D02*
X89622857Y-115835295D01*
X89622857Y-115835295D02*
X89575238Y-116025771D01*
X89575238Y-116025771D02*
X89575238Y-116263866D01*
X89575238Y-116263866D02*
X89622857Y-116454342D01*
X89622857Y-116454342D02*
X89670476Y-116549580D01*
X89670476Y-116549580D02*
X89718095Y-116597200D01*
X89718095Y-116597200D02*
X89813333Y-116644819D01*
X89813333Y-116644819D02*
X89908571Y-116644819D01*
X89908571Y-116644819D02*
X90003809Y-116597200D01*
X90003809Y-116597200D02*
X90051428Y-116549580D01*
X90051428Y-116549580D02*
X90099047Y-116454342D01*
X90099047Y-116454342D02*
X90146666Y-116263866D01*
X90146666Y-116263866D02*
X90146666Y-116025771D01*
X90146666Y-116025771D02*
X90099047Y-115835295D01*
X90099047Y-115835295D02*
X90051428Y-115740057D01*
X90051428Y-115740057D02*
X90003809Y-115692438D01*
X90003809Y-115692438D02*
X89908571Y-115644819D01*
X88956190Y-115644819D02*
X88860952Y-115644819D01*
X88860952Y-115644819D02*
X88765714Y-115692438D01*
X88765714Y-115692438D02*
X88718095Y-115740057D01*
X88718095Y-115740057D02*
X88670476Y-115835295D01*
X88670476Y-115835295D02*
X88622857Y-116025771D01*
X88622857Y-116025771D02*
X88622857Y-116263866D01*
X88622857Y-116263866D02*
X88670476Y-116454342D01*
X88670476Y-116454342D02*
X88718095Y-116549580D01*
X88718095Y-116549580D02*
X88765714Y-116597200D01*
X88765714Y-116597200D02*
X88860952Y-116644819D01*
X88860952Y-116644819D02*
X88956190Y-116644819D01*
X88956190Y-116644819D02*
X89051428Y-116597200D01*
X89051428Y-116597200D02*
X89099047Y-116549580D01*
X89099047Y-116549580D02*
X89146666Y-116454342D01*
X89146666Y-116454342D02*
X89194285Y-116263866D01*
X89194285Y-116263866D02*
X89194285Y-116025771D01*
X89194285Y-116025771D02*
X89146666Y-115835295D01*
X89146666Y-115835295D02*
X89099047Y-115740057D01*
X89099047Y-115740057D02*
X89051428Y-115692438D01*
X89051428Y-115692438D02*
X88956190Y-115644819D01*
X88194285Y-115978152D02*
X88194285Y-116644819D01*
X88194285Y-116073390D02*
X88146666Y-116025771D01*
X88146666Y-116025771D02*
X88051428Y-115978152D01*
X88051428Y-115978152D02*
X87908571Y-115978152D01*
X87908571Y-115978152D02*
X87813333Y-116025771D01*
X87813333Y-116025771D02*
X87765714Y-116121009D01*
X87765714Y-116121009D02*
X87765714Y-116644819D01*
X86956190Y-116121009D02*
X87289523Y-116121009D01*
X87289523Y-116644819D02*
X87289523Y-115644819D01*
X87289523Y-115644819D02*
X86813333Y-115644819D01*
D11*
X89063333Y-118049530D02*
X89087142Y-118073340D01*
X89087142Y-118073340D02*
X89158571Y-118097149D01*
X89158571Y-118097149D02*
X89206190Y-118097149D01*
X89206190Y-118097149D02*
X89277618Y-118073340D01*
X89277618Y-118073340D02*
X89325237Y-118025720D01*
X89325237Y-118025720D02*
X89349047Y-117978101D01*
X89349047Y-117978101D02*
X89372856Y-117882863D01*
X89372856Y-117882863D02*
X89372856Y-117811435D01*
X89372856Y-117811435D02*
X89349047Y-117716197D01*
X89349047Y-117716197D02*
X89325237Y-117668578D01*
X89325237Y-117668578D02*
X89277618Y-117620959D01*
X89277618Y-117620959D02*
X89206190Y-117597149D01*
X89206190Y-117597149D02*
X89158571Y-117597149D01*
X89158571Y-117597149D02*
X89087142Y-117620959D01*
X89087142Y-117620959D02*
X89063333Y-117644768D01*
X88634761Y-117763816D02*
X88634761Y-118097149D01*
X88753809Y-117573340D02*
X88872856Y-117930482D01*
X88872856Y-117930482D02*
X88563333Y-117930482D01*
D10*
X129874404Y-99357200D02*
X129731547Y-99404819D01*
X129731547Y-99404819D02*
X129493452Y-99404819D01*
X129493452Y-99404819D02*
X129398214Y-99357200D01*
X129398214Y-99357200D02*
X129350595Y-99309580D01*
X129350595Y-99309580D02*
X129302976Y-99214342D01*
X129302976Y-99214342D02*
X129302976Y-99119104D01*
X129302976Y-99119104D02*
X129350595Y-99023866D01*
X129350595Y-99023866D02*
X129398214Y-98976247D01*
X129398214Y-98976247D02*
X129493452Y-98928628D01*
X129493452Y-98928628D02*
X129683928Y-98881009D01*
X129683928Y-98881009D02*
X129779166Y-98833390D01*
X129779166Y-98833390D02*
X129826785Y-98785771D01*
X129826785Y-98785771D02*
X129874404Y-98690533D01*
X129874404Y-98690533D02*
X129874404Y-98595295D01*
X129874404Y-98595295D02*
X129826785Y-98500057D01*
X129826785Y-98500057D02*
X129779166Y-98452438D01*
X129779166Y-98452438D02*
X129683928Y-98404819D01*
X129683928Y-98404819D02*
X129445833Y-98404819D01*
X129445833Y-98404819D02*
X129302976Y-98452438D01*
X128302976Y-99404819D02*
X128636309Y-98928628D01*
X128874404Y-99404819D02*
X128874404Y-98404819D01*
X128874404Y-98404819D02*
X128493452Y-98404819D01*
X128493452Y-98404819D02*
X128398214Y-98452438D01*
X128398214Y-98452438D02*
X128350595Y-98500057D01*
X128350595Y-98500057D02*
X128302976Y-98595295D01*
X128302976Y-98595295D02*
X128302976Y-98738152D01*
X128302976Y-98738152D02*
X128350595Y-98833390D01*
X128350595Y-98833390D02*
X128398214Y-98881009D01*
X128398214Y-98881009D02*
X128493452Y-98928628D01*
X128493452Y-98928628D02*
X128874404Y-98928628D01*
X128017261Y-98404819D02*
X127683928Y-99404819D01*
X127683928Y-99404819D02*
X127350595Y-98404819D01*
X126826785Y-98404819D02*
X126731547Y-98404819D01*
X126731547Y-98404819D02*
X126636309Y-98452438D01*
X126636309Y-98452438D02*
X126588690Y-98500057D01*
X126588690Y-98500057D02*
X126541071Y-98595295D01*
X126541071Y-98595295D02*
X126493452Y-98785771D01*
X126493452Y-98785771D02*
X126493452Y-99023866D01*
X126493452Y-99023866D02*
X126541071Y-99214342D01*
X126541071Y-99214342D02*
X126588690Y-99309580D01*
X126588690Y-99309580D02*
X126636309Y-99357200D01*
X126636309Y-99357200D02*
X126731547Y-99404819D01*
X126731547Y-99404819D02*
X126826785Y-99404819D01*
X126826785Y-99404819D02*
X126922023Y-99357200D01*
X126922023Y-99357200D02*
X126969642Y-99309580D01*
X126969642Y-99309580D02*
X127017261Y-99214342D01*
X127017261Y-99214342D02*
X127064880Y-99023866D01*
X127064880Y-99023866D02*
X127064880Y-98785771D01*
X127064880Y-98785771D02*
X127017261Y-98595295D01*
X127017261Y-98595295D02*
X126969642Y-98500057D01*
X126969642Y-98500057D02*
X126922023Y-98452438D01*
X126922023Y-98452438D02*
X126826785Y-98404819D01*
X125588690Y-98404819D02*
X126064880Y-98404819D01*
X126064880Y-98404819D02*
X126112499Y-98881009D01*
X126112499Y-98881009D02*
X126064880Y-98833390D01*
X126064880Y-98833390D02*
X125969642Y-98785771D01*
X125969642Y-98785771D02*
X125731547Y-98785771D01*
X125731547Y-98785771D02*
X125636309Y-98833390D01*
X125636309Y-98833390D02*
X125588690Y-98881009D01*
X125588690Y-98881009D02*
X125541071Y-98976247D01*
X125541071Y-98976247D02*
X125541071Y-99214342D01*
X125541071Y-99214342D02*
X125588690Y-99309580D01*
X125588690Y-99309580D02*
X125636309Y-99357200D01*
X125636309Y-99357200D02*
X125731547Y-99404819D01*
X125731547Y-99404819D02*
X125969642Y-99404819D01*
X125969642Y-99404819D02*
X126064880Y-99357200D01*
X126064880Y-99357200D02*
X126112499Y-99309580D01*
X125112499Y-99023866D02*
X124350595Y-99023866D01*
X123445833Y-98738152D02*
X123445833Y-99404819D01*
X123683928Y-98357200D02*
X123922023Y-99071485D01*
X123922023Y-99071485D02*
X123302976Y-99071485D01*
X90484819Y-120727380D02*
X90484819Y-120155952D01*
X90484819Y-120441666D02*
X89484819Y-120441666D01*
X89484819Y-120441666D02*
X89627676Y-120346428D01*
X89627676Y-120346428D02*
X89722914Y-120251190D01*
X89722914Y-120251190D02*
X89770533Y-120155952D01*
X89484819Y-121346428D02*
X89484819Y-121441666D01*
X89484819Y-121441666D02*
X89532438Y-121536904D01*
X89532438Y-121536904D02*
X89580057Y-121584523D01*
X89580057Y-121584523D02*
X89675295Y-121632142D01*
X89675295Y-121632142D02*
X89865771Y-121679761D01*
X89865771Y-121679761D02*
X90103866Y-121679761D01*
X90103866Y-121679761D02*
X90294342Y-121632142D01*
X90294342Y-121632142D02*
X90389580Y-121584523D01*
X90389580Y-121584523D02*
X90437200Y-121536904D01*
X90437200Y-121536904D02*
X90484819Y-121441666D01*
X90484819Y-121441666D02*
X90484819Y-121346428D01*
X90484819Y-121346428D02*
X90437200Y-121251190D01*
X90437200Y-121251190D02*
X90389580Y-121203571D01*
X90389580Y-121203571D02*
X90294342Y-121155952D01*
X90294342Y-121155952D02*
X90103866Y-121108333D01*
X90103866Y-121108333D02*
X89865771Y-121108333D01*
X89865771Y-121108333D02*
X89675295Y-121155952D01*
X89675295Y-121155952D02*
X89580057Y-121203571D01*
X89580057Y-121203571D02*
X89532438Y-121251190D01*
X89532438Y-121251190D02*
X89484819Y-121346428D01*
X89484819Y-122298809D02*
X89484819Y-122394047D01*
X89484819Y-122394047D02*
X89532438Y-122489285D01*
X89532438Y-122489285D02*
X89580057Y-122536904D01*
X89580057Y-122536904D02*
X89675295Y-122584523D01*
X89675295Y-122584523D02*
X89865771Y-122632142D01*
X89865771Y-122632142D02*
X90103866Y-122632142D01*
X90103866Y-122632142D02*
X90294342Y-122584523D01*
X90294342Y-122584523D02*
X90389580Y-122536904D01*
X90389580Y-122536904D02*
X90437200Y-122489285D01*
X90437200Y-122489285D02*
X90484819Y-122394047D01*
X90484819Y-122394047D02*
X90484819Y-122298809D01*
X90484819Y-122298809D02*
X90437200Y-122203571D01*
X90437200Y-122203571D02*
X90389580Y-122155952D01*
X90389580Y-122155952D02*
X90294342Y-122108333D01*
X90294342Y-122108333D02*
X90103866Y-122060714D01*
X90103866Y-122060714D02*
X89865771Y-122060714D01*
X89865771Y-122060714D02*
X89675295Y-122108333D01*
X89675295Y-122108333D02*
X89580057Y-122155952D01*
X89580057Y-122155952D02*
X89532438Y-122203571D01*
X89532438Y-122203571D02*
X89484819Y-122298809D01*
X89818152Y-123060714D02*
X90484819Y-123060714D01*
X89913390Y-123060714D02*
X89865771Y-123108333D01*
X89865771Y-123108333D02*
X89818152Y-123203571D01*
X89818152Y-123203571D02*
X89818152Y-123346428D01*
X89818152Y-123346428D02*
X89865771Y-123441666D01*
X89865771Y-123441666D02*
X89961009Y-123489285D01*
X89961009Y-123489285D02*
X90484819Y-123489285D01*
X89961009Y-124298809D02*
X89961009Y-123965476D01*
X90484819Y-123965476D02*
X89484819Y-123965476D01*
X89484819Y-123965476D02*
X89484819Y-124441666D01*
D11*
X88529530Y-122191666D02*
X88553340Y-122167857D01*
X88553340Y-122167857D02*
X88577149Y-122096428D01*
X88577149Y-122096428D02*
X88577149Y-122048809D01*
X88577149Y-122048809D02*
X88553340Y-121977381D01*
X88553340Y-121977381D02*
X88505720Y-121929762D01*
X88505720Y-121929762D02*
X88458101Y-121905952D01*
X88458101Y-121905952D02*
X88362863Y-121882143D01*
X88362863Y-121882143D02*
X88291435Y-121882143D01*
X88291435Y-121882143D02*
X88196197Y-121905952D01*
X88196197Y-121905952D02*
X88148578Y-121929762D01*
X88148578Y-121929762D02*
X88100959Y-121977381D01*
X88100959Y-121977381D02*
X88077149Y-122048809D01*
X88077149Y-122048809D02*
X88077149Y-122096428D01*
X88077149Y-122096428D02*
X88100959Y-122167857D01*
X88100959Y-122167857D02*
X88124768Y-122191666D01*
X88077149Y-122358333D02*
X88077149Y-122667857D01*
X88077149Y-122667857D02*
X88267625Y-122501190D01*
X88267625Y-122501190D02*
X88267625Y-122572619D01*
X88267625Y-122572619D02*
X88291435Y-122620238D01*
X88291435Y-122620238D02*
X88315244Y-122644047D01*
X88315244Y-122644047D02*
X88362863Y-122667857D01*
X88362863Y-122667857D02*
X88481911Y-122667857D01*
X88481911Y-122667857D02*
X88529530Y-122644047D01*
X88529530Y-122644047D02*
X88553340Y-122620238D01*
X88553340Y-122620238D02*
X88577149Y-122572619D01*
X88577149Y-122572619D02*
X88577149Y-122429762D01*
X88577149Y-122429762D02*
X88553340Y-122382143D01*
X88553340Y-122382143D02*
X88529530Y-122358333D01*
D10*
X90527619Y-108394819D02*
X91099047Y-108394819D01*
X90813333Y-108394819D02*
X90813333Y-107394819D01*
X90813333Y-107394819D02*
X90908571Y-107537676D01*
X90908571Y-107537676D02*
X91003809Y-107632914D01*
X91003809Y-107632914D02*
X91099047Y-107680533D01*
X89908571Y-107394819D02*
X89813333Y-107394819D01*
X89813333Y-107394819D02*
X89718095Y-107442438D01*
X89718095Y-107442438D02*
X89670476Y-107490057D01*
X89670476Y-107490057D02*
X89622857Y-107585295D01*
X89622857Y-107585295D02*
X89575238Y-107775771D01*
X89575238Y-107775771D02*
X89575238Y-108013866D01*
X89575238Y-108013866D02*
X89622857Y-108204342D01*
X89622857Y-108204342D02*
X89670476Y-108299580D01*
X89670476Y-108299580D02*
X89718095Y-108347200D01*
X89718095Y-108347200D02*
X89813333Y-108394819D01*
X89813333Y-108394819D02*
X89908571Y-108394819D01*
X89908571Y-108394819D02*
X90003809Y-108347200D01*
X90003809Y-108347200D02*
X90051428Y-108299580D01*
X90051428Y-108299580D02*
X90099047Y-108204342D01*
X90099047Y-108204342D02*
X90146666Y-108013866D01*
X90146666Y-108013866D02*
X90146666Y-107775771D01*
X90146666Y-107775771D02*
X90099047Y-107585295D01*
X90099047Y-107585295D02*
X90051428Y-107490057D01*
X90051428Y-107490057D02*
X90003809Y-107442438D01*
X90003809Y-107442438D02*
X89908571Y-107394819D01*
X88956190Y-107394819D02*
X88860952Y-107394819D01*
X88860952Y-107394819D02*
X88765714Y-107442438D01*
X88765714Y-107442438D02*
X88718095Y-107490057D01*
X88718095Y-107490057D02*
X88670476Y-107585295D01*
X88670476Y-107585295D02*
X88622857Y-107775771D01*
X88622857Y-107775771D02*
X88622857Y-108013866D01*
X88622857Y-108013866D02*
X88670476Y-108204342D01*
X88670476Y-108204342D02*
X88718095Y-108299580D01*
X88718095Y-108299580D02*
X88765714Y-108347200D01*
X88765714Y-108347200D02*
X88860952Y-108394819D01*
X88860952Y-108394819D02*
X88956190Y-108394819D01*
X88956190Y-108394819D02*
X89051428Y-108347200D01*
X89051428Y-108347200D02*
X89099047Y-108299580D01*
X89099047Y-108299580D02*
X89146666Y-108204342D01*
X89146666Y-108204342D02*
X89194285Y-108013866D01*
X89194285Y-108013866D02*
X89194285Y-107775771D01*
X89194285Y-107775771D02*
X89146666Y-107585295D01*
X89146666Y-107585295D02*
X89099047Y-107490057D01*
X89099047Y-107490057D02*
X89051428Y-107442438D01*
X89051428Y-107442438D02*
X88956190Y-107394819D01*
X88194285Y-107728152D02*
X88194285Y-108394819D01*
X88194285Y-107823390D02*
X88146666Y-107775771D01*
X88146666Y-107775771D02*
X88051428Y-107728152D01*
X88051428Y-107728152D02*
X87908571Y-107728152D01*
X87908571Y-107728152D02*
X87813333Y-107775771D01*
X87813333Y-107775771D02*
X87765714Y-107871009D01*
X87765714Y-107871009D02*
X87765714Y-108394819D01*
X86956190Y-107871009D02*
X87289523Y-107871009D01*
X87289523Y-108394819D02*
X87289523Y-107394819D01*
X87289523Y-107394819D02*
X86813333Y-107394819D01*
D11*
X89301428Y-109799530D02*
X89325237Y-109823340D01*
X89325237Y-109823340D02*
X89396666Y-109847149D01*
X89396666Y-109847149D02*
X89444285Y-109847149D01*
X89444285Y-109847149D02*
X89515713Y-109823340D01*
X89515713Y-109823340D02*
X89563332Y-109775720D01*
X89563332Y-109775720D02*
X89587142Y-109728101D01*
X89587142Y-109728101D02*
X89610951Y-109632863D01*
X89610951Y-109632863D02*
X89610951Y-109561435D01*
X89610951Y-109561435D02*
X89587142Y-109466197D01*
X89587142Y-109466197D02*
X89563332Y-109418578D01*
X89563332Y-109418578D02*
X89515713Y-109370959D01*
X89515713Y-109370959D02*
X89444285Y-109347149D01*
X89444285Y-109347149D02*
X89396666Y-109347149D01*
X89396666Y-109347149D02*
X89325237Y-109370959D01*
X89325237Y-109370959D02*
X89301428Y-109394768D01*
X88825237Y-109847149D02*
X89110951Y-109847149D01*
X88968094Y-109847149D02*
X88968094Y-109347149D01*
X88968094Y-109347149D02*
X89015713Y-109418578D01*
X89015713Y-109418578D02*
X89063332Y-109466197D01*
X89063332Y-109466197D02*
X89110951Y-109490006D01*
X88658571Y-109347149D02*
X88349047Y-109347149D01*
X88349047Y-109347149D02*
X88515714Y-109537625D01*
X88515714Y-109537625D02*
X88444285Y-109537625D01*
X88444285Y-109537625D02*
X88396666Y-109561435D01*
X88396666Y-109561435D02*
X88372857Y-109585244D01*
X88372857Y-109585244D02*
X88349047Y-109632863D01*
X88349047Y-109632863D02*
X88349047Y-109751911D01*
X88349047Y-109751911D02*
X88372857Y-109799530D01*
X88372857Y-109799530D02*
X88396666Y-109823340D01*
X88396666Y-109823340D02*
X88444285Y-109847149D01*
X88444285Y-109847149D02*
X88587142Y-109847149D01*
X88587142Y-109847149D02*
X88634761Y-109823340D01*
X88634761Y-109823340D02*
X88658571Y-109799530D01*
D10*
X90527619Y-111144819D02*
X91099047Y-111144819D01*
X90813333Y-111144819D02*
X90813333Y-110144819D01*
X90813333Y-110144819D02*
X90908571Y-110287676D01*
X90908571Y-110287676D02*
X91003809Y-110382914D01*
X91003809Y-110382914D02*
X91099047Y-110430533D01*
X89908571Y-110144819D02*
X89813333Y-110144819D01*
X89813333Y-110144819D02*
X89718095Y-110192438D01*
X89718095Y-110192438D02*
X89670476Y-110240057D01*
X89670476Y-110240057D02*
X89622857Y-110335295D01*
X89622857Y-110335295D02*
X89575238Y-110525771D01*
X89575238Y-110525771D02*
X89575238Y-110763866D01*
X89575238Y-110763866D02*
X89622857Y-110954342D01*
X89622857Y-110954342D02*
X89670476Y-111049580D01*
X89670476Y-111049580D02*
X89718095Y-111097200D01*
X89718095Y-111097200D02*
X89813333Y-111144819D01*
X89813333Y-111144819D02*
X89908571Y-111144819D01*
X89908571Y-111144819D02*
X90003809Y-111097200D01*
X90003809Y-111097200D02*
X90051428Y-111049580D01*
X90051428Y-111049580D02*
X90099047Y-110954342D01*
X90099047Y-110954342D02*
X90146666Y-110763866D01*
X90146666Y-110763866D02*
X90146666Y-110525771D01*
X90146666Y-110525771D02*
X90099047Y-110335295D01*
X90099047Y-110335295D02*
X90051428Y-110240057D01*
X90051428Y-110240057D02*
X90003809Y-110192438D01*
X90003809Y-110192438D02*
X89908571Y-110144819D01*
X88956190Y-110144819D02*
X88860952Y-110144819D01*
X88860952Y-110144819D02*
X88765714Y-110192438D01*
X88765714Y-110192438D02*
X88718095Y-110240057D01*
X88718095Y-110240057D02*
X88670476Y-110335295D01*
X88670476Y-110335295D02*
X88622857Y-110525771D01*
X88622857Y-110525771D02*
X88622857Y-110763866D01*
X88622857Y-110763866D02*
X88670476Y-110954342D01*
X88670476Y-110954342D02*
X88718095Y-111049580D01*
X88718095Y-111049580D02*
X88765714Y-111097200D01*
X88765714Y-111097200D02*
X88860952Y-111144819D01*
X88860952Y-111144819D02*
X88956190Y-111144819D01*
X88956190Y-111144819D02*
X89051428Y-111097200D01*
X89051428Y-111097200D02*
X89099047Y-111049580D01*
X89099047Y-111049580D02*
X89146666Y-110954342D01*
X89146666Y-110954342D02*
X89194285Y-110763866D01*
X89194285Y-110763866D02*
X89194285Y-110525771D01*
X89194285Y-110525771D02*
X89146666Y-110335295D01*
X89146666Y-110335295D02*
X89099047Y-110240057D01*
X89099047Y-110240057D02*
X89051428Y-110192438D01*
X89051428Y-110192438D02*
X88956190Y-110144819D01*
X88194285Y-110478152D02*
X88194285Y-111144819D01*
X88194285Y-110573390D02*
X88146666Y-110525771D01*
X88146666Y-110525771D02*
X88051428Y-110478152D01*
X88051428Y-110478152D02*
X87908571Y-110478152D01*
X87908571Y-110478152D02*
X87813333Y-110525771D01*
X87813333Y-110525771D02*
X87765714Y-110621009D01*
X87765714Y-110621009D02*
X87765714Y-111144819D01*
X86956190Y-110621009D02*
X87289523Y-110621009D01*
X87289523Y-111144819D02*
X87289523Y-110144819D01*
X87289523Y-110144819D02*
X86813333Y-110144819D01*
D11*
X89301428Y-112549530D02*
X89325237Y-112573340D01*
X89325237Y-112573340D02*
X89396666Y-112597149D01*
X89396666Y-112597149D02*
X89444285Y-112597149D01*
X89444285Y-112597149D02*
X89515713Y-112573340D01*
X89515713Y-112573340D02*
X89563332Y-112525720D01*
X89563332Y-112525720D02*
X89587142Y-112478101D01*
X89587142Y-112478101D02*
X89610951Y-112382863D01*
X89610951Y-112382863D02*
X89610951Y-112311435D01*
X89610951Y-112311435D02*
X89587142Y-112216197D01*
X89587142Y-112216197D02*
X89563332Y-112168578D01*
X89563332Y-112168578D02*
X89515713Y-112120959D01*
X89515713Y-112120959D02*
X89444285Y-112097149D01*
X89444285Y-112097149D02*
X89396666Y-112097149D01*
X89396666Y-112097149D02*
X89325237Y-112120959D01*
X89325237Y-112120959D02*
X89301428Y-112144768D01*
X88825237Y-112597149D02*
X89110951Y-112597149D01*
X88968094Y-112597149D02*
X88968094Y-112097149D01*
X88968094Y-112097149D02*
X89015713Y-112168578D01*
X89015713Y-112168578D02*
X89063332Y-112216197D01*
X89063332Y-112216197D02*
X89110951Y-112240006D01*
X88349047Y-112597149D02*
X88634761Y-112597149D01*
X88491904Y-112597149D02*
X88491904Y-112097149D01*
X88491904Y-112097149D02*
X88539523Y-112168578D01*
X88539523Y-112168578D02*
X88587142Y-112216197D01*
X88587142Y-112216197D02*
X88634761Y-112240006D01*
D12*
%TO.C,C6*%
X87980000Y-114495000D02*
X87980000Y-115745000D01*
X87980000Y-115745000D02*
X89980000Y-115745000D01*
X89980000Y-114495000D02*
X87980000Y-114495000D01*
X89980000Y-115745000D02*
X89980000Y-114495000D01*
%TO.C,C4*%
X87980000Y-117245000D02*
X87980000Y-118495000D01*
X87980000Y-118495000D02*
X89980000Y-118495000D01*
X89980000Y-117245000D02*
X87980000Y-117245000D01*
X89980000Y-118495000D02*
X89980000Y-117245000D01*
%TO.C,U3*%
X80230000Y-110220000D02*
X80230000Y-116920000D01*
X82930000Y-110220000D02*
X80230000Y-110220000D01*
X83930000Y-111220000D02*
X82930000Y-110220000D01*
X83930000Y-111220000D02*
X83930000Y-116920000D01*
X83930000Y-116920000D02*
X80230000Y-116920000D01*
%TO.C,U4*%
X125812500Y-95100000D02*
X125812500Y-98000000D01*
X125812500Y-98000000D02*
X127412500Y-98000000D01*
X127012500Y-95100000D02*
X125812500Y-95100000D01*
X127412500Y-95500000D02*
X127012500Y-95100000D01*
X127412500Y-98000000D02*
X127412500Y-95500000D01*
%TO.C,C3*%
X87725000Y-121275000D02*
X87725000Y-123275000D01*
X87725000Y-123275000D02*
X88975000Y-123275000D01*
X88975000Y-121275000D02*
X87725000Y-121275000D01*
X88975000Y-123275000D02*
X88975000Y-121275000D01*
%TO.C,C13*%
X87980000Y-108995000D02*
X87980000Y-110245000D01*
X87980000Y-110245000D02*
X89980000Y-110245000D01*
X89980000Y-108995000D02*
X87980000Y-108995000D01*
X89980000Y-110245000D02*
X89980000Y-108995000D01*
%TO.C,C11*%
X87980000Y-111745000D02*
X87980000Y-112995000D01*
X87980000Y-112995000D02*
X89980000Y-112995000D01*
X89980000Y-111745000D02*
X87980000Y-111745000D01*
X89980000Y-112995000D02*
X89980000Y-111745000D01*
%TD*%
M02*
