%TF.GenerationSoftware,KiCad,Pcbnew,9.0.2*%
%TF.CreationDate,2025-09-25T10:29:51+05:30*%
%TF.ProjectId,UNO STEMc3.1,554e4f20-5354-4454-9d63-332e312e6b69,rev?*%
%TF.SameCoordinates,Original*%
%TF.FileFunction,Paste,Top*%
%TF.FilePolarity,Positive*%
%FSLAX46Y46*%
G04 Gerber Fmt 4.6, Leading zero omitted, Abs format (unit mm)*
G04 Created by KiCad (PCBNEW 9.0.2) date 2025-09-25 10:29:51*
%MOMM*%
%LPD*%
G01*
G04 APERTURE LIST*
G04 Aperture macros list*
%AMRoundRect*
0 Rectangle with rounded corners*
0 $1 Rounding radius*
0 $2 $3 $4 $5 $6 $7 $8 $9 X,Y pos of 4 corners*
0 Add a 4 corners polygon primitive as box body*
4,1,4,$2,$3,$4,$5,$6,$7,$8,$9,$2,$3,0*
0 Add four circle primitives for the rounded corners*
1,1,$1+$1,$2,$3*
1,1,$1+$1,$4,$5*
1,1,$1+$1,$6,$7*
1,1,$1+$1,$8,$9*
0 Add four rect primitives between the rounded corners*
20,1,$1+$1,$2,$3,$4,$5,0*
20,1,$1+$1,$4,$5,$6,$7,0*
20,1,$1+$1,$6,$7,$8,$9,0*
20,1,$1+$1,$8,$9,$2,$3,0*%
G04 Aperture macros list end*
%ADD10RoundRect,0.250000X0.550000X-1.250000X0.550000X1.250000X-0.550000X1.250000X-0.550000X-1.250000X0*%
%ADD11RoundRect,0.135000X-0.185000X0.135000X-0.185000X-0.135000X0.185000X-0.135000X0.185000X0.135000X0*%
%ADD12RoundRect,0.243750X0.456250X-0.243750X0.456250X0.243750X-0.456250X0.243750X-0.456250X-0.243750X0*%
%ADD13RoundRect,0.225000X-0.375000X0.225000X-0.375000X-0.225000X0.375000X-0.225000X0.375000X0.225000X0*%
%ADD14RoundRect,0.135000X0.135000X0.185000X-0.135000X0.185000X-0.135000X-0.185000X0.135000X-0.185000X0*%
%ADD15RoundRect,0.250000X0.475000X-0.250000X0.475000X0.250000X-0.475000X0.250000X-0.475000X-0.250000X0*%
%ADD16R,3.600000X2.700000*%
%ADD17RoundRect,0.243750X-0.243750X-0.456250X0.243750X-0.456250X0.243750X0.456250X-0.243750X0.456250X0*%
%ADD18RoundRect,0.135000X0.185000X-0.135000X0.185000X0.135000X-0.185000X0.135000X-0.185000X-0.135000X0*%
%ADD19RoundRect,0.250000X-0.475000X0.250000X-0.475000X-0.250000X0.475000X-0.250000X0.475000X0.250000X0*%
%ADD20R,1.550000X0.600000*%
%ADD21R,2.600000X3.100000*%
%ADD22RoundRect,0.135000X-0.135000X-0.185000X0.135000X-0.185000X0.135000X0.185000X-0.135000X0.185000X0*%
%ADD23RoundRect,0.243750X0.243750X0.456250X-0.243750X0.456250X-0.243750X-0.456250X0.243750X-0.456250X0*%
%ADD24RoundRect,0.250000X0.250000X0.475000X-0.250000X0.475000X-0.250000X-0.475000X0.250000X-0.475000X0*%
%ADD25RoundRect,0.250000X0.650000X-1.000000X0.650000X1.000000X-0.650000X1.000000X-0.650000X-1.000000X0*%
%ADD26RoundRect,0.250000X-0.250000X-0.475000X0.250000X-0.475000X0.250000X0.475000X-0.250000X0.475000X0*%
%ADD27RoundRect,0.150000X0.150000X-0.587500X0.150000X0.587500X-0.150000X0.587500X-0.150000X-0.587500X0*%
%ADD28RoundRect,0.150000X0.825000X0.150000X-0.825000X0.150000X-0.825000X-0.150000X0.825000X-0.150000X0*%
%ADD29RoundRect,0.200000X0.275000X-0.200000X0.275000X0.200000X-0.275000X0.200000X-0.275000X-0.200000X0*%
%ADD30RoundRect,0.150000X-1.050000X-0.150000X1.050000X-0.150000X1.050000X0.150000X-1.050000X0.150000X0*%
%ADD31RoundRect,0.250000X-1.950000X-1.000000X1.950000X-1.000000X1.950000X1.000000X-1.950000X1.000000X0*%
G04 APERTURE END LIST*
D10*
%TO.C,C1*%
X94730000Y-88920000D03*
X94730000Y-93320000D03*
%TD*%
D11*
%TO.C,R5*%
X95230000Y-111420000D03*
X95230000Y-110400000D03*
%TD*%
D12*
%TO.C,D3*%
X94750000Y-116437500D03*
X94750000Y-114562500D03*
%TD*%
D13*
%TO.C,D5*%
X79250000Y-125950000D03*
X79250000Y-129250000D03*
%TD*%
D14*
%TO.C,R11*%
X108770000Y-171250000D03*
X107750000Y-171250000D03*
%TD*%
%TO.C,R17*%
X69310000Y-116000000D03*
X68290000Y-116000000D03*
%TD*%
D15*
%TO.C,C17*%
X78250000Y-145950000D03*
X78250000Y-144050000D03*
%TD*%
D12*
%TO.C,D4*%
X103250000Y-91937500D03*
X103250000Y-90062500D03*
%TD*%
D16*
%TO.C,L1*%
X69300000Y-102350000D03*
X69300000Y-110650000D03*
%TD*%
D17*
%TO.C,D11*%
X72662500Y-115800000D03*
X74537500Y-115800000D03*
%TD*%
D18*
%TO.C,R3*%
X77800000Y-103710000D03*
X77800000Y-102690000D03*
%TD*%
D19*
%TO.C,C18*%
X78250000Y-151762500D03*
X78250000Y-153662500D03*
%TD*%
%TO.C,C14*%
X122100000Y-109620000D03*
X122100000Y-111520000D03*
%TD*%
D15*
%TO.C,C10*%
X118000000Y-108120000D03*
X118000000Y-106220000D03*
%TD*%
D20*
%TO.C,U2*%
X87200000Y-100395000D03*
X87200000Y-101665000D03*
X87200000Y-102935000D03*
X87200000Y-104205000D03*
X92600000Y-104205000D03*
X92600000Y-102935000D03*
X92600000Y-101665000D03*
X92600000Y-100395000D03*
D21*
X89900000Y-102300000D03*
%TD*%
D22*
%TO.C,R6*%
X117065000Y-115750000D03*
X118085000Y-115750000D03*
%TD*%
D11*
%TO.C,R1*%
X96250000Y-121480000D03*
X96250000Y-122500000D03*
%TD*%
D23*
%TO.C,D6*%
X84000000Y-171800000D03*
X82125000Y-171800000D03*
%TD*%
D15*
%TO.C,C19*%
X101000000Y-153450000D03*
X101000000Y-151550000D03*
%TD*%
D19*
%TO.C,C9*%
X92750000Y-114550000D03*
X92750000Y-116450000D03*
%TD*%
D11*
%TO.C,R9*%
X82250000Y-126990000D03*
X82250000Y-128010000D03*
%TD*%
D24*
%TO.C,C2*%
X77450000Y-97500000D03*
X75550000Y-97500000D03*
%TD*%
D25*
%TO.C,D1*%
X88500000Y-93500000D03*
X88500000Y-89500000D03*
%TD*%
D23*
%TO.C,D10*%
X84200000Y-175600000D03*
X82325000Y-175600000D03*
%TD*%
D19*
%TO.C,C7*%
X115400000Y-173250000D03*
X115400000Y-175150000D03*
%TD*%
%TO.C,C15*%
X126980000Y-109670000D03*
X126980000Y-111570000D03*
%TD*%
D22*
%TO.C,R12*%
X85890000Y-171800000D03*
X86910000Y-171800000D03*
%TD*%
D26*
%TO.C,C5*%
X89050000Y-97750000D03*
X90950000Y-97750000D03*
%TD*%
D22*
%TO.C,R10*%
X101577500Y-130000000D03*
X102597500Y-130000000D03*
%TD*%
%TO.C,R16*%
X85892597Y-175486456D03*
X86912597Y-175486456D03*
%TD*%
D27*
%TO.C,Q1*%
X100600000Y-123500000D03*
X102500000Y-123500000D03*
X101550000Y-121625000D03*
%TD*%
D28*
%TO.C,U5*%
X110730000Y-109140000D03*
X110730000Y-107870000D03*
X110730000Y-106600000D03*
X110730000Y-105330000D03*
X110730000Y-104060000D03*
X110730000Y-102790000D03*
X110730000Y-101520000D03*
X110730000Y-100250000D03*
X105780000Y-100250000D03*
X105780000Y-101520000D03*
X105780000Y-102790000D03*
X105780000Y-104060000D03*
X105780000Y-105330000D03*
X105780000Y-106600000D03*
X105780000Y-107870000D03*
X105780000Y-109140000D03*
%TD*%
D29*
%TO.C,R8*%
X105500000Y-92075000D03*
X105500000Y-90425000D03*
%TD*%
D30*
%TO.C,U7*%
X111633100Y-158879480D03*
X111633100Y-160149480D03*
X111633100Y-161419480D03*
X111633100Y-162689480D03*
X111633100Y-163959480D03*
X111633100Y-165229480D03*
X111633100Y-166499480D03*
X111633100Y-167769480D03*
X118133100Y-167769480D03*
X118133100Y-166499480D03*
X118133100Y-165229480D03*
X118133100Y-163959480D03*
X118133100Y-162689480D03*
X118133100Y-161419480D03*
X118133100Y-160149480D03*
X118133100Y-158879480D03*
%TD*%
D11*
%TO.C,R4*%
X79800000Y-102690000D03*
X79800000Y-103710000D03*
%TD*%
D14*
%TO.C,R7*%
X118085000Y-113750000D03*
X117065000Y-113750000D03*
%TD*%
D28*
%TO.C,U1*%
X90825000Y-124180000D03*
X90825000Y-122910000D03*
X90825000Y-121640000D03*
X90825000Y-120370000D03*
X85875000Y-120370000D03*
X85875000Y-121640000D03*
X85875000Y-122910000D03*
X85875000Y-124180000D03*
%TD*%
D11*
%TO.C,R2*%
X96250000Y-123980000D03*
X96250000Y-125000000D03*
%TD*%
D31*
%TO.C,C8*%
X81000000Y-112200000D03*
X89400000Y-112200000D03*
%TD*%
D15*
%TO.C,C16*%
X115480000Y-108120000D03*
X115480000Y-106220000D03*
%TD*%
D25*
%TO.C,D2*%
X71250000Y-95500000D03*
X71250000Y-91500000D03*
%TD*%
M02*
